<?xml version="1.0" encoding="UTF-8" standalone="no"?>
<!-- Created with Inkscape (http://www.inkscape.org/) -->

<svg
   xmlns:dc="http://purl.org/dc/elements/1.1/"
   xmlns:cc="http://creativecommons.org/ns#"
   xmlns:rdf="http://www.w3.org/1999/02/22-rdf-syntax-ns#"
   xmlns:svg="http://www.w3.org/2000/svg"
   xmlns="http://www.w3.org/2000/svg"
   xmlns:sodipodi="http://sodipodi.sourceforge.net/DTD/sodipodi-0.dtd"
   xmlns:inkscape="http://www.inkscape.org/namespaces/inkscape"
   width="297mm"
   height="210mm"
   viewBox="0 0 297 210"
   version="1.1"
   id="svg8"
   sodipodi:docname="features_all.svg"
   inkscape:version="0.92.3 (2405546, 2018-03-11)">
  <sodipodi:namedview
     id="base"
     pagecolor="#ffffff"
     bordercolor="#666666"
     borderopacity="1.0"
     inkscape:pageopacity="0.0"
     inkscape:pageshadow="2"
     inkscape:zoom="0.5"
     inkscape:cx="355.63347"
     inkscape:cy="430.48554"
     inkscape:document-units="mm"
     inkscape:current-layer="g3521"
     showgrid="false"
     inkscape:window-width="1920"
     inkscape:window-height="1141"
     inkscape:window-x="0"
     inkscape:window-y="0"
     inkscape:window-maximized="1"
     showguides="true"
     inkscape:guide-bbox="true" />
  <defs
     id="defs2">
    <marker
       inkscape:isstock="true"
       style="overflow:visible;"
       id="marker9462"
       refX="0.0"
       refY="0.0"
       orient="auto"
       inkscape:stockid="Arrow1Lend">
      <path
         transform="scale(0.8) rotate(180) translate(12.5,0)"
         style="fill-rule:evenodd;stroke:#800000;stroke-width:1pt;stroke-opacity:1;fill:#800000;fill-opacity:1"
         d="M 0.0,0.0 L 5.0,-5.0 L -12.5,0.0 L 5.0,5.0 L 0.0,0.0 z "
         id="path9460" />
    </marker>
    <marker
       inkscape:stockid="Arrow1Lstart"
       orient="auto"
       refY="0.0"
       refX="0.0"
       id="Arrow1Lstart"
       style="overflow:visible"
       inkscape:isstock="true">
      <path
         id="path8696"
         d="M 0.0,0.0 L 5.0,-5.0 L -12.5,0.0 L 5.0,5.0 L 0.0,0.0 z "
         style="fill-rule:evenodd;stroke:#000000;stroke-width:1pt;stroke-opacity:1;fill:#000000;fill-opacity:1"
         transform="scale(0.8) translate(12.5,0)" />
    </marker>
    <marker
       inkscape:stockid="DotL"
       orient="auto"
       refY="0"
       refX="0"
       id="marker1783"
       style="overflow:visible"
       inkscape:isstock="true">
      <path
         inkscape:connector-curvature="0"
         id="path1781"
         d="m -2.5,-1 c 0,2.76 -2.24,5 -5,5 -2.76,0 -5,-2.24 -5,-5 0,-2.76 2.24,-5 5,-5 2.76,0 5,2.24 5,5 z"
         style="fill:#442178;fill-opacity:1;fill-rule:evenodd;stroke:#442178;stroke-width:1.00000003pt;stroke-opacity:1"
         transform="matrix(0.8,0,0,0.8,5.92,0.8)" />
    </marker>
    <marker
       inkscape:isstock="true"
       style="overflow:visible"
       id="marker1731"
       refX="0"
       refY="0"
       orient="auto"
       inkscape:stockid="DotL">
      <path
         inkscape:connector-curvature="0"
         transform="matrix(0.8,0,0,0.8,5.92,0.8)"
         style="fill:#442178;fill-opacity:1;fill-rule:evenodd;stroke:#442178;stroke-width:1.00000003pt;stroke-opacity:1"
         d="m -2.5,-1 c 0,2.76 -2.24,5 -5,5 -2.76,0 -5,-2.24 -5,-5 0,-2.76 2.24,-5 5,-5 2.76,0 5,2.24 5,5 z"
         id="path1729" />
    </marker>
  </defs>
  <metadata
     id="metadata5">
    <rdf:RDF>
      <cc:Work
         rdf:about="">
        <dc:format>image/svg+xml</dc:format>
        <dc:type
           rdf:resource="http://purl.org/dc/dcmitype/StillImage" />
        <dc:title />
      </cc:Work>
    </rdf:RDF>
  </metadata>
  <g
     inkscape:label="Ebene 1"
     inkscape:groupmode="layer"
     id="layer1"
     transform="translate(0,-87)">
    <flowRoot
       xml:space="preserve"
       id="flowRoot12"
       style="fill:black;fill-opacity:1;stroke:none;font-family:sans-serif;font-style:normal;font-weight:normal;font-size:40px;line-height:1.25;letter-spacing:0px;word-spacing:0px"><flowRegion
         id="flowRegion14"><rect
           id="rect16"
           width="530.80298"
           height="742.78687"
           x="32.054188"
           y="23.771109" /></flowRegion><flowPara
         id="flowPara18" /></flowRoot>    <g
       id="g994"
       transform="translate(0,-2.6458332)" />
    <g
       id="g3521">
      <g
         id="g2271">
        <g
           id="g161"
           transform="translate(-52.22064,124.06518)">
          <rect
             transform="matrix(1,0,0.93253677,-0.36107502,0,0)"
             y="-457.01312"
             x="481.90619"
             height="5.337039"
             width="286.61618"
             id="rect258-1"
             style="fill:#003380;fill-opacity:1;stroke:#000080;stroke-width:0.29982483;stroke-opacity:1" />
          <text
             id="text262-9"
             y="171.34727"
             x="68.161568"
             style="font-style:normal;font-variant:normal;font-weight:normal;font-stretch:normal;font-size:5.64444447px;line-height:1.25;font-family:Hack;-inkscape-font-specification:Hack;letter-spacing:0px;word-spacing:0px;fill:#003380;fill-opacity:1;stroke:none;stroke-width:0.26458332"
             xml:space="preserve"><tspan
               style="font-style:normal;font-variant:normal;font-weight:normal;font-stretch:normal;font-size:7.05555534px;font-family:Arial;-inkscape-font-specification:Arial;fill:#003380;fill-opacity:1;stroke-width:0.26458332"
               y="171.34727"
               x="68.161568"
               id="tspan260-4"
               sodipodi:role="line">ABP Group Information Meeting - February 2020 :: SixTrackLib :: Schwinzerl :: Slide 2</tspan></text>
        </g>
        <rect
           style="fill:#003380;fill-opacity:1;stroke:#000080;stroke-width:0.29982483;stroke-opacity:1"
           id="rect10"
           width="286.61618"
           height="5.337039"
           x="-273.45444"
           y="296.99466"
           transform="matrix(1,0,0.93253678,0.36107501,0,0)" />
        <text
           id="text6058"
           y="103.09821"
           x="8.9664803"
           style="font-style:normal;font-variant:normal;font-weight:normal;font-stretch:normal;font-size:10.58333302px;line-height:1.25;font-family:Hack;-inkscape-font-specification:Hack;letter-spacing:0px;word-spacing:0px;fill:#003380;fill-opacity:1;stroke:none;stroke-width:0.26458332"
           xml:space="preserve"><tspan
             style="font-style:normal;font-variant:normal;font-weight:normal;font-stretch:normal;font-size:11.28888893px;font-family:Arial;-inkscape-font-specification:Arial;fill:#003380;fill-opacity:1;stroke-width:0.26458332"
             y="103.09821"
             x="8.9664803"
             id="tspan6056"
             sodipodi:role="line">SixTrackLib: Features</tspan></text>
        <g
           id="g7745"
           transform="translate(0,-0.30198876)">
          <text
             id="text7743"
             y="134.45419"
             x="8.8112078"
             style="font-style:normal;font-weight:normal;font-size:7.66535616px;line-height:1.5;font-family:sans-serif;letter-spacing:0px;word-spacing:0px;fill:#0f0f0f;fill-opacity:1;stroke:none;stroke-width:0.19163391"
             xml:space="preserve"><tspan
               style="font-style:normal;font-variant:normal;font-weight:normal;font-stretch:normal;font-size:8.46666622px;line-height:1.5;font-family:Arial;-inkscape-font-specification:Arial;fill:#0f0f0f;fill-opacity:1;stroke-width:0.19163391"
               y="134.45419"
               x="8.8112078"
               sodipodi:role="line"
               id="tspan7737"><tspan
   id="tspan7733"
   style="font-style:normal;font-variant:normal;font-weight:normal;font-stretch:normal;font-size:8.46666622px;font-family:Arial;-inkscape-font-specification:Arial;fill:#800000">•</tspan> OpenCL 1.2, CUDA, SIMD Auto-Vectorisation / C, C++, Python3</tspan><tspan
               style="font-style:normal;font-variant:normal;font-weight:normal;font-stretch:normal;line-height:1.5;font-family:Hack;-inkscape-font-specification:Hack;fill:#0f0f0f;fill-opacity:1;stroke-width:0.19163391"
               y="146.20969"
               x="8.8112078"
               sodipodi:role="line"
               id="tspan7739" /><tspan
               id="tspan7741"
               style="font-style:normal;font-variant:normal;font-weight:normal;font-stretch:normal;line-height:1.5;font-family:Hack;-inkscape-font-specification:Hack;fill:#0f0f0f;fill-opacity:1;stroke-width:0.19163391"
               y="157.70772"
               x="8.8112078"
               sodipodi:role="line" /></text>
        </g>
        <g
           id="g3418"
           transform="translate(0,0.76960376)">
          <rect
             y="140.5743"
             x="4.9951053"
             height="92.441383"
             width="288.61096"
             id="rect3185"
             style="fill:#d7eef4;fill-opacity:1;stroke:none;stroke-width:0.26040077" />
          <g
             transform="translate(0,-3.6642913)"
             id="g3181">
            <g
               id="g7408"
               transform="translate(-0.13563421,19.504966)">
              <text
                 id="text6096"
                 y="134.45419"
                 x="8.8112078"
                 style="font-style:normal;font-weight:normal;font-size:7.66535616px;line-height:1.5;font-family:sans-serif;letter-spacing:0px;word-spacing:0px;fill:#0f0f0f;fill-opacity:1;stroke:none;stroke-width:0.19163391"
                 xml:space="preserve"><tspan
                   style="font-style:normal;font-variant:normal;font-weight:normal;font-stretch:normal;font-size:8.46666622px;line-height:1.5;font-family:Arial;-inkscape-font-specification:Arial;fill:#0f0f0f;fill-opacity:1;stroke-width:0.19163391"
                   y="134.45419"
                   x="8.8112078"
                   sodipodi:role="line"
                   id="tspan7711"><tspan
   id="tspan7368"
   style="font-style:normal;font-variant:normal;font-weight:normal;font-stretch:normal;font-size:8.46666622px;font-family:Arial;-inkscape-font-specification:Arial;fill:#800000">•</tspan> Particles: 6D Phase-Space</tspan><tspan
                   style="font-style:normal;font-variant:normal;font-weight:normal;font-stretch:normal;line-height:1.5;font-family:Hack;-inkscape-font-specification:Hack;fill:#0f0f0f;fill-opacity:1;stroke-width:0.19163391"
                   y="146.20969"
                   x="8.8112078"
                   sodipodi:role="line"
                   id="tspan7713" /><tspan
                   id="tspan7378"
                   style="font-style:normal;font-variant:normal;font-weight:normal;font-stretch:normal;line-height:1.5;font-family:Hack;-inkscape-font-specification:Hack;fill:#0f0f0f;fill-opacity:1;stroke-width:0.19163391"
                   y="157.70772"
                   x="8.8112078"
                   sodipodi:role="line" /></text>
              <g
                 transform="matrix(0.75972688,0,0,0.75972688,-46.412487,70.725768)"
                 id="g7814">
                <g
                   style="font-style:normal;font-variant:normal;font-weight:normal;font-stretch:normal;letter-spacing:normal;word-spacing:normal;text-anchor:start;fill:none;fill-opacity:1;fill-rule:evenodd;stroke:#000000;stroke-linecap:butt;stroke-linejoin:miter;stroke-miterlimit:10.43299961;stroke-dasharray:none;stroke-dashoffset:0;stroke-opacity:1"
                   id="content"
                   transform="matrix(0.3,0,0,-0.3,-52.5,222.75)"
                   xml:space="preserve"
                   stroke-miterlimit="10.433"
                   font-style="normal"
                   font-variant="normal"
                   font-weight="normal"
                   font-stretch="normal"
                   font-size-adjust="none"
                   letter-spacing="normal"
                   word-spacing="normal"><path
                     style="fill:#000000;stroke-width:0"
                     inkscape:connector-curvature="0"
                     d="m 469.61,436.93 0.01,0.19 0.01,0.2 0.02,0.2 0.03,0.21 0.04,0.21 0.05,0.22 0.06,0.21 0.07,0.22 0.08,0.22 0.1,0.22 0.11,0.22 0.12,0.22 0.14,0.22 0.15,0.21 0.16,0.21 0.18,0.21 0.2,0.2 0.21,0.2 0.23,0.19 0.25,0.18 0.26,0.18 0.29,0.16 0.3,0.16 0.32,0.15 0.34,0.13 0.37,0.13 0.38,0.11 0.41,0.1 0.21,0.05 0.22,0.04 0.22,0.03 0.23,0.04 0.23,0.03 0.24,0.02 0.25,0.03 0.25,0.01 c 0.25,0.05 0.45,0.25 0.45,0.55 0,0.55 -0.41,0.55 -0.95,0.55 -4.99,0 -9.52,-2.53 -9.56,-6.22 v -11.36 c 0,-1.94 0,-3.55 -2,-5.19 -1.74,-1.43 -3.65,-1.54 -4.74,-1.59 -0.25,-0.05 -0.44,-0.25 -0.44,-0.55 0,-0.5 0.3,-0.5 0.8,-0.54 3.28,-0.21 5.67,-1.99 6.22,-4.44 0.16,-0.55 0.16,-0.64 0.16,-2.44 v -9.86 c 0,-2.09 0,-3.69 2.39,-5.58 1.93,-1.5 5.23,-2.04 7.17,-2.04 0.54,0 0.95,0 0.95,0.54 0,0.5 -0.31,0.5 -0.8,0.55 -3.14,0.2 -5.59,1.8 -6.23,4.33 -0.16,0.45 -0.16,0.54 -0.16,2.34 v 10.47 c 0,2.3 -0.39,3.14 -1.98,4.73 -1.05,1.05 -2.5,1.55 -3.89,1.94 4.09,1.14 5.87,3.44 5.87,6.33 z"
                     id="path7783" /><path
                     style="fill:#000000;stroke-width:0"
                     inkscape:connector-curvature="0"
                     d="m 497.12,421.25 0.03,0.13 0.03,0.15 0.04,0.16 0.05,0.18 0.05,0.19 0.06,0.21 0.07,0.22 0.07,0.22 0.08,0.23 0.09,0.24 0.09,0.25 0.11,0.24 0.11,0.25 0.12,0.25 0.13,0.25 0.13,0.25 0.15,0.24 0.16,0.24 0.17,0.23 0.17,0.22 0.19,0.22 0.2,0.2 0.21,0.19 0.22,0.18 0.23,0.16 0.25,0.14 0.12,0.07 0.13,0.06 0.13,0.05 0.14,0.05 0.14,0.05 0.14,0.04 0.15,0.03 0.15,0.03 0.15,0.02 0.15,0.02 0.16,0.01 h 0.16 c 0.25,0 1.44,0 2.49,-0.64 -1.39,-0.25 -2.39,-1.5 -2.39,-2.69 0,-0.79 0.55,-1.75 1.89,-1.75 1.09,0 2.69,0.89 2.69,2.89 0,2.6 -2.94,3.28 -4.63,3.28 -2.89,0 -4.64,-2.64 -5.23,-3.78 -1.25,3.28 -3.94,3.78 -5.38,3.78 -5.19,0 -8.03,-6.42 -8.03,-7.67 0,-0.5 0.5,-0.5 0.61,-0.5 0.39,0 0.55,0.11 0.64,0.55 1.69,5.28 4.99,6.53 6.67,6.53 0.96,0 2.69,-0.44 2.69,-3.33 0,-1.54 -0.84,-4.89 -2.69,-11.86 -0.79,-3.09 -2.53,-5.18 -4.73,-5.18 -0.3,0 -1.44,0 -2.49,0.65 1.25,0.24 2.35,1.28 2.35,2.69 0,1.34 -1.1,1.73 -1.85,1.73 -1.5,0 -2.75,-1.29 -2.75,-2.89 0,-2.28 2.5,-3.28 4.69,-3.28 3.3,0 5.08,3.49 5.24,3.78 0.59,-1.84 2.39,-3.78 5.37,-3.78 5.14,0 7.99,6.42 7.99,7.67 0,0.5 -0.46,0.5 -0.61,0.5 -0.44,0 -0.55,-0.2 -0.64,-0.54 -1.65,-5.33 -5.04,-6.53 -6.63,-6.53 -1.95,0 -2.75,1.59 -2.75,3.29 0,1.1 0.3,2.19 0.86,4.38 z"
                     id="path7785" /><path
                     style="fill:#000000;stroke-width:0"
                     inkscape:connector-curvature="0"
                     d="m 519.02,406.25 v 0.3 l -0.01,0.3 -0.02,0.29 -0.02,0.28 -0.04,0.27 -0.03,0.26 -0.05,0.26 -0.05,0.24 -0.06,0.24 -0.06,0.23 -0.07,0.22 -0.08,0.21 -0.08,0.2 -0.09,0.19 -0.1,0.19 -0.1,0.17 -0.1,0.16 -0.12,0.16 -0.11,0.14 -0.13,0.13 -0.13,0.13 -0.13,0.11 -0.14,0.1 -0.14,0.1 -0.15,0.08 -0.15,0.07 -0.16,0.06 -0.17,0.05 -0.16,0.04 -0.18,0.03 -0.17,0.01 -0.18,0.01 c -1.64,0 -2.64,-1.25 -2.64,-2.64 0,-1.34 1,-2.64 2.64,-2.64 0.59,0 1.25,0.2 1.75,0.64 0.14,0.11 0.2,0.16 0.25,0.16 0.04,0 0.09,-0.05 0.09,-0.75 0,-3.69 -1.73,-6.68 -3.39,-8.32 -0.55,-0.54 -0.55,-0.65 -0.55,-0.79 0,-0.36 0.25,-0.55 0.5,-0.55 0.55,0 4.53,3.83 4.53,9.66 z"
                     id="path7787" /><path
                     style="fill:#000000;stroke-width:0"
                     inkscape:connector-curvature="0"
                     d="m 555.21,425.18 0.01,0.04 0.01,0.03 0.01,0.06 0.02,0.05 0.01,0.06 0.02,0.05 0.01,0.04 0.01,0.05 0.01,0.04 0.01,0.04 0.01,0.04 0.01,0.04 v 0.04 l 0.01,0.03 v 0.03 l 0.01,0.03 v 0.03 l 0.01,0.03 v 0.03 l 0.01,0.05 v 0.06 l 0.01,0.05 v 0.05 0.05 0.03 0.03 0.03 0.03 c 0,0.91 -0.69,1.35 -1.44,1.35 -0.5,0 -1.3,-0.3 -1.75,-1.05 -0.09,-0.25 -0.5,-1.78 -0.69,-2.69 -0.36,-1.29 -0.7,-2.64 -1,-3.98 l -2.25,-8.97 c -0.18,-0.75 -2.32,-4.23 -5.62,-4.23 -2.53,0 -3.1,2.18 -3.1,4.03 0,2.29 0.86,5.39 2.55,9.76 0.8,2.05 1,2.6 1,3.6 0,2.23 -1.59,4.07 -4.09,4.07 -4.74,0 -6.58,-7.21 -6.58,-7.67 0,-0.5 0.5,-0.5 0.61,-0.5 0.5,0 0.55,0.11 0.8,0.91 1.34,4.69 3.32,6.17 5.03,6.17 0.39,0 1.25,0 1.25,-1.59 0,-1.25 -0.5,-2.53 -0.86,-3.49 -1.99,-5.28 -2.89,-8.12 -2.89,-10.47 0,-4.42 3.14,-5.92 6.08,-5.92 1.95,0 3.64,0.85 5.03,2.24 -0.64,-2.58 -1.24,-5.03 -3.24,-7.68 -1.29,-1.68 -3.19,-3.14 -5.48,-3.14 -0.69,0 -2.94,0.16 -3.78,2.1 0.79,0 1.45,0 2.14,0.61 0.5,0.43 1,1.09 1,2.03 0,1.55 -1.35,1.75 -1.85,1.75 -1.14,0 -2.79,-0.8 -2.79,-3.24 0,-2.5 2.2,-4.34 5.28,-4.34 5.14,0 10.26,4.55 11.67,10.17 z"
                     id="path7789" /><path
                     style="fill:#000000;stroke-width:0"
                     inkscape:connector-curvature="0"
                     d="m 567.38,406.25 v 0.3 l -0.02,0.3 -0.01,0.29 -0.03,0.28 -0.03,0.27 -0.04,0.26 -0.04,0.26 -0.05,0.24 -0.06,0.24 -0.07,0.23 -0.07,0.22 -0.07,0.21 -0.09,0.2 -0.09,0.19 -0.09,0.19 -0.1,0.17 -0.11,0.16 -0.11,0.16 -0.12,0.14 -0.12,0.13 -0.13,0.13 -0.13,0.11 -0.14,0.1 -0.15,0.1 -0.15,0.08 -0.15,0.07 -0.16,0.06 -0.16,0.05 -0.17,0.04 -0.17,0.03 -0.18,0.01 -0.18,0.01 c -1.64,0 -2.64,-1.25 -2.64,-2.64 0,-1.34 1,-2.64 2.64,-2.64 0.59,0 1.25,0.2 1.75,0.64 0.14,0.11 0.21,0.16 0.25,0.16 0.05,0 0.09,-0.05 0.09,-0.75 0,-3.69 -1.73,-6.68 -3.38,-8.32 -0.55,-0.54 -0.55,-0.65 -0.55,-0.79 0,-0.36 0.25,-0.55 0.5,-0.55 0.55,0 4.53,3.83 4.53,9.66 z"
                     id="path7791" /><path
                     style="fill:#000000;stroke-width:0"
                     inkscape:connector-curvature="0"
                     d="m 581.58,400.12 -0.04,-0.15 -0.03,-0.15 -0.04,-0.14 -0.03,-0.13 -0.03,-0.13 -0.04,-0.11 -0.03,-0.12 -0.04,-0.1 -0.03,-0.1 -0.04,-0.09 -0.05,-0.09 -0.04,-0.08 -0.05,-0.07 -0.06,-0.07 -0.05,-0.07 -0.07,-0.06 -0.06,-0.05 -0.08,-0.05 -0.08,-0.04 -0.08,-0.04 -0.1,-0.04 -0.1,-0.03 -0.11,-0.03 -0.11,-0.02 -0.13,-0.02 -0.07,-0.01 -0.07,-0.01 -0.07,-0.01 -0.07,-0.01 h -0.08 l -0.08,-0.01 h -0.08 l -0.08,-0.01 h -0.09 -0.09 -0.09 -0.1 l -0.1,-0.01 h -0.1 c -0.59,0 -1.14,0 -1.14,-0.93 0,-0.41 0.25,-0.61 0.64,-0.61 1.36,0 2.8,0.15 4.19,0.15 1.64,0 3.34,-0.15 4.94,-0.15 0.25,0 0.89,0 0.89,1 0,0.54 -0.5,0.54 -1.19,0.54 -2.5,0 -2.5,0.36 -2.5,0.8 0,0.61 2.09,8.72 2.45,9.97 0.64,-1.44 2.03,-3.19 4.58,-3.19 l -0.05,1.1 c -3.29,0 -3.93,4.14 -3.93,4.43 0,0.1 0,0.21 0.14,0.8 l 2.45,9.77 c 0.34,1.34 1.69,2.73 2.58,3.48 1.75,1.55 3.2,1.89 4.04,1.89 1.99,0 3.19,-1.73 3.19,-4.69 0,-2.93 -1.64,-8.65 -2.55,-10.56 -1.68,-3.48 -4.07,-5.12 -5.92,-5.12 l 0.05,-1.1 c 5.78,0 12,7.27 12,14.6 0,4.68 -2.83,7.96 -6.63,7.96 -2.48,0 -4.87,-1.78 -6.51,-3.73 -0.5,2.69 -2.64,3.73 -4.49,3.73 -2.29,0 -3.24,-1.93 -3.68,-2.82 -0.91,-1.71 -1.55,-4.69 -1.55,-4.85 0,-0.5 0.5,-0.5 0.59,-0.5 0.5,0 0.55,0.07 0.85,1.16 0.86,3.53 1.84,5.92 3.64,5.92 0.84,0 1.55,-0.39 1.55,-2.28 0,-1.16 -0.16,-1.7 -0.35,-2.55 z"
                     id="path7793" /><path
                     style="fill:#000000;stroke-width:0"
                     inkscape:connector-curvature="0"
                     d="m 613.11,402.45 -0.03,-0.11 -0.04,-0.12 -0.04,-0.12 -0.05,-0.12 -0.06,-0.12 -0.05,-0.13 -0.07,-0.13 -0.06,-0.12 -0.07,-0.13 -0.08,-0.13 -0.08,-0.13 -0.09,-0.12 -0.08,-0.13 -0.1,-0.12 -0.09,-0.12 -0.11,-0.12 -0.1,-0.12 -0.11,-0.11 -0.12,-0.1 -0.11,-0.1 -0.13,-0.1 -0.12,-0.09 -0.13,-0.08 -0.14,-0.08 -0.13,-0.07 -0.14,-0.06 -0.15,-0.05 -0.15,-0.05 -0.15,-0.04 -0.16,-0.02 -0.16,-0.02 h -0.16 c -0.11,0 -1.16,0 -1.89,0.48 1.44,0.45 1.53,1.72 1.53,1.92 0,0.77 -0.59,1.3 -1.39,1.3 -0.97,0 -1.99,-0.84 -1.99,-2.14 0,-1.74 1.96,-2.53 3.66,-2.53 1.61,0 3.03,1 3.91,2.47 0.82,-1.85 2.75,-2.47 4.14,-2.47 4.01,0 6.14,4.34 6.14,5.33 0,0.45 -0.46,0.45 -0.56,0.45 -0.49,0 -0.52,-0.17 -0.66,-0.59 -0.74,-2.41 -2.83,-4.22 -4.78,-4.22 -1.39,0 -2.13,0.93 -2.13,2.26 0,0.91 0.85,4.08 1.82,7.96 0.7,2.67 2.26,3.54 3.42,3.54 0.06,0 1.14,0 1.87,-0.48 -1.11,-0.31 -1.53,-1.3 -1.53,-1.92 0,-0.77 0.59,-1.29 1.39,-1.29 0.81,0 1.95,0.66 1.95,2.13 0,1.95 -2.23,2.53 -3.62,2.53 -1.73,0 -3.14,-1.14 -3.91,-2.47 -0.62,1.44 -2.22,2.47 -4.17,2.47 -3.9,0 -6.14,-4.28 -6.14,-5.33 0,-0.45 0.5,-0.45 0.59,-0.45 0.46,0 0.49,0.14 0.68,0.59 0.85,2.72 3.06,4.22 4.76,4.22 1.16,0 2.09,-0.62 2.09,-2.29 0,-0.71 -0.42,-2.44 -0.73,-3.63 z"
                     id="path7795" /><path
                     style="fill:#000000;stroke-width:0"
                     inkscape:connector-curvature="0"
                     d="m 639.63,406.25 v 0.3 l -0.02,0.3 -0.01,0.29 -0.03,0.28 -0.03,0.27 -0.04,0.26 -0.04,0.26 -0.05,0.24 -0.06,0.24 -0.07,0.23 -0.07,0.22 -0.07,0.21 -0.09,0.2 -0.09,0.19 -0.09,0.19 -0.1,0.17 -0.11,0.16 -0.11,0.16 -0.12,0.14 -0.12,0.13 -0.13,0.13 -0.13,0.11 -0.14,0.1 -0.15,0.1 -0.15,0.08 -0.15,0.07 -0.16,0.06 -0.16,0.05 -0.17,0.04 -0.17,0.03 -0.18,0.01 -0.18,0.01 c -1.64,0 -2.64,-1.25 -2.64,-2.64 0,-1.34 1,-2.64 2.64,-2.64 0.59,0 1.25,0.2 1.75,0.64 0.14,0.11 0.21,0.16 0.25,0.16 0.05,0 0.09,-0.05 0.09,-0.75 0,-3.69 -1.73,-6.68 -3.38,-8.32 -0.55,-0.54 -0.55,-0.65 -0.55,-0.79 0,-0.36 0.25,-0.55 0.5,-0.55 0.55,0 4.53,3.83 4.53,9.66 z"
                     id="path7797" /><path
                     style="fill:#000000;stroke-width:0"
                     inkscape:connector-curvature="0"
                     d="m 653.83,400.12 -0.03,-0.15 -0.04,-0.15 -0.03,-0.14 -0.04,-0.13 -0.03,-0.13 -0.03,-0.11 -0.04,-0.12 -0.03,-0.1 -0.04,-0.1 -0.04,-0.09 -0.04,-0.09 -0.05,-0.08 -0.05,-0.07 -0.05,-0.07 -0.06,-0.07 -0.06,-0.06 -0.07,-0.05 -0.07,-0.05 -0.08,-0.04 -0.09,-0.04 -0.09,-0.04 -0.1,-0.03 -0.11,-0.03 -0.12,-0.02 -0.13,-0.02 -0.06,-0.01 -0.07,-0.01 -0.07,-0.01 -0.08,-0.01 h -0.07 l -0.08,-0.01 h -0.08 l -0.09,-0.01 h -0.09 -0.09 -0.09 -0.09 l -0.1,-0.01 h -0.1 c -0.6,0 -1.15,0 -1.15,-0.93 0,-0.41 0.25,-0.61 0.65,-0.61 1.35,0 2.79,0.15 4.18,0.15 1.64,0 3.35,-0.15 4.94,-0.15 0.25,0 0.89,0 0.89,1 0,0.54 -0.5,0.54 -1.19,0.54 -2.5,0 -2.5,0.36 -2.5,0.8 0,0.61 2.1,8.72 2.46,9.97 0.64,-1.44 2.03,-3.19 4.57,-3.19 l -0.04,1.1 c -3.3,0 -3.94,4.14 -3.94,4.43 0,0.1 0,0.21 0.14,0.8 l 2.45,9.77 c 0.35,1.34 1.69,2.73 2.58,3.48 1.75,1.55 3.21,1.89 4.05,1.89 1.98,0 3.19,-1.73 3.19,-4.69 0,-2.93 -1.65,-8.65 -2.55,-10.56 -1.69,-3.48 -4.08,-5.12 -5.92,-5.12 l 0.04,-1.1 c 5.78,0 12,7.27 12,14.6 0,4.68 -2.82,7.96 -6.62,7.96 -2.48,0 -4.88,-1.78 -6.52,-3.73 -0.5,2.69 -2.64,3.73 -4.48,3.73 -2.3,0 -3.25,-1.93 -3.69,-2.82 -0.91,-1.71 -1.54,-4.69 -1.54,-4.85 0,-0.5 0.5,-0.5 0.59,-0.5 0.5,0 0.54,0.07 0.84,1.16 0.86,3.53 1.85,5.92 3.64,5.92 0.85,0 1.55,-0.39 1.55,-2.28 0,-1.16 -0.16,-1.7 -0.34,-2.55 z"
                     id="path7799" /><path
                     style="fill:#000000;stroke-width:0"
                     inkscape:connector-curvature="0"
                     d="m 696.05,411.9 0.01,0.02 0.01,0.03 v 0.02 l 0.01,0.02 0.01,0.02 v 0.02 l 0.01,0.04 0.01,0.03 0.01,0.03 0.01,0.04 0.01,0.03 v 0.02 l 0.01,0.03 0.01,0.03 v 0.02 l 0.01,0.02 v 0.02 0.02 l 0.01,0.02 v 0.02 0.02 l 0.01,0.02 v 0.02 0.03 0.03 0.04 0.03 0.02 0.02 l 0.01,0.02 v 0.02 c 0,0.69 -0.57,1.11 -1.16,1.11 -0.38,0 -1.05,-0.17 -1.42,-0.83 -0.11,-0.22 -0.39,-1.33 -0.57,-2.03 l -0.73,-2.89 c -0.2,-0.83 -1.28,-5.22 -1.39,-5.61 -0.03,0 -1.56,-3.03 -4.28,-3.03 -2.38,0 -2.38,2.26 -2.38,2.89 0,1.89 0.8,4.08 1.85,6.76 0.42,1.11 0.59,1.53 0.59,2.13 0,1.67 -1.42,2.95 -3.31,2.95 -3.52,0 -5.08,-4.73 -5.08,-5.33 0,-0.45 0.48,-0.45 0.59,-0.45 0.49,0 0.52,0.17 0.63,0.56 0.87,2.89 2.37,4.25 3.76,4.25 0.6,0 0.86,-0.39 0.86,-1.22 0,-0.79 -0.31,-1.56 -0.48,-2.01 -1.67,-4.25 -2.02,-5.55 -2.02,-7.08 0,-0.59 0,-2.23 1.36,-3.34 1.08,-0.91 2.55,-1.08 3.49,-1.08 1.39,0 2.64,0.51 3.79,1.56 -0.45,-1.92 -0.84,-3.37 -2.29,-5.12 -0.94,-1.08 -2.35,-2.22 -4.19,-2.22 -0.23,0 -1.87,0 -2.61,1.14 1.88,0.2 1.88,1.89 1.88,1.92 0,1.11 -1,1.31 -1.36,1.31 -0.86,0 -2.02,-0.69 -2.02,-2.3 0,-1.76 1.67,-3.06 4.14,-3.06 3.53,0 7.81,2.72 8.89,7.08 z"
                     id="path7801" /><path
                     style="fill:#000000;stroke-width:0"
                     inkscape:connector-curvature="0"
                     d="m 710.79,406.25 v 0.3 l -0.02,0.3 -0.01,0.29 -0.03,0.28 -0.03,0.27 -0.04,0.26 -0.04,0.26 -0.05,0.24 -0.06,0.24 -0.07,0.23 -0.07,0.22 -0.07,0.21 -0.09,0.2 -0.09,0.19 -0.09,0.19 -0.1,0.17 -0.11,0.16 -0.11,0.16 -0.12,0.14 -0.12,0.13 -0.13,0.13 -0.13,0.11 -0.14,0.1 -0.15,0.1 -0.14,0.08 -0.16,0.07 -0.16,0.06 -0.16,0.05 -0.17,0.04 -0.17,0.03 -0.18,0.01 -0.18,0.01 c -1.64,0 -2.64,-1.25 -2.64,-2.64 0,-1.34 1,-2.64 2.64,-2.64 0.6,0 1.25,0.2 1.75,0.64 0.14,0.11 0.2,0.16 0.25,0.16 0.05,0 0.1,-0.05 0.1,-0.75 0,-3.69 -1.74,-6.68 -3.4,-8.32 -0.54,-0.54 -0.54,-0.65 -0.54,-0.79 0,-0.36 0.25,-0.55 0.5,-0.55 0.54,0 4.53,3.83 4.53,9.66 z"
                     id="path7803" /><path
                     style="fill:#000000;stroke-width:0"
                     inkscape:connector-curvature="0"
                     d="m 738.9,435.04 0.08,-0.08 0.09,-0.07 0.09,-0.07 0.08,-0.07 0.09,-0.06 0.09,-0.06 0.1,-0.05 0.09,-0.05 0.09,-0.05 0.1,-0.04 0.09,-0.04 0.1,-0.03 0.1,-0.03 0.09,-0.03 0.1,-0.02 0.1,-0.03 0.1,-0.02 0.1,-0.01 0.2,-0.03 0.19,-0.02 0.2,-0.01 0.2,-0.01 0.19,-0.01 h 0.2 0.19 l 0.04,1.1 c -1.04,0 -1.39,0 -1.95,0.34 v 0 c 0.75,0.36 1.66,0.36 2.3,0.36 1.64,0 1.84,-0.06 2.73,-0.31 -0.39,-0.14 -0.89,-0.39 -3.08,-0.39 l -0.04,-1.1 c 1.23,0 4.42,0 4.42,1.55 0,1.23 -1.99,1.34 -3.99,1.34 -0.54,0 -1.89,0 -3.18,-0.5 -0.25,0.6 -0.35,0.85 -0.35,1.89 0,0.71 0.25,1.75 0.25,1.85 0,0.39 -0.25,0.64 -0.59,0.64 -0.91,0 -0.91,-2.28 -0.91,-2.44 0,-0.84 0.16,-1.73 0.55,-2.48 -5.24,-2.64 -13.1,-11.82 -13.1,-21.49 0,-7.01 4.54,-8.51 8.11,-9.7 1.5,-0.55 1.6,-0.55 3.05,-1.05 1.05,-0.36 3.09,-1.05 3.09,-3.39 0,-1.34 -0.95,-3.3 -2.79,-3.3 -1.3,0 -2.64,0.61 -3.69,1.5 -0.34,0.3 -0.39,0.35 -0.59,0.35 -0.25,0 -0.5,-0.19 -0.5,-0.55 0,-0.48 2.14,-2.39 4.78,-2.39 3.09,0 5.44,3.19 5.44,6.03 0,1.89 -0.96,2.94 -1.35,3.35 -0.86,0.93 -1.8,1.25 -4.73,2.23 -3.99,1.34 -4.8,1.59 -5.99,2.64 -2.09,1.89 -2.09,4.73 -2.09,5.69 0,7.72 6.08,16.44 11.11,19.12 z"
                     id="path7805" /><path
                     style="fill:#000000;stroke-width:0"
                     inkscape:connector-curvature="0"
                     d="m 758.43,406.25 -0.01,0.3 -0.01,0.3 -0.02,0.29 -0.02,0.28 -0.03,0.27 -0.04,0.26 -0.05,0.26 -0.05,0.24 -0.06,0.24 -0.06,0.23 -0.07,0.22 -0.08,0.21 -0.08,0.2 -0.09,0.19 -0.09,0.19 -0.11,0.17 -0.1,0.16 -0.11,0.16 -0.12,0.14 -0.13,0.13 -0.12,0.13 -0.14,0.11 -0.14,0.1 -0.14,0.1 -0.15,0.08 -0.15,0.07 -0.16,0.06 -0.16,0.05 -0.17,0.04 -0.17,0.03 -0.18,0.01 -0.18,0.01 c -1.64,0 -2.64,-1.25 -2.64,-2.64 0,-1.34 1,-2.64 2.64,-2.64 0.59,0 1.25,0.2 1.75,0.64 0.14,0.11 0.2,0.16 0.25,0.16 0.04,0 0.09,-0.05 0.09,-0.75 0,-3.69 -1.73,-6.68 -3.39,-8.32 -0.54,-0.54 -0.54,-0.65 -0.54,-0.79 0,-0.36 0.25,-0.55 0.5,-0.55 0.54,0 4.53,3.83 4.53,9.66 z"
                     id="path7807" /><path
                     style="fill:#000000;stroke-width:0"
                     inkscape:connector-curvature="0"
                     d="m 783.55,427.96 -0.58,-0.15 -0.57,-0.18 -0.56,-0.21 -0.55,-0.24 -0.55,-0.26 -0.53,-0.28 -0.51,-0.31 -0.51,-0.33 -0.49,-0.35 -0.48,-0.38 -0.46,-0.39 -0.45,-0.41 -0.43,-0.42 -0.42,-0.45 -0.4,-0.46 -0.38,-0.47 -0.36,-0.49 -0.35,-0.5 -0.32,-0.51 -0.31,-0.52 -0.28,-0.53 -0.26,-0.53 -0.24,-0.55 -0.22,-0.55 -0.19,-0.56 -0.18,-0.56 -0.14,-0.57 -0.12,-0.56 -0.1,-0.57 -0.07,-0.57 -0.04,-0.57 -0.01,-0.57 c 0,-4.78 3.19,-8.35 7.87,-8.35 v 1.09 c -2.75,0 -4.78,2.09 -4.78,5.87 0,3.14 1.85,12.5 8.57,14.3 v 0 c 1.25,-2.28 2.73,-4.98 2.73,-8.56 0,-3.3 -1.89,-11.61 -6.52,-11.61 v -1.09 c 5.83,0 9.96,7.81 9.96,14.68 0,4.55 -1.99,7.03 -3.69,9.27 -1.78,2.25 -4.72,5.98 -4.72,8.17 0,1.11 0.99,2.3 2.74,2.3 1.5,0 2.48,-0.64 3.53,-1.35 1,-0.59 2,-1.25 2.75,-1.25 1.23,0 1.98,1.21 1.98,2 0,1.1 -0.8,1.24 -2.59,1.64 -2.58,0.55 -3.29,0.55 -4.08,0.55 -3.89,0 -5.69,-2.14 -5.69,-5.12 0,-2.71 1.45,-5.49 3,-8.54 z"
                     id="path7809" /><path
                     style="fill:#000000;stroke-width:0"
                     inkscape:connector-curvature="0"
                     d="m 805.16,400.37 -0.01,-0.19 -0.01,-0.2 -0.02,-0.2 -0.03,-0.21 -0.04,-0.21 -0.05,-0.21 -0.06,-0.22 -0.07,-0.22 -0.09,-0.22 -0.09,-0.22 -0.11,-0.22 -0.12,-0.22 -0.14,-0.21 -0.15,-0.22 -0.16,-0.21 -0.18,-0.21 -0.2,-0.2 -0.21,-0.19 -0.23,-0.19 -0.25,-0.19 -0.26,-0.17 -0.29,-0.17 -0.3,-0.15 -0.32,-0.15 -0.34,-0.14 -0.37,-0.12 -0.38,-0.12 -0.41,-0.1 -0.21,-0.04 -0.22,-0.04 -0.22,-0.04 -0.23,-0.03 -0.23,-0.03 -0.24,-0.03 -0.25,-0.02 -0.25,-0.02 c -0.25,-0.05 -0.44,-0.25 -0.44,-0.55 0,-0.54 0.55,-0.54 0.99,-0.54 4.84,0 9.47,2.43 9.51,6.21 v 11.36 c 0,1.96 0,3.55 2,5.19 1.75,1.45 3.64,1.55 4.74,1.6 0.25,0.04 0.45,0.25 0.45,0.54 0,0.5 -0.31,0.5 -0.79,0.55 -3.3,0.2 -5.69,2 -6.24,4.44 -0.16,0.54 -0.16,0.64 -0.16,2.43 v 9.88 c 0,2.08 0,3.69 -2.39,5.58 -1.98,1.54 -5.42,2.03 -7.12,2.03 -0.44,0 -0.99,0 -0.99,-0.55 0,-0.5 0.3,-0.5 0.8,-0.55 3.13,-0.18 5.58,-1.79 6.22,-4.32 0.16,-0.46 0.16,-0.55 0.16,-2.35 v -10.47 c 0,-2.28 0.39,-3.12 1.98,-4.73 1.05,-1.03 2.5,-1.53 3.89,-1.94 -4.08,-1.14 -5.87,-3.44 -5.87,-6.33 z"
                     id="path7811" /></g>              </g>
            </g>
            <text
               id="text7891"
               y="153.95917"
               x="142.16122"
               style="font-style:normal;font-weight:normal;font-size:7.66535616px;line-height:1.5;font-family:sans-serif;letter-spacing:0px;word-spacing:0px;fill:#0f0f0f;fill-opacity:1;stroke:none;stroke-width:0.19163391"
               xml:space="preserve"><tspan
                 style="font-style:normal;font-variant:normal;font-weight:normal;font-stretch:normal;font-size:8.46666622px;line-height:1.5;font-family:Arial;-inkscape-font-specification:Arial;fill:#0f0f0f;fill-opacity:1;stroke-width:0.19163391"
                 y="153.95917"
                 x="142.16122"
                 sodipodi:role="line"
                 id="tspan7885"><tspan
   id="tspan7883"
   style="font-style:normal;font-variant:normal;font-weight:normal;font-stretch:normal;font-size:8.46666622px;font-family:Arial;-inkscape-font-specification:Arial;fill:#800000">•</tspan> Beam-Elements</tspan><tspan
                 id="tspan7953"
                 style="font-style:normal;font-variant:normal;font-weight:normal;font-stretch:normal;line-height:1.5;font-family:Arial;-inkscape-font-specification:Arial;fill:#0f0f0f;fill-opacity:1;stroke-width:0.19163391"
                 y="165.71466"
                 x="142.16122"
                 sodipodi:role="line"><tspan
                   id="tspan7969"
                   style="font-style:normal;font-variant:normal;font-weight:normal;font-stretch:normal;font-size:5.64444447px;font-family:Arial;-inkscape-font-specification:Arial;fill:#003380;fill-opacity:1">   <tspan
   id="tspan2980"
   style="font-size:7.05555534px">‣ </tspan></tspan><tspan
                   id="tspan8051"
                   style="font-style:normal;font-variant:normal;font-weight:normal;font-stretch:normal;font-size:7.05555534px;font-family:Arial;-inkscape-font-specification:Arial">Drift, DriftExact, </tspan></tspan><tspan
                 id="tspan7955"
                 style="font-style:normal;font-variant:normal;font-weight:normal;font-stretch:normal;font-size:7.05555534px;line-height:1.5;font-family:Arial;-inkscape-font-specification:Arial;fill:#0f0f0f;fill-opacity:1;stroke-width:0.19163391"
                 y="177.21269"
                 x="142.16122"
                 sodipodi:role="line">   <tspan
   id="tspan7971"
   style="font-style:normal;font-variant:normal;font-weight:normal;font-stretch:normal;font-size:7.05555534px;font-family:Arial;-inkscape-font-specification:Arial;fill:#003380;fill-opacity:1">‣</tspan> Multipole, DipoleEdge</tspan><tspan
                 id="tspan7957"
                 style="font-style:normal;font-variant:normal;font-weight:normal;font-stretch:normal;font-size:7.05555534px;line-height:1.5;font-family:Arial;-inkscape-font-specification:Arial;fill:#0f0f0f;fill-opacity:1;stroke-width:0.19163391"
                 y="188.71072"
                 x="142.16122"
                 sodipodi:role="line">   <tspan
   id="tspan7973"
   style="font-style:normal;font-variant:normal;font-weight:normal;font-stretch:normal;font-size:7.05555534px;font-family:Arial;-inkscape-font-specification:Arial;fill:#003380;fill-opacity:1">‣</tspan> Cavity, RFMultipole,</tspan><tspan
                 id="tspan7959"
                 style="font-style:normal;font-variant:normal;font-weight:normal;font-stretch:normal;font-size:7.05555534px;line-height:1.5;font-family:Arial;-inkscape-font-specification:Arial;fill:#0f0f0f;fill-opacity:1;stroke-width:0.19163391"
                 y="200.20876"
                 x="142.16122"
                 sodipodi:role="line">   <tspan
   id="tspan7975"
   style="font-style:normal;font-variant:normal;font-weight:normal;font-stretch:normal;font-size:7.05555534px;font-family:Arial;-inkscape-font-specification:Arial;fill:#003380;fill-opacity:1">‣</tspan> Limit (Rect, Ellipse, Rect+Ellipse)</tspan><tspan
                 id="tspan7965"
                 style="font-style:normal;font-variant:normal;font-weight:normal;font-stretch:normal;font-size:7.05555534px;line-height:1.5;font-family:Arial;-inkscape-font-specification:Arial;fill:#0f0f0f;fill-opacity:1;stroke-width:0.19163391"
                 y="211.7068"
                 x="142.16122"
                 sodipodi:role="line">   <tspan
   id="tspan7977"
   style="font-style:normal;font-variant:normal;font-weight:normal;font-stretch:normal;font-size:7.05555534px;font-family:Arial;-inkscape-font-specification:Arial;fill:#003380;fill-opacity:1">‣</tspan> XYShift, SRotation,</tspan><tspan
                 id="tspan7961"
                 style="font-style:normal;font-variant:normal;font-weight:normal;font-stretch:normal;font-size:7.05555534px;line-height:1.5;font-family:Arial;-inkscape-font-specification:Arial;fill:#0f0f0f;fill-opacity:1;stroke-width:0.19163391"
                 y="223.20483"
                 x="142.16122"
                 sodipodi:role="line">   <tspan
   id="tspan7979"
   style="font-style:normal;font-variant:normal;font-weight:normal;font-stretch:normal;font-size:7.05555534px;font-family:Arial;-inkscape-font-specification:Arial;fill:#003380;fill-opacity:1">‣</tspan> Beam-Fields: Coasting &amp; Bunched </tspan><tspan
                 id="tspan1313"
                 style="font-style:normal;font-variant:normal;font-weight:normal;font-stretch:normal;font-size:7.05555534px;line-height:1.5;font-family:Arial;-inkscape-font-specification:Arial;fill:#0f0f0f;fill-opacity:1;stroke-width:0.19163391"
                 y="234.70287"
                 x="142.16122"
                 sodipodi:role="line">     Frozen Space-Charge, 6D/4D BeamBeam,..</tspan><tspan
                 id="tspan7963"
                 style="font-style:normal;font-variant:normal;font-weight:normal;font-stretch:normal;line-height:1.5;font-family:Arial;-inkscape-font-specification:Arial;fill:#0f0f0f;fill-opacity:1;stroke-width:0.19163391"
                 y="246.2009"
                 x="142.16122"
                 sodipodi:role="line" /><tspan
                 id="tspan7951"
                 style="font-style:normal;font-variant:normal;font-weight:normal;font-stretch:normal;line-height:1.5;font-family:Arial;-inkscape-font-specification:Arial;fill:#0f0f0f;fill-opacity:1;stroke-width:0.19163391"
                 y="257.69894"
                 x="142.16122"
                 sodipodi:role="line" /><tspan
                 style="font-style:normal;font-variant:normal;font-weight:normal;font-stretch:normal;line-height:1.5;font-family:Arial;-inkscape-font-specification:Arial;fill:#0f0f0f;fill-opacity:1;stroke-width:0.19163391"
                 y="269.19696"
                 x="142.16122"
                 sodipodi:role="line"
                 id="tspan7887" /><tspan
                 id="tspan7889"
                 style="font-style:normal;font-variant:normal;font-weight:normal;font-stretch:normal;line-height:1.5;font-family:Arial;-inkscape-font-specification:Arial;fill:#0f0f0f;fill-opacity:1;stroke-width:0.19163391"
                 y="280.69501"
                 x="142.16122"
                 sodipodi:role="line" /></text>
            <text
               id="text7991"
               y="185.35564"
               x="18.865404"
               style="font-style:normal;font-weight:normal;font-size:7.66535616px;line-height:1.5;font-family:sans-serif;letter-spacing:0px;word-spacing:0px;fill:#003380;fill-opacity:1;stroke:none;stroke-width:0.19163391"
               xml:space="preserve"><tspan
                 style="font-style:normal;font-variant:normal;font-weight:normal;font-stretch:normal;font-size:8.46666622px;line-height:1.5;font-family:Arial;-inkscape-font-specification:Arial;fill:#003380;fill-opacity:1;stroke-width:0.19163391"
                 y="185.35564"
                 x="18.865404"
                 sodipodi:role="line"
                 id="tspan1152">Common Implementation </tspan><tspan
                 style="font-style:normal;font-variant:normal;font-weight:normal;font-stretch:normal;font-size:8.46666622px;line-height:1.5;font-family:Arial;-inkscape-font-specification:Arial;fill:#003380;fill-opacity:1;stroke-width:0.19163391"
                 y="198.05563"
                 x="18.865404"
                 sodipodi:role="line"
                 id="tspan1136">(C99, header-only) for </tspan><tspan
                 style="font-style:normal;font-variant:normal;font-weight:normal;font-stretch:normal;font-size:8.46666622px;line-height:1.5;font-family:Arial;-inkscape-font-specification:Arial;fill:#003380;fill-opacity:1;stroke-width:0.19163391"
                 y="210.75563"
                 x="18.865404"
                 sodipodi:role="line"
                 id="tspan1138">physics models accross all </tspan><tspan
                 id="tspan1317"
                 style="font-style:normal;font-variant:normal;font-weight:normal;font-stretch:normal;font-size:8.46666622px;line-height:1.5;font-family:Arial;-inkscape-font-specification:Arial;fill:#003380;fill-opacity:1;stroke-width:0.19163391"
                 y="223.45563"
                 x="18.865404"
                 sodipodi:role="line">architectures, languages, ...</tspan><tspan
                 style="font-style:normal;font-variant:normal;font-weight:normal;font-stretch:normal;font-size:8.46666622px;line-height:1.5;font-family:Arial;-inkscape-font-specification:Arial;fill:#003380;fill-opacity:1;stroke-width:0.19163391"
                 y="235.21112"
                 x="18.865404"
                 sodipodi:role="line"
                 id="tspan7987" /><tspan
                 id="tspan7989"
                 style="font-style:normal;font-variant:normal;font-weight:normal;font-stretch:normal;font-size:8.46666622px;line-height:1.5;font-family:Arial;-inkscape-font-specification:Arial;fill:#003380;fill-opacity:1;stroke-width:0.19163391"
                 y="246.70917"
                 x="18.865404"
                 sodipodi:role="line" /></text>
          </g>
        </g>
        <text
           id="text299"
           y="120.79241"
           x="8.8112078"
           style="font-style:normal;font-weight:normal;font-size:7.66535616px;line-height:1.5;font-family:sans-serif;letter-spacing:0px;word-spacing:0px;fill:#000000;fill-opacity:1;stroke:none;stroke-width:0.19163391"
           xml:space="preserve"><tspan
             style="font-style:normal;font-variant:normal;font-weight:normal;font-stretch:normal;font-size:8.46666622px;line-height:1.5;font-family:Arial;-inkscape-font-specification:Arial;fill:#800000;fill-opacity:1;stroke-width:0.19163391"
             y="120.79241"
             x="8.8112078"
             sodipodi:role="line"
             id="tspan297">• <tspan
   id="tspan1170"
   style="font-style:normal;font-variant:normal;font-weight:normal;font-stretch:normal;font-size:8.46666622px;font-family:Arial;-inkscape-font-specification:Arial;fill:#0f0f0f;fill-opacity:1">SixTrackLib: https://github.com/SixTrack/sixtracklib</tspan></tspan><tspan
             id="tspan1180"
             style="font-style:normal;font-variant:normal;font-weight:normal;font-stretch:normal;line-height:1.5;font-family:Hack;-inkscape-font-specification:Hack;fill:#800000;fill-opacity:1;stroke-width:0.19163391"
             y="132.5479"
             x="8.8112078"
             sodipodi:role="line" /><tspan
             id="tspan1178"
             style="font-style:normal;font-variant:normal;font-weight:normal;font-stretch:normal;line-height:1.5;font-family:Hack;-inkscape-font-specification:Hack;fill:#800000;fill-opacity:1;stroke-width:0.19163391"
             y="144.04594"
             x="8.8112078"
             sodipodi:role="line" /></text>
        <g
           id="g3052"
           transform="translate(0,0.75369536)">
          <text
             id="text1265"
             y="244.60545"
             x="8.8112078"
             style="font-style:normal;font-weight:normal;font-size:7.66535616px;line-height:1.5;font-family:sans-serif;letter-spacing:0px;word-spacing:0px;fill:#000000;fill-opacity:1;stroke:none;stroke-width:0.19163391"
             xml:space="preserve"><tspan
               style="font-style:normal;font-variant:normal;font-weight:normal;font-stretch:normal;font-size:8.46666622px;line-height:1.5;font-family:Arial;-inkscape-font-specification:Arial;fill:#800000;fill-opacity:1;stroke-width:0.19163391"
               y="244.60545"
               x="8.8112078"
               sodipodi:role="line"
               id="tspan1259">• <tspan
   id="tspan1267"
   style="font-style:normal;font-variant:normal;font-weight:normal;font-stretch:normal;font-size:8.46666622px;font-family:Arial;-inkscape-font-specification:Arial;fill:#0f0f0f;fill-opacity:1">Related Python-Centric Projects</tspan></tspan><tspan
               id="tspan1269"
               style="font-style:normal;font-variant:normal;font-weight:normal;font-stretch:normal;line-height:1;font-family:Arial;-inkscape-font-specification:Arial;fill:#800000;fill-opacity:1;stroke-width:0.19163391"
               y="256.36093"
               x="8.8112078"
               sodipodi:role="line">  <tspan
   id="tspan931"
   style="font-style:normal;font-variant:normal;font-weight:normal;font-stretch:normal;font-size:7.76111126px;line-height:1;font-family:Arial;-inkscape-font-specification:Arial;fill:#003380;fill-opacity:1">‣</tspan><tspan
   id="tspan2984"
   style="font-size:7.05555534px"> </tspan><tspan
   id="tspan1273"
   style="font-style:normal;font-variant:normal;font-weight:normal;font-stretch:normal;font-size:7.05555534px;line-height:1;font-family:Arial;-inkscape-font-specification:Arial;fill:#0f0f0f;fill-opacity:1">cobjects:        </tspan></tspan><tspan
               id="tspan1271"
               style="font-style:normal;font-variant:normal;font-weight:normal;font-stretch:normal;font-size:7.05555534px;line-height:1;font-family:Arial;-inkscape-font-specification:Arial;fill:#800000;fill-opacity:1;stroke-width:0.19163391"
               y="267.85898"
               x="8.8112078"
               sodipodi:role="line">  <tspan
   id="tspan933"
   style="font-style:normal;font-variant:normal;font-weight:normal;font-stretch:normal;font-size:7.76111126px;line-height:1;font-family:Arial;-inkscape-font-specification:Arial;fill:#003380;fill-opacity:1">‣</tspan> <tspan
   id="tspan1275"
   style="font-style:normal;font-variant:normal;font-weight:normal;font-stretch:normal;font-size:7.05555534px;line-height:1;font-family:Arial;-inkscape-font-specification:Arial;fill:#0f0f0f;fill-opacity:1">pysixtrack:     </tspan></tspan><tspan
               id="tspan935"
               style="font-style:normal;font-variant:normal;font-weight:normal;font-stretch:normal;font-size:7.05555534px;line-height:1;font-family:Arial;-inkscape-font-specification:Arial;fill:#800000;fill-opacity:1;stroke-width:0.19163391"
               y="279.35703"
               x="8.8112078"
               sodipodi:role="line"> <tspan
   id="tspan2988"
   style="font-size:7.76111126px"> </tspan><tspan
   id="tspan996"
   style="font-style:normal;font-variant:normal;font-weight:normal;font-stretch:normal;font-size:7.76111126px;font-family:Arial;-inkscape-font-specification:Arial;fill:#003380;fill-opacity:1">‣</tspan> <tspan
   id="tspan939"
   style="font-style:normal;font-variant:normal;font-weight:normal;font-stretch:normal;font-size:7.05555534px;line-height:1;font-family:Arial;-inkscape-font-specification:Arial;fill:#0f0f0f;fill-opacity:1">sixtracktools:  </tspan></tspan><tspan
               id="tspan1261"
               style="font-style:normal;font-variant:normal;font-weight:normal;font-stretch:normal;line-height:1.5;font-family:Arial;-inkscape-font-specification:Arial;fill:#800000;fill-opacity:1;stroke-width:0.19163391"
               y="290.85504"
               x="8.8112078"
               sodipodi:role="line" /><tspan
               id="tspan1263"
               style="font-style:normal;font-variant:normal;font-weight:normal;font-stretch:normal;line-height:1.5;font-family:Arial;-inkscape-font-specification:Arial;fill:#800000;fill-opacity:1;stroke-width:0.19163391"
               y="302.35309"
               x="8.8112078"
               sodipodi:role="line" /></text>
          <text
             xml:space="preserve"
             style="font-style:normal;font-weight:normal;font-size:7.66535616px;line-height:1.5;font-family:sans-serif;letter-spacing:0px;word-spacing:0px;fill:#000000;fill-opacity:1;stroke:none;stroke-width:0.19163391"
             x="67.019554"
             y="237.21725"
             id="text3022"><tspan
               id="tspan2994"
               sodipodi:role="line"
               x="67.019554"
               y="244.95747"
               style="font-style:normal;font-variant:normal;font-weight:normal;font-stretch:normal;font-size:8.46666622px;line-height:1.5;font-family:Arial;-inkscape-font-specification:Arial;fill:#800000;fill-opacity:1;stroke-width:0.19163391" /><tspan
               sodipodi:role="line"
               x="67.019554"
               y="256.45551"
               style="font-style:normal;font-variant:normal;font-weight:normal;font-stretch:normal;line-height:1;font-family:Arial;-inkscape-font-specification:Arial;fill:#800000;fill-opacity:1;stroke-width:0.19163391"
               id="tspan3002"><tspan
                 style="font-style:normal;font-variant:normal;font-weight:normal;font-stretch:normal;font-size:7.05555534px;line-height:1;font-family:Arial;-inkscape-font-specification:Arial;fill:#0f0f0f;fill-opacity:1"
                 id="tspan3000">https://github.com/SixTrack/cobjects</tspan></tspan><tspan
               sodipodi:role="line"
               x="67.019554"
               y="267.95352"
               style="font-style:normal;font-variant:normal;font-weight:normal;font-stretch:normal;font-size:7.05555534px;line-height:1;font-family:Arial;-inkscape-font-specification:Arial;fill:#800000;fill-opacity:1;stroke-width:0.19163391"
               id="tspan3008"><tspan
                 style="font-style:normal;font-variant:normal;font-weight:normal;font-stretch:normal;font-size:7.05555534px;line-height:1;font-family:Arial;-inkscape-font-specification:Arial;fill:#0f0f0f;fill-opacity:1"
                 id="tspan3006">https://github.com/SixTrack/pysixtrack</tspan></tspan><tspan
               sodipodi:role="line"
               x="67.019554"
               y="279.45157"
               style="font-style:normal;font-variant:normal;font-weight:normal;font-stretch:normal;font-size:7.05555534px;line-height:1;font-family:Arial;-inkscape-font-specification:Arial;fill:#800000;fill-opacity:1;stroke-width:0.19163391"
               id="tspan3016"><tspan
                 style="font-style:normal;font-variant:normal;font-weight:normal;font-stretch:normal;font-size:7.05555534px;line-height:1;font-family:Arial;-inkscape-font-specification:Arial;fill:#0f0f0f;fill-opacity:1"
                 id="tspan3014">https://github.com/SixTrack/sixtracktools</tspan></tspan><tspan
               sodipodi:role="line"
               x="67.019554"
               y="290.94962"
               style="font-style:normal;font-variant:normal;font-weight:normal;font-stretch:normal;line-height:1.5;font-family:Arial;-inkscape-font-specification:Arial;fill:#800000;fill-opacity:1;stroke-width:0.19163391"
               id="tspan3018" /><tspan
               sodipodi:role="line"
               x="67.019554"
               y="302.44763"
               style="font-style:normal;font-variant:normal;font-weight:normal;font-stretch:normal;line-height:1.5;font-family:Arial;-inkscape-font-specification:Arial;fill:#800000;fill-opacity:1;stroke-width:0.19163391"
               id="tspan3020" /></text>
        </g>
        <rect
           style="fill:none;fill-opacity:1;stroke:none;stroke-width:0.43429565;stroke-miterlimit:4;stroke-dasharray:0.43429563, 0.43429563;stroke-dashoffset:0;stroke-opacity:1"
           id="rect3054"
           width="297.47101"
           height="210.66183"
           x="0"
           y="87.08651" />
      </g>
    </g>
  </g>
</svg>
