<?xml version="1.0" encoding="UTF-8" standalone="no"?>
<!-- Created with Inkscape (http://www.inkscape.org/) -->

<svg
   xmlns:dc="http://purl.org/dc/elements/1.1/"
   xmlns:cc="http://creativecommons.org/ns#"
   xmlns:rdf="http://www.w3.org/1999/02/22-rdf-syntax-ns#"
   xmlns:svg="http://www.w3.org/2000/svg"
   xmlns="http://www.w3.org/2000/svg"
   xmlns:sodipodi="http://sodipodi.sourceforge.net/DTD/sodipodi-0.dtd"
   xmlns:inkscape="http://www.inkscape.org/namespaces/inkscape"
   width="297mm"
   height="210mm"
   viewBox="0 0 297 210"
   version="1.1"
   id="svg8"
   sodipodi:docname="sixtracklib_overview.svg"
   inkscape:version="0.92.3 (2405546, 2018-03-11)">
  <sodipodi:namedview
     id="base"
     pagecolor="#ffffff"
     bordercolor="#666666"
     borderopacity="1.0"
     inkscape:pageopacity="0.0"
     inkscape:pageshadow="2"
     inkscape:zoom="0.49497475"
     inkscape:cx="173.71557"
     inkscape:cy="566.08157"
     inkscape:document-units="mm"
     inkscape:current-layer="layer1"
     showgrid="false"
     inkscape:window-width="1920"
     inkscape:window-height="1141"
     inkscape:window-x="0"
     inkscape:window-y="0"
     inkscape:window-maximized="1"
     showguides="true"
     inkscape:guide-bbox="true">
    <sodipodi:guide
       position="10.958051,82.987186"
       orientation="1,0"
       id="guide7522"
       inkscape:locked="false" />
    <sodipodi:guide
       position="18.441598,97.820645"
       orientation="1,0"
       id="guide7524"
       inkscape:locked="false" />
  </sodipodi:namedview>
  <defs
     id="defs2" />
  <metadata
     id="metadata5">
    <rdf:RDF>
      <cc:Work
         rdf:about="">
        <dc:format>image/svg+xml</dc:format>
        <dc:type
           rdf:resource="http://purl.org/dc/dcmitype/StillImage" />
        <dc:title />
      </cc:Work>
    </rdf:RDF>
  </metadata>
  <g
     transform="translate(0,-87)"
     id="layer1"
     inkscape:groupmode="layer"
     inkscape:label="Ebene 1">
    <rect
       transform="matrix(1,0,0.93253678,0.36107501,0,0)"
       y="296.99469"
       x="-273.45447"
       height="5.337039"
       width="286.61618"
       id="rect10"
       style="fill:#003380;fill-opacity:1;stroke:#000080;stroke-width:0.29982483;stroke-opacity:1" />
    <flowRoot
       style="fill:black;fill-opacity:1;stroke:none;font-family:sans-serif;font-style:normal;font-weight:normal;font-size:40px;line-height:1.25;letter-spacing:0px;word-spacing:0px"
       id="flowRoot12"
       xml:space="preserve"><flowRegion
         id="flowRegion14"><rect
           y="23.771109"
           x="32.054188"
           height="742.78687"
           width="530.80298"
           id="rect16" /></flowRegion><flowPara
         id="flowPara18" /></flowRoot>    <text
       id="text22"
       y="240.63283"
       x="7.0665832"
       style="font-style:normal;font-weight:normal;font-size:8.07644844px;line-height:1.75;font-family:sans-serif;letter-spacing:0px;word-spacing:0px;fill:#000000;fill-opacity:1;stroke:none;stroke-width:0.2019112"
       xml:space="preserve"><tspan
         style="font-style:normal;font-variant:normal;font-weight:normal;font-stretch:normal;line-height:1.75;font-family:Hack;-inkscape-font-specification:Hack;fill:#0f0f0f;fill-opacity:1;stroke-width:0.2019112"
         y="240.63283"
         x="7.0665832"
         sodipodi:role="line"
         id="tspan5724"><tspan
   style="fill:#800000;stroke-width:0.2019112"
   id="tspan5729">⦿<tspan
   style="font-size:4.93888903px"
   id="tspan7526"> </tspan></tspan>SixTrackLib is a symplectic, </tspan><tspan
         style="font-style:normal;font-variant:normal;font-weight:normal;font-stretch:normal;line-height:1.75;font-family:Hack;-inkscape-font-specification:Hack;fill:#0f0f0f;fill-opacity:1;stroke-width:0.2019112"
         y="254.76662"
         x="7.0665832"
         sodipodi:role="line"
         id="tspan7612">  <tspan
   style="font-size:2.11666656px"
   id="tspan7614"> </tspan>single-particle,</tspan><tspan
         style="font-style:normal;font-variant:normal;font-weight:normal;font-stretch:normal;line-height:1.75;font-family:Hack;-inkscape-font-specification:Hack;fill:#0f0f0f;fill-opacity:1;stroke-width:0.2019112"
         y="268.90039"
         x="7.0665832"
         sodipodi:role="line"
         id="tspan7534">  <tspan
   style="font-size:2.11666656px"
   id="tspan7536"> </tspan>parallel tracking library</tspan><tspan
         style="font-style:normal;font-variant:normal;font-weight:normal;font-stretch:normal;line-height:1.75;font-family:Hack;-inkscape-font-specification:Hack;fill:#0f0f0f;fill-opacity:1;stroke-width:0.2019112"
         y="283.03418"
         x="7.0665832"
         sodipodi:role="line"
         id="tspan5674" /></text>
    <g
       id="g7687"
       transform="translate(0,-3.5556921)">
      <g
         transform="matrix(0.91478166,0,0,0.91478166,26.864216,126.95589)"
         id="g5924">
        <g
           id="g5057"
           transform="matrix(0.88869482,0,0,0.88869482,-44.264915,47.864026)"
           style="fill:#3f3f3f;fill-opacity:1">
          <path
             id="path4992"
             d="m 251.70843,106.0289 h 0.73222 c 0.17068,0 0.25603,0 0.25603,-0.17068 0,-0.0939 -0.0853,-0.0939 -0.23043,-0.0939 h -0.70662 l 0.17922,-0.97118 c 0.0341,-0.17751 0.15361,-0.78002 0.20482,-0.88243 0.0768,-0.16215 0.22188,-0.29016 0.39939,-0.29016 0.0324,0 0.25432,0 0.41647,0.15532 -0.3738,0.0307 -0.45914,0.32942 -0.45914,0.45743 0,0.19458 0.15361,0.29698 0.31576,0.29698 0.22189,0 0.46596,-0.18775 0.46596,-0.51033 0,-0.39087 -0.39086,-0.58544 -0.73905,-0.58544 -0.29016,0 -0.8261,0.1519 -1.07871,0.99337 -0.0512,0.17921 -0.0785,0.26455 -0.27992,1.33644 h -0.58714 c -0.16215,0 -0.25603,0 -0.25603,0.16044 0,0.10411 0.0768,0.10411 0.23725,0.10411 h 0.56325 l -0.64006,3.35732 c -0.1519,0.82439 -0.29698,1.601 -0.73905,1.601 -0.0358,0 -0.24578,0 -0.40793,-0.15532 0.39086,-0.0239 0.46596,-0.33113 0.46596,-0.45914 0,-0.19457 -0.15191,-0.29869 -0.31405,-0.29869 -0.22189,0 -0.46767,0.18775 -0.46767,0.51205 0,0.38232 0.37379,0.58714 0.72369,0.58714 0.46596,0 0.80733,-0.5018 0.95923,-0.8261 0.27309,-0.53594 0.46938,-1.56345 0.47791,-1.62489 z"
             inkscape:connector-curvature="0"
             style="font-style:normal;font-variant:normal;font-weight:normal;font-stretch:normal;letter-spacing:normal;word-spacing:normal;text-anchor:start;fill:#3f3f3f;fill-opacity:1;fill-rule:evenodd;stroke:#000000;stroke-width:0;stroke-linecap:butt;stroke-linejoin:miter;stroke-miterlimit:10.43299961;stroke-dasharray:none;stroke-dashoffset:0;stroke-opacity:1" />
          <path
             id="path4994"
             d="m 253.47499,110.32497 -0.002,0.007 -0.003,0.009 -0.002,0.007 -0.002,0.009 -0.003,0.009 -0.002,0.0102 -0.003,0.009 -0.002,0.009 -0.005,0.0188 -0.005,0.0188 -0.005,0.0205 -0.003,0.0171 -0.003,0.0102 -0.002,0.009 -0.002,0.009 -0.002,0.009 -0.002,0.009 -0.002,0.007 -0.002,0.009 -0.002,0.007 -0.002,0.005 v 0.007 l -0.002,0.005 v 0.005 l -0.002,0.003 v 0.003 0.002 0.002 0.002 0 c 0,0.13143 0.10583,0.18946 0.20141,0.18946 0.10753,0 0.2014,-0.0768 0.23383,-0.12972 0.029,-0.0546 0.0768,-0.24408 0.10583,-0.36867 0.029,-0.11265 0.0939,-0.38745 0.12971,-0.53595 0.0359,-0.13142 0.0734,-0.26114 0.10241,-0.39769 0.0632,-0.24578 0.0768,-0.29015 0.24749,-0.53594 0.16898,-0.23725 0.4489,-0.54618 0.89438,-0.54618 0.34307,0 0.34819,0.30381 0.34819,0.41646 0,0.35673 -0.25261,1.01556 -0.34819,1.26647 -0.0666,0.16726 -0.0922,0.22018 -0.0922,0.32259 0,0.31405 0.26456,0.50863 0.56666,0.50863 0.59398,0 0.85512,-0.81757 0.85512,-0.90974 0,-0.0768 -0.0768,-0.0768 -0.0922,-0.0768 -0.0853,0 -0.0922,0.0341 -0.11436,0.1007 -0.13654,0.4762 -0.39256,0.72028 -0.62981,0.72028 -0.12631,0 -0.1502,-0.0819 -0.1502,-0.20824 0,-0.13483 0.029,-0.21335 0.13654,-0.48132 0.0717,-0.18434 0.31747,-0.81415 0.31747,-1.14698 0,-0.57862 -0.45913,-0.67761 -0.77319,-0.67761 -0.49327,0 -0.82781,0.3004 -1.00532,0.53935 -0.0427,-0.40963 -0.39256,-0.53935 -0.63835,-0.53935 -0.25602,0 -0.39257,0.18434 -0.46937,0.31917 -0.12972,0.22018 -0.21335,0.56155 -0.21335,0.59056 0,0.0768 0.0836,0.0768 0.1024,0.0768 0.0819,0 0.0871,-0.0188 0.12972,-0.17921 0.0888,-0.35161 0.20311,-0.64177 0.43524,-0.64177 0.15532,0 0.19458,0.12972 0.19458,0.29016 0,0.11436 -0.0529,0.33283 -0.0956,0.49327 -0.041,0.16215 -0.099,0.40622 -0.13143,0.53594 z"
             inkscape:connector-curvature="0"
             style="font-style:normal;font-variant:normal;font-weight:normal;font-stretch:normal;letter-spacing:normal;word-spacing:normal;text-anchor:start;fill:#3f3f3f;fill-opacity:1;fill-rule:evenodd;stroke:#000000;stroke-width:0;stroke-linecap:butt;stroke-linejoin:miter;stroke-miterlimit:10.43299961;stroke-dasharray:none;stroke-dashoffset:0;stroke-opacity:1" />
        </g>
        <text
           xml:space="preserve"
           style="font-style:normal;font-weight:normal;font-size:9.40535355px;line-height:1.25;font-family:sans-serif;text-align:end;letter-spacing:0px;word-spacing:0px;text-anchor:end;fill:#000000;fill-opacity:1;stroke:none;stroke-width:0.23513383"
           x="279.61472"
           y="145.54164"
           id="text5061"><tspan
             sodipodi:role="line"
             id="tspan5059"
             x="279.61472"
             y="145.54164"
             style="font-style:normal;font-variant:normal;font-weight:normal;font-stretch:normal;font-size:5.01618862px;font-family:Hack;-inkscape-font-specification:Hack;text-align:end;text-anchor:end;fill:#3f3f3f;fill-opacity:1;stroke-width:0.23513383">........... (thin) tracking map</tspan></text>
      </g>
      <g
         transform="matrix(0.91478166,0,0,0.91478166,27.158644,130.16879)"
         id="g5917">
        <g
           id="g5069"
           transform="matrix(0.88869482,0,0,0.88869482,0.79598243,34.131111)"
           style="fill:#3f3f3f;fill-opacity:1">
          <path
             id="path4998"
             d="m 198.99037,108.34999 -0.005,0.0256 -0.007,0.0256 -0.005,0.0239 -0.007,0.0222 -0.005,0.0222 -0.005,0.0188 -0.007,0.0205 -0.005,0.0171 -0.007,0.0171 -0.007,0.0154 -0.007,0.0154 -0.009,0.0137 -0.009,0.0119 -0.009,0.0119 -0.0103,0.0119 -0.0102,0.0102 -0.0119,0.009 -0.012,0.009 -0.0137,0.007 -0.0154,0.007 -0.0154,0.007 -0.0171,0.005 -0.0188,0.005 -0.0205,0.003 -0.0222,0.003 -0.0102,0.002 -0.0119,0.002 -0.012,0.002 -0.0136,0.002 h -0.012 l -0.0137,0.002 h -0.0136 l -0.0154,0.002 h -0.0154 -0.0154 -0.0154 -0.0154 l -0.0171,0.002 h -0.0171 c -0.10241,0 -0.19629,0 -0.19629,0.15873 0,0.07 0.0427,0.10412 0.11094,0.10412 0.23043,0 0.47621,-0.0256 0.71346,-0.0256 0.27991,0 0.57178,0.0256 0.84317,0.0256 0.0427,0 0.1519,0 0.1519,-0.17069 0,-0.0922 -0.0853,-0.0922 -0.20311,-0.0922 -0.4267,0 -0.4267,-0.0615 -0.4267,-0.13655 0,-0.10412 0.35843,-1.48835 0.41987,-1.7017 0.10924,0.24578 0.34649,0.54448 0.78002,0.54448 l -0.007,-0.18775 c -0.56325,0 -0.67248,-0.70663 -0.67248,-0.75613 0,-0.0171 0,-0.0358 0.0239,-0.13654 l 0.41817,-1.66757 c 0.0597,-0.22871 0.28846,-0.46596 0.44036,-0.59397 0.2987,-0.26456 0.54789,-0.32259 0.69127,-0.32259 0.33795,0 0.54447,0.29528 0.54447,0.8005 0,0.5001 -0.28162,1.4764 -0.43524,1.8024 -0.28845,0.59398 -0.69638,0.8739 -1.01044,0.8739 l 0.007,0.18775 c 0.98654,0 2.04819,-1.24086 2.04819,-2.49196 0,-0.79879 -0.48133,-1.35863 -1.12992,-1.35863 -0.42329,0 -0.83293,0.30381 -1.11285,0.63664 -0.0853,-0.45913 -0.4506,-0.63664 -0.76465,-0.63664 -0.39257,0 -0.55472,0.32941 -0.62982,0.48132 -0.15532,0.29187 -0.26285,0.8005 -0.26285,0.82781 0,0.0853 0.0853,0.0853 0.1007,0.0853 0.0853,0 0.0922,-0.0119 0.14338,-0.19799 0.14678,-0.60251 0.31576,-1.01044 0.62128,-1.01044 0.14508,0 0.26456,0.0666 0.26456,0.38916 0,0.19799 -0.0273,0.29016 -0.058,0.43524 z"
             inkscape:connector-curvature="0"
             style="font-style:normal;font-variant:normal;font-weight:normal;font-stretch:normal;letter-spacing:normal;word-spacing:normal;text-anchor:start;fill:#3f3f3f;fill-opacity:1;fill-rule:evenodd;stroke:#000000;stroke-width:0;stroke-linecap:butt;stroke-linejoin:miter;stroke-miterlimit:10.43299961;stroke-dasharray:none;stroke-dashoffset:0;stroke-opacity:1" />
          <path
             id="path5000"
             d="m 204.81917,104.86466 v -0.009 l -0.002,-0.0102 v -0.009 l -0.002,-0.0102 -0.002,-0.009 -0.003,-0.0102 -0.003,-0.009 -0.002,-0.0102 -0.005,-0.0102 -0.003,-0.009 -0.005,-0.0102 -0.005,-0.009 -0.005,-0.0102 -0.007,-0.009 -0.007,-0.009 -0.007,-0.009 -0.007,-0.009 -0.009,-0.009 -0.009,-0.007 -0.009,-0.009 -0.0102,-0.007 -0.0102,-0.005 -0.0102,-0.007 -0.0102,-0.005 -0.0119,-0.005 -0.0119,-0.005 -0.0137,-0.003 -0.0137,-0.003 -0.0137,-0.002 -0.0137,-0.002 -0.0154,-0.002 h -0.0154 c -0.16045,0 -0.33283,0.15532 -0.33283,0.32771 0,0.1007 0.0768,0.22701 0.23895,0.22701 0.17068,0 0.33454,-0.16898 0.33454,-0.32771 z"
             inkscape:connector-curvature="0"
             style="font-style:normal;font-variant:normal;font-weight:normal;font-stretch:normal;letter-spacing:normal;word-spacing:normal;text-anchor:start;fill:#3f3f3f;fill-opacity:1;fill-rule:evenodd;stroke:#000000;stroke-width:0;stroke-linecap:butt;stroke-linejoin:miter;stroke-miterlimit:10.43299961;stroke-dasharray:none;stroke-dashoffset:0;stroke-opacity:1" />
          <path
             id="path5002"
             d="m 203.60562,107.88573 -0.0102,0.029 -0.009,0.029 -0.005,0.0137 -0.003,0.0154 -0.005,0.0137 -0.003,0.0154 -0.003,0.0154 -0.003,0.0154 -0.003,0.0171 -0.003,0.0154 -0.002,0.0171 v 0.009 l -0.002,0.009 v 0.0102 0.009 0.009 l -0.002,0.0103 c 0,0.27991 0.23895,0.50351 0.56325,0.50351 0.59568,0 0.85853,-0.81757 0.85853,-0.90974 0,-0.0768 -0.0768,-0.0768 -0.0956,-0.0768 -0.0819,0 -0.0905,0.0341 -0.11436,0.1007 -0.13654,0.4762 -0.39769,0.72028 -0.62981,0.72028 -0.11948,0 -0.1485,-0.0768 -0.1485,-0.20824 0,-0.13483 0.0427,-0.24919 0.0956,-0.38062 0.058,-0.16044 0.1246,-0.31917 0.18946,-0.47449 0.0529,-0.14338 0.26968,-0.68615 0.29357,-0.75783 0.0154,-0.058 0.0341,-0.12972 0.0341,-0.18946 0,-0.27992 -0.23725,-0.50351 -0.56496,-0.50351 -0.59056,0 -0.86194,0.80733 -0.86194,0.90973 0,0.0768 0.0819,0.0768 0.1007,0.0768 0.0836,0 0.0888,-0.029 0.10753,-0.0956 0.15532,-0.51205 0.41647,-0.7254 0.63494,-0.7254 0.0956,0 0.14849,0.0478 0.14849,0.20823 0,0.13484 -0.0341,0.2253 -0.18434,0.59398 z"
             inkscape:connector-curvature="0"
             style="font-style:normal;font-variant:normal;font-weight:normal;font-stretch:normal;letter-spacing:normal;word-spacing:normal;text-anchor:start;fill:#3f3f3f;fill-opacity:1;fill-rule:evenodd;stroke:#000000;stroke-width:0;stroke-linecap:butt;stroke-linejoin:miter;stroke-miterlimit:10.43299961;stroke-dasharray:none;stroke-dashoffset:0;stroke-opacity:1" />
          <path
             id="path5004"
             d="m 209.94304,109.35189 v -0.003 -0.005 -0.002 -0.003 -0.002 l -0.002,-0.003 v -0.002 l -0.002,-0.003 -0.002,-0.003 -0.002,-0.003 -0.002,-0.003 -0.003,-0.005 -0.002,-0.003 -0.003,-0.005 -0.003,-0.005 -0.005,-0.005 -0.003,-0.005 -0.005,-0.007 -0.003,-0.003 -0.002,-0.003 -0.003,-0.003 -0.003,-0.003 -0.003,-0.003 -0.003,-0.005 -0.003,-0.003 -0.003,-0.003 -0.003,-0.005 -0.005,-0.003 -0.003,-0.005 -0.005,-0.005 -0.005,-0.005 -0.003,-0.005 -0.005,-0.005 -0.005,-0.005 -0.005,-0.005 -0.005,-0.005 -0.007,-0.007 -0.005,-0.005 -0.007,-0.007 -0.005,-0.005 -0.007,-0.007 -0.007,-0.007 c -1.06164,-1.07189 -1.33303,-2.678 -1.33303,-3.9786 0,-1.47981 0.32259,-2.96134 1.36717,-4.02127 0.10923,-0.10412 0.10923,-0.12119 0.10923,-0.14679 0,-0.0597 -0.0307,-0.0836 -0.0819,-0.0836 -0.0853,0 -0.85171,0.5769 -1.35181,1.65561 -0.43523,0.93705 -0.53594,1.88092 -0.53594,2.59608 0,0.66395 0.0922,1.68975 0.55984,2.6524 0.50863,1.04628 1.24257,1.59758 1.32791,1.59758 0.0512,0 0.0819,-0.0239 0.0819,-0.0853 z"
             inkscape:connector-curvature="0"
             style="font-style:normal;font-variant:normal;font-weight:normal;font-stretch:normal;letter-spacing:normal;word-spacing:normal;text-anchor:start;fill:#3f3f3f;fill-opacity:1;fill-rule:evenodd;stroke:#000000;stroke-width:0;stroke-linecap:butt;stroke-linejoin:miter;stroke-miterlimit:10.43299961;stroke-dasharray:none;stroke-dashoffset:0;stroke-opacity:1" />
          <path
             id="path5006"
             d="m 211.19756,106.81044 -0.003,0.0119 -0.002,0.0137 -0.003,0.0119 -0.003,0.0136 -0.005,0.0273 -0.007,0.0273 -0.007,0.0273 -0.005,0.0273 -0.007,0.0273 -0.007,0.0273 -0.002,0.0136 -0.003,0.0119 -0.003,0.0119 -0.002,0.0119 -0.003,0.0119 -0.002,0.0119 -0.002,0.0102 -0.003,0.0102 -0.002,0.0102 -0.002,0.009 v 0.009 l -0.002,0.007 -0.002,0.007 v 0.007 0.005 0.003 c 0,0.1519 0.11948,0.23042 0.24408,0.23042 0.10411,0 0.25602,-0.0666 0.31576,-0.23725 0.0102,-0.0188 0.11094,-0.41647 0.16215,-0.62982 l 0.18604,-0.76465 c 0.0512,-0.18776 0.10241,-0.3738 0.14508,-0.57179 0.0341,-0.14337 0.10412,-0.38915 0.11094,-0.42329 0.12801,-0.26456 0.57862,-1.03775 1.38423,-1.03775 0.38404,0 0.46085,0.31406 0.46085,0.59398 0,0.52911 -0.41817,1.61635 -0.55472,1.98161 -0.0734,0.19458 -0.0819,0.2987 -0.0819,0.39257 0,0.39769 0.29528,0.69639 0.69638,0.69639 0.8005,0 1.11456,-1.24086 1.11456,-1.30914 0,-0.0853 -0.0768,-0.0853 -0.10412,-0.0853 -0.0819,0 -0.0819,0.0256 -0.12459,0.15362 -0.17069,0.5769 -0.45061,1.05311 -0.87048,1.05311 -0.14338,0 -0.20312,-0.0854 -0.20312,-0.27992 0,-0.21336 0.0785,-0.41817 0.15362,-0.60422 0.16215,-0.4506 0.51887,-1.38423 0.51887,-1.87067 0,-0.57008 -0.36526,-0.90803 -0.97801,-0.90803 -0.76636,0 -1.18112,0.54277 -1.3262,0.73734 -0.0427,-0.4762 -0.39086,-0.73734 -0.78343,-0.73734 -0.38915,0 -0.5513,0.32941 -0.63664,0.48132 -0.13655,0.29187 -0.25602,0.79197 -0.25602,0.82781 0,0.0853 0.0853,0.0853 0.1024,0.0853 0.0854,0 0.0939,-0.0119 0.14508,-0.19799 0.14338,-0.60251 0.31406,-1.01044 0.62129,-1.01044 0.16727,0 0.26285,0.10924 0.26285,0.38916 0,0.17921 -0.0256,0.27479 -0.13484,0.71515 z"
             inkscape:connector-curvature="0"
             style="font-style:normal;font-variant:normal;font-weight:normal;font-stretch:normal;letter-spacing:normal;word-spacing:normal;text-anchor:start;fill:#3f3f3f;fill-opacity:1;fill-rule:evenodd;stroke:#000000;stroke-width:0;stroke-linecap:butt;stroke-linejoin:miter;stroke-miterlimit:10.43299961;stroke-dasharray:none;stroke-dashoffset:0;stroke-opacity:1" />
          <path
             id="path5008"
             d="m 218.00436,105.18725 v -0.0631 l -0.002,-0.0666 -0.002,-0.0666 -0.002,-0.07 -0.007,-0.14337 -0.0102,-0.1502 -0.0136,-0.15703 -0.0188,-0.16214 -0.0222,-0.16557 -0.029,-0.17238 -0.0324,-0.1741 -0.0393,-0.1758 -0.0461,-0.17922 -0.0529,-0.18092 -0.0597,-0.18263 -0.0666,-0.18263 -0.0358,-0.0905 -0.0393,-0.0905 -0.0393,-0.0905 -0.0427,-0.0905 c -0.51034,-1.04457 -1.24086,-1.59758 -1.3262,-1.59758 -0.0512,0 -0.0853,0.0324 -0.0853,0.0836 0,0.0256 0,0.0427 0.16044,0.19629 0.83464,0.83975 1.31938,2.19326 1.31938,3.97177 0,1.4525 -0.31406,2.94939 -1.37058,4.02127 -0.10924,0.1007 -0.10924,0.11948 -0.10924,0.14337 0,0.0512 0.0341,0.0853 0.0853,0.0853 0.0853,0 0.84829,-0.57861 1.3518,-1.65732 0.43183,-0.93363 0.53424,-1.8775 0.53424,-2.59266 z"
             inkscape:connector-curvature="0"
             style="font-style:normal;font-variant:normal;font-weight:normal;font-stretch:normal;letter-spacing:normal;word-spacing:normal;text-anchor:start;fill:#3f3f3f;fill-opacity:1;fill-rule:evenodd;stroke:#000000;stroke-width:0;stroke-linecap:butt;stroke-linejoin:miter;stroke-miterlimit:10.43299961;stroke-dasharray:none;stroke-dashoffset:0;stroke-opacity:1" />
        </g>
        <text
           id="text5073"
           y="130.86818"
           x="279.75433"
           style="font-style:normal;font-weight:normal;font-size:9.40535355px;line-height:1.25;font-family:sans-serif;letter-spacing:0px;word-spacing:0px;fill:#000000;fill-opacity:1;stroke:none;stroke-width:0.23513383"
           xml:space="preserve"><tspan
             style="font-style:normal;font-variant:normal;font-weight:normal;font-stretch:normal;font-size:5.01618862px;font-family:Hack;-inkscape-font-specification:Hack;text-align:end;text-anchor:end;fill:#3f3f3f;fill-opacity:1;stroke-width:0.23513383"
             y="130.86818"
             x="279.75433"
             id="tspan5071"
             sodipodi:role="line">..... particle state @ pos n</tspan></text>
      </g>
      <g
         transform="translate(88.054523,-121.1967)"
         id="g7610">
        <g
           style="font-style:normal;font-variant:normal;font-weight:normal;font-stretch:normal;letter-spacing:normal;word-spacing:normal;text-anchor:start;fill:#3f3f3f;fill-opacity:1;fill-rule:evenodd;stroke:#000000;stroke-linecap:butt;stroke-linejoin:miter;stroke-miterlimit:10.43299961;stroke-dasharray:none;stroke-dashoffset:0;stroke-opacity:1"
           id="content"
           transform="matrix(0.13875802,0,0,-0.13875802,37.359785,448.75819)"
           xml:space="preserve"
           stroke-miterlimit="10.433"
           font-style="normal"
           font-variant="normal"
           font-weight="normal"
           font-stretch="normal"
           font-size-adjust="none"
           letter-spacing="normal"
           word-spacing="normal"><path
             style="fill:#3f3f3f;fill-opacity:1;stroke-width:0"
             inkscape:connector-curvature="0"
             d="m 457.75,400.12 -0.03,-0.15 -0.04,-0.15 -0.03,-0.14 -0.03,-0.13 -0.04,-0.13 -0.03,-0.11 -0.04,-0.12 -0.03,-0.1 -0.04,-0.1 -0.04,-0.09 -0.04,-0.09 -0.05,-0.08 -0.05,-0.07 -0.05,-0.07 -0.06,-0.07 -0.06,-0.06 -0.07,-0.05 -0.07,-0.05 -0.08,-0.04 -0.09,-0.04 -0.09,-0.04 -0.1,-0.03 -0.11,-0.03 -0.12,-0.02 -0.13,-0.02 -0.06,-0.01 -0.07,-0.01 -0.07,-0.01 -0.08,-0.01 h -0.07 l -0.08,-0.01 h -0.08 l -0.09,-0.01 h -0.08 -0.09 -0.1 -0.09 l -0.1,-0.01 h -0.1 c -0.6,0 -1.14,0 -1.14,-0.93 0,-0.41 0.25,-0.61 0.64,-0.61 1.36,0 2.79,0.15 4.18,0.15 1.64,0 3.35,-0.15 4.94,-0.15 0.25,0 0.89,0 0.89,1 0,0.54 -0.5,0.54 -1.19,0.54 -2.5,0 -2.5,0.36 -2.5,0.8 0,0.61 2.1,8.72 2.46,9.97 0.64,-1.44 2.03,-3.19 4.58,-3.19 l -0.05,1.1 c -3.3,0 -3.94,4.14 -3.94,4.43 0,0.1 0,0.21 0.14,0.8 l 2.46,9.77 c 0.34,1.34 1.68,2.73 2.57,3.48 1.75,1.55 3.21,1.89 4.05,1.89 1.98,0 3.19,-1.73 3.19,-4.69 0,-2.93 -1.64,-8.65 -2.55,-10.56 -1.69,-3.48 -4.08,-5.12 -5.92,-5.12 l 0.05,-1.1 c 5.78,0 12,7.27 12,14.6 0,4.68 -2.83,7.96 -6.63,7.96 -2.48,0 -4.87,-1.78 -6.51,-3.73 -0.5,2.69 -2.65,3.73 -4.49,3.73 -2.3,0 -3.25,-1.93 -3.69,-2.82 -0.9,-1.71 -1.54,-4.69 -1.54,-4.85 0,-0.5 0.5,-0.5 0.59,-0.5 0.5,0 0.55,0.07 0.84,1.16 0.86,3.53 1.85,5.92 3.64,5.92 0.85,0 1.55,-0.39 1.55,-2.28 0,-1.16 -0.15,-1.7 -0.34,-2.55 z"
             id="path4876" /><path
             style="fill:#3f3f3f;fill-opacity:1;stroke-width:0"
             inkscape:connector-curvature="0"
             d="m 491.9,420.54 v 0.05 l -0.01,0.06 v 0.05 l -0.01,0.06 -0.01,0.05 -0.02,0.06 -0.01,0.05 -0.02,0.06 -0.03,0.06 -0.02,0.05 -0.03,0.06 -0.03,0.05 -0.03,0.06 -0.04,0.05 -0.03,0.05 -0.05,0.05 -0.04,0.05 -0.05,0.05 -0.05,0.04 -0.05,0.05 -0.06,0.04 -0.06,0.03 -0.06,0.04 -0.06,0.03 -0.07,0.03 -0.07,0.03 -0.08,0.02 -0.07,0.02 -0.09,0.01 -0.08,0.01 -0.09,0.01 h -0.09 c -0.94,0 -1.95,-0.91 -1.95,-1.92 0,-0.59 0.45,-1.33 1.41,-1.33 1,0 1.95,0.99 1.95,1.92 z"
             id="path4878" /><path
             style="fill:#3f3f3f;fill-opacity:1;stroke-width:0"
             inkscape:connector-curvature="0"
             d="m 484.79,402.84 -0.05,-0.17 -0.06,-0.17 -0.03,-0.08 -0.02,-0.09 -0.03,-0.08 -0.02,-0.09 -0.02,-0.09 -0.02,-0.09 -0.02,-0.1 -0.01,-0.09 -0.02,-0.1 v -0.05 l -0.01,-0.05 v -0.06 -0.05 -0.05 -0.06 c 0,-1.64 1.39,-2.95 3.29,-2.95 3.49,0 5.03,4.79 5.03,5.33 0,0.45 -0.45,0.45 -0.56,0.45 -0.48,0 -0.53,-0.2 -0.67,-0.59 -0.8,-2.79 -2.33,-4.22 -3.69,-4.22 -0.7,0 -0.87,0.45 -0.87,1.22 0,0.79 0.25,1.46 0.56,2.23 0.34,0.94 0.73,1.87 1.11,2.78 0.31,0.84 1.58,4.02 1.72,4.44 0.09,0.34 0.2,0.76 0.2,1.11 0,1.64 -1.39,2.95 -3.31,2.95 -3.45,0 -5.05,-4.73 -5.05,-5.33 0,-0.45 0.49,-0.45 0.6,-0.45 0.48,0 0.51,0.17 0.62,0.56 0.91,3 2.44,4.25 3.72,4.25 0.56,0 0.87,-0.28 0.87,-1.22 0,-0.79 -0.2,-1.32 -1.07,-3.48 z"
             id="path4880" /><path
             style="fill:#3f3f3f;fill-opacity:1;stroke-width:0"
             inkscape:connector-curvature="0"
             d="m 522.04,394.25 v 0.02 0.03 0.01 0.02 l -0.01,0.01 v 0.02 l -0.01,0.01 v 0.02 l -0.01,0.02 -0.01,0.02 -0.01,0.02 -0.02,0.03 -0.01,0.02 -0.02,0.03 -0.02,0.03 -0.03,0.03 -0.02,0.03 -0.03,0.04 -0.02,0.02 -0.02,0.02 -0.01,0.02 -0.02,0.02 -0.02,0.02 -0.02,0.03 -0.02,0.02 -0.02,0.02 -0.03,0.03 -0.02,0.02 -0.02,0.03 -0.03,0.03 -0.03,0.03 -0.02,0.03 -0.03,0.03 -0.03,0.03 -0.03,0.03 -0.04,0.03 -0.03,0.04 -0.03,0.03 -0.04,0.04 -0.03,0.03 -0.04,0.04 -0.04,0.04 c -6.22,6.28 -7.81,15.69 -7.81,23.31 0,8.67 1.89,17.35 8.01,23.56 0.64,0.61 0.64,0.71 0.64,0.86 0,0.35 -0.19,0.49 -0.48,0.49 -0.5,0 -4.99,-3.38 -7.92,-9.7 -2.55,-5.49 -3.14,-11.02 -3.14,-15.21 0,-3.89 0.54,-9.9 3.28,-15.54 2.98,-6.13 7.28,-9.36 7.78,-9.36 0.29,0 0.48,0.14 0.48,0.5 z"
             id="path4882" /><path
             style="fill:#3f3f3f;fill-opacity:1;stroke-width:0"
             inkscape:connector-curvature="0"
             d="m 529.27,409.14 -0.02,-0.07 -0.01,-0.08 -0.02,-0.07 -0.02,-0.08 -0.03,-0.16 -0.04,-0.16 -0.04,-0.16 -0.04,-0.16 -0.03,-0.16 -0.04,-0.16 -0.02,-0.08 -0.01,-0.07 -0.02,-0.07 -0.02,-0.07 -0.01,-0.07 -0.01,-0.07 -0.02,-0.06 -0.01,-0.06 -0.01,-0.06 -0.01,-0.05 -0.01,-0.05 v -0.04 l -0.01,-0.04 v -0.04 l -0.01,-0.03 V 407 c 0,-0.89 0.71,-1.35 1.44,-1.35 0.61,0 1.5,0.39 1.84,1.39 0.07,0.11 0.66,2.44 0.96,3.69 l 1.09,4.48 c 0.3,1.1 0.59,2.19 0.84,3.35 0.21,0.84 0.61,2.28 0.66,2.48 0.75,1.55 3.39,6.08 8.11,6.08 2.25,0 2.7,-1.84 2.7,-3.48 0,-3.1 -2.45,-9.47 -3.25,-11.61 -0.43,-1.14 -0.48,-1.75 -0.48,-2.3 0,-2.33 1.73,-4.08 4.08,-4.08 4.68,0 6.53,7.27 6.53,7.67 0,0.5 -0.45,0.5 -0.61,0.5 -0.49,0 -0.49,-0.15 -0.74,-0.9 -1,-3.38 -2.64,-6.17 -5.09,-6.17 -0.84,0 -1.19,0.5 -1.19,1.64 0,1.25 0.46,2.45 0.89,3.54 0.96,2.64 3.05,8.11 3.05,10.96 0,3.34 -2.14,5.32 -5.73,5.32 -4.49,0 -6.93,-3.18 -7.77,-4.32 -0.25,2.79 -2.3,4.32 -4.59,4.32 -2.28,0 -3.24,-1.93 -3.74,-2.82 -0.79,-1.71 -1.5,-4.64 -1.5,-4.85 0,-0.5 0.5,-0.5 0.61,-0.5 0.5,0 0.55,0.07 0.85,1.16 0.84,3.53 1.84,5.92 3.64,5.92 0.98,0 1.54,-0.64 1.54,-2.28 0,-1.05 -0.15,-1.61 -0.79,-4.19 z"
             id="path4884" /><path
             style="fill:#3f3f3f;fill-opacity:1;stroke-width:0"
             inkscape:connector-curvature="0"
             d="m 586.17,417.65 h 13.91 c 0.69,0 1.64,0 1.64,1 0,1 -0.95,1 -1.64,1 h -13.91 v 13.96 c 0,0.68 0,1.64 -1,1.64 -0.98,0 -0.98,-0.96 -0.98,-1.64 v -13.96 h -13.96 c -0.7,0 -1.64,0 -1.64,-1 0,-1 0.94,-1 1.64,-1 h 13.96 v -13.94 c 0,-0.7 0,-1.65 0.98,-1.65 1,0 1,0.95 1,1.65 z"
             id="path4886" /><path
             style="fill:#3f3f3f;fill-opacity:1;stroke-width:0"
             inkscape:connector-curvature="0"
             d="m 630.35,438.09 v 0.05 0.06 0.05 0.05 0.05 0.05 0.04 0.05 0.04 0.04 0.04 0.04 0.04 l -0.01,0.03 v 0.04 0.03 l -0.01,0.07 -0.01,0.06 -0.01,0.05 -0.02,0.05 -0.01,0.05 -0.02,0.04 -0.02,0.04 -0.03,0.03 -0.03,0.03 -0.03,0.03 -0.03,0.03 -0.04,0.02 -0.05,0.02 -0.02,0.01 -0.03,0.01 h -0.02 l -0.03,0.01 -0.03,0.01 h -0.03 l -0.03,0.01 h -0.03 l -0.03,0.01 h -0.04 -0.03 l -0.04,0.01 h -0.04 -0.04 -0.04 -0.04 -0.05 l -0.04,0.01 h -0.05 -0.05 -0.05 -0.05 c -3.1,-3.19 -7.47,-3.19 -9.07,-3.19 v -1.55 c 1,0 3.94,0 6.52,1.3 v -25.81 c 0,-1.8 -0.14,-2.39 -4.63,-2.39 h -1.59 v -1.55 c 1.75,0.16 6.08,0.16 8.06,0.16 2,0 6.33,0 8.08,-0.16 v 1.55 H 635 c -4.49,0 -4.65,0.54 -4.65,2.39 z"
             id="path4888" /><path
             style="fill:#3f3f3f;fill-opacity:1;stroke-width:0"
             inkscape:connector-curvature="0"
             d="m 655.06,418.65 v 0.37 0.39 l -0.01,0.39 -0.02,0.41 -0.04,0.84 -0.06,0.88 -0.08,0.92 -0.1,0.95 -0.14,0.97 -0.16,1.01 -0.2,1.02 -0.23,1.03 -0.27,1.05 -0.3,1.06 -0.35,1.07 -0.39,1.07 -0.22,0.53 -0.22,0.53 -0.24,0.53 -0.25,0.53 c -2.98,6.12 -7.26,9.36 -7.76,9.36 -0.3,0 -0.5,-0.19 -0.5,-0.49 0,-0.15 0,-0.25 0.93,-1.15 4.89,-4.92 7.74,-12.85 7.74,-23.27 0,-8.51 -1.85,-17.28 -8.03,-23.56 -0.64,-0.59 -0.64,-0.7 -0.64,-0.84 0,-0.3 0.2,-0.5 0.5,-0.5 0.5,0 4.96,3.39 7.92,9.71 2.53,5.47 3.12,11 3.12,15.19 z"
             id="path4890" /><path
             style="fill:#3f3f3f;fill-opacity:1;stroke-width:0"
             inkscape:connector-curvature="0"
             d="m 719.02,417.65 h 0.17 0.17 l 0.16,0.01 h 0.08 l 0.08,0.01 h 0.08 l 0.08,0.01 0.07,0.01 0.08,0.01 0.07,0.02 0.07,0.02 0.06,0.02 0.07,0.02 0.06,0.02 0.06,0.03 0.05,0.03 0.06,0.04 0.05,0.03 0.04,0.05 0.04,0.04 0.04,0.05 0.04,0.06 0.01,0.03 0.02,0.03 0.01,0.03 0.01,0.03 0.02,0.04 0.01,0.03 0.01,0.04 v 0.04 l 0.01,0.04 0.01,0.04 v 0.04 0.04 l 0.01,0.05 v 0.04 c 0,1 -0.89,1 -1.8,1 H 682 c 2.74,2.1 4.1,4.14 4.49,4.78 2.25,3.44 2.64,6.58 2.64,6.63 0,0.59 -0.6,0.59 -1,0.59 -0.85,0 -0.89,-0.09 -1.1,-0.98 -1.13,-4.89 -4.07,-9.03 -9.71,-11.36 -0.55,-0.2 -0.74,-0.31 -0.74,-0.66 0,-0.34 0.25,-0.45 0.74,-0.64 5.18,-2.14 8.53,-6.03 9.76,-11.61 0.16,-0.61 0.2,-0.75 1.05,-0.75 0.4,0 1,0 1,0.6 0,0.11 -0.45,3.23 -2.55,6.57 -0.98,1.5 -2.43,3.24 -4.58,4.83 z"
             id="path4892" /><path
             style="fill:#3f3f3f;fill-opacity:1;stroke-width:0"
             inkscape:connector-curvature="0"
             d="m 755.66,426.12 h 4.29 c 1,0 1.5,0 1.5,1 0,0.55 -0.5,0.55 -1.35,0.55 h -4.14 l 1.05,5.69 c 0.2,1.04 0.9,4.57 1.2,5.17 0.45,0.95 1.3,1.7 2.34,1.7 0.19,0 1.49,0 2.44,-0.91 -2.19,-0.18 -2.69,-1.93 -2.69,-2.68 0,-1.14 0.9,-1.74 1.85,-1.74 1.3,0 2.73,1.1 2.73,2.99 0,2.29 -2.29,3.43 -4.33,3.43 -1.7,0 -4.84,-0.89 -6.32,-5.82 -0.3,-1.05 -0.46,-1.55 -1.64,-7.83 h -3.44 c -0.95,0 -1.5,0 -1.5,-0.94 0,-0.61 0.45,-0.61 1.39,-0.61 h 3.3 l -3.75,-19.67 c -0.89,-4.83 -1.74,-9.38 -4.33,-9.38 -0.21,0 -1.44,0 -2.39,0.91 2.29,0.14 2.73,1.94 2.73,2.69 0,1.14 -0.89,1.75 -1.84,1.75 -1.3,0 -2.74,-1.1 -2.74,-3 0,-2.24 2.19,-3.44 4.24,-3.44 2.73,0 4.73,2.94 5.62,4.84 1.6,3.14 2.75,9.16 2.8,9.52 z"
             id="path4894" /><path
             style="fill:#3f3f3f;fill-opacity:1;stroke-width:0"
             inkscape:connector-curvature="0"
             d="m 766.01,400.95 -0.01,-0.04 -0.02,-0.05 -0.01,-0.04 -0.01,-0.05 -0.02,-0.05 -0.01,-0.06 -0.02,-0.05 -0.01,-0.05 -0.03,-0.11 -0.03,-0.11 -0.03,-0.12 -0.02,-0.1 -0.02,-0.06 -0.01,-0.05 -0.01,-0.05 -0.01,-0.05 -0.01,-0.05 -0.01,-0.04 -0.01,-0.05 -0.01,-0.04 -0.01,-0.03 v -0.04 l -0.01,-0.03 v -0.03 l -0.01,-0.02 v -0.02 -0.01 -0.01 -0.01 0 c 0,-0.77 0.62,-1.11 1.18,-1.11 0.63,0 1.18,0.45 1.37,0.76 0.17,0.32 0.45,1.43 0.62,2.16 0.17,0.66 0.55,2.27 0.76,3.14 0.21,0.77 0.43,1.53 0.6,2.33 0.37,1.44 0.45,1.7 1.45,3.14 0.99,1.39 2.63,3.2 5.24,3.2 2.01,0 2.04,-1.78 2.04,-2.44 0,-2.09 -1.48,-5.95 -2.04,-7.42 -0.39,-0.98 -0.54,-1.29 -0.54,-1.89 0,-1.84 1.55,-2.98 3.32,-2.98 3.48,0 5.01,4.79 5.01,5.33 0,0.45 -0.45,0.45 -0.54,0.45 -0.5,0 -0.54,-0.2 -0.67,-0.59 -0.8,-2.79 -2.3,-4.22 -3.69,-4.22 -0.74,0 -0.88,0.48 -0.88,1.22 0,0.79 0.17,1.25 0.8,2.82 0.42,1.08 1.86,4.77 1.86,6.72 0,3.39 -2.69,3.97 -4.53,3.97 -2.89,0 -4.85,-1.76 -5.89,-3.16 -0.25,2.4 -2.3,3.16 -3.74,3.16 -1.5,0 -2.3,-1.08 -2.75,-1.87 -0.76,-1.29 -1.25,-3.29 -1.25,-3.46 0,-0.45 0.49,-0.45 0.6,-0.45 0.48,0 0.51,0.11 0.76,1.05 0.52,2.06 1.19,3.76 2.55,3.76 0.91,0 1.14,-0.76 1.14,-1.7 0,-0.67 -0.31,-1.95 -0.56,-2.89 -0.24,-0.95 -0.58,-2.38 -0.77,-3.14 z"
             id="path4896" /><path
             style="fill:#3f3f3f;fill-opacity:1;stroke-width:0"
             inkscape:connector-curvature="0"
             d="m 813.77,394.25 v 0.02 l -0.01,0.03 v 0.01 0.02 0.01 l -0.01,0.02 v 0.01 l -0.01,0.02 -0.01,0.02 -0.01,0.02 -0.01,0.02 -0.01,0.03 -0.02,0.02 -0.02,0.03 -0.02,0.03 -0.02,0.03 -0.03,0.03 -0.03,0.04 -0.02,0.02 -0.01,0.02 -0.02,0.02 -0.02,0.02 -0.02,0.02 -0.02,0.03 -0.02,0.02 -0.02,0.02 -0.02,0.03 -0.03,0.02 -0.02,0.03 -0.03,0.03 -0.02,0.03 -0.03,0.03 -0.03,0.03 -0.03,0.03 -0.03,0.03 -0.03,0.03 -0.04,0.04 -0.03,0.03 -0.03,0.04 -0.04,0.03 -0.04,0.04 -0.04,0.04 c -6.22,6.28 -7.81,15.69 -7.81,23.31 0,8.67 1.89,17.35 8.01,23.56 0.65,0.61 0.65,0.71 0.65,0.86 0,0.35 -0.19,0.49 -0.49,0.49 -0.5,0 -4.98,-3.38 -7.92,-9.7 -2.55,-5.49 -3.14,-11.02 -3.14,-15.21 0,-3.89 0.55,-9.9 3.28,-15.54 2.98,-6.13 7.28,-9.36 7.78,-9.36 0.3,0 0.49,0.14 0.49,0.5 z"
             id="path4898" /><path
             style="fill:#3f3f3f;fill-opacity:1;stroke-width:0"
             inkscape:connector-curvature="0"
             d="m 818.83,400.12 -0.03,-0.15 -0.04,-0.15 -0.03,-0.14 -0.04,-0.13 -0.03,-0.13 -0.03,-0.11 -0.04,-0.12 -0.03,-0.1 -0.04,-0.1 -0.04,-0.09 -0.04,-0.09 -0.05,-0.08 -0.05,-0.07 -0.05,-0.07 -0.06,-0.07 -0.06,-0.06 -0.07,-0.05 -0.07,-0.05 -0.08,-0.04 -0.09,-0.04 -0.09,-0.04 -0.1,-0.03 -0.11,-0.03 -0.12,-0.02 -0.13,-0.02 -0.06,-0.01 -0.07,-0.01 -0.07,-0.01 -0.08,-0.01 h -0.07 l -0.08,-0.01 h -0.08 l -0.09,-0.01 h -0.09 -0.09 -0.09 -0.09 l -0.1,-0.01 h -0.1 c -0.6,0 -1.15,0 -1.15,-0.93 0,-0.41 0.25,-0.61 0.65,-0.61 1.35,0 2.79,0.15 4.18,0.15 1.64,0 3.35,-0.15 4.94,-0.15 0.25,0 0.89,0 0.89,1 0,0.54 -0.5,0.54 -1.19,0.54 -2.5,0 -2.5,0.36 -2.5,0.8 0,0.61 2.1,8.72 2.46,9.97 0.64,-1.44 2.03,-3.19 4.57,-3.19 l -0.04,1.1 c -3.3,0 -3.94,4.14 -3.94,4.43 0,0.1 0,0.21 0.14,0.8 l 2.45,9.77 c 0.35,1.34 1.69,2.73 2.58,3.48 1.75,1.55 3.21,1.89 4.05,1.89 1.98,0 3.19,-1.73 3.19,-4.69 0,-2.93 -1.65,-8.65 -2.55,-10.56 -1.69,-3.48 -4.08,-5.12 -5.92,-5.12 l 0.04,-1.1 c 5.78,0 12,7.27 12,14.6 0,4.68 -2.82,7.96 -6.62,7.96 -2.48,0 -4.88,-1.78 -6.52,-3.73 -0.5,2.69 -2.64,3.73 -4.48,3.73 -2.3,0 -3.25,-1.93 -3.69,-2.82 -0.91,-1.71 -1.54,-4.69 -1.54,-4.85 0,-0.5 0.5,-0.5 0.59,-0.5 0.5,0 0.54,0.07 0.84,1.16 0.86,3.53 1.85,5.92 3.64,5.92 0.85,0 1.55,-0.39 1.55,-2.28 0,-1.16 -0.16,-1.7 -0.34,-2.55 z"
             id="path4900" /><path
             style="fill:#3f3f3f;fill-opacity:1;stroke-width:0"
             inkscape:connector-curvature="0"
             d="m 852.98,420.54 v 0.05 l -0.01,0.06 v 0.05 l -0.01,0.06 -0.01,0.05 -0.02,0.06 -0.02,0.05 -0.01,0.06 -0.03,0.06 -0.02,0.05 -0.03,0.06 -0.03,0.05 -0.03,0.06 -0.04,0.05 -0.04,0.05 -0.04,0.05 -0.04,0.05 -0.05,0.05 -0.05,0.04 -0.05,0.05 -0.06,0.04 -0.06,0.03 -0.06,0.04 -0.06,0.03 -0.07,0.03 -0.07,0.03 -0.08,0.02 -0.08,0.02 -0.08,0.01 -0.08,0.01 -0.09,0.01 h -0.09 c -0.94,0 -1.95,-0.91 -1.95,-1.92 0,-0.59 0.45,-1.33 1.4,-1.33 1,0 1.96,0.99 1.96,1.92 z"
             id="path4902" /><path
             style="fill:#3f3f3f;fill-opacity:1;stroke-width:0"
             inkscape:connector-curvature="0"
             d="m 845.87,402.84 -0.06,-0.17 -0.05,-0.17 -0.03,-0.08 -0.02,-0.09 -0.03,-0.08 -0.02,-0.09 -0.02,-0.09 -0.02,-0.09 -0.02,-0.1 -0.02,-0.09 -0.01,-0.1 v -0.05 l -0.01,-0.05 v -0.06 -0.05 -0.05 l -0.01,-0.06 c 0,-1.64 1.4,-2.95 3.3,-2.95 3.49,0 5.03,4.79 5.03,5.33 0,0.45 -0.45,0.45 -0.56,0.45 -0.48,0 -0.53,-0.2 -0.67,-0.59 -0.8,-2.79 -2.33,-4.22 -3.69,-4.22 -0.7,0 -0.87,0.45 -0.87,1.22 0,0.79 0.25,1.46 0.56,2.23 0.34,0.94 0.73,1.87 1.11,2.78 0.31,0.84 1.58,4.02 1.72,4.44 0.09,0.34 0.2,0.76 0.2,1.11 0,1.64 -1.39,2.95 -3.31,2.95 -3.46,0 -5.05,-4.73 -5.05,-5.33 0,-0.45 0.48,-0.45 0.59,-0.45 0.49,0 0.52,0.17 0.63,0.56 0.91,3 2.44,4.25 3.72,4.25 0.56,0 0.87,-0.28 0.87,-1.22 0,-0.79 -0.2,-1.32 -1.08,-3.48 z"
             id="path4904" /><path
             style="fill:#3f3f3f;fill-opacity:1;stroke-width:0"
             inkscape:connector-curvature="0"
             d="m 883,394.25 v 0.02 0.03 0.01 0.02 0.01 l -0.01,0.02 v 0.01 l -0.01,0.02 -0.01,0.02 -0.01,0.02 -0.01,0.02 -0.02,0.03 -0.01,0.02 -0.02,0.03 -0.02,0.03 -0.03,0.03 -0.02,0.03 -0.03,0.04 -0.02,0.02 -0.01,0.02 -0.02,0.02 -0.02,0.02 -0.02,0.02 -0.02,0.03 -0.02,0.02 -0.02,0.02 -0.02,0.03 -0.03,0.02 -0.02,0.03 -0.03,0.03 -0.03,0.03 -0.02,0.03 -0.03,0.03 -0.03,0.03 -0.03,0.03 -0.03,0.03 -0.04,0.04 -0.03,0.03 -0.04,0.04 -0.03,0.03 -0.04,0.04 -0.04,0.04 c -6.22,6.28 -7.81,15.69 -7.81,23.31 0,8.67 1.89,17.35 8.01,23.56 0.64,0.61 0.64,0.71 0.64,0.86 0,0.35 -0.18,0.49 -0.48,0.49 -0.5,0 -4.99,-3.38 -7.92,-9.7 -2.55,-5.49 -3.14,-11.02 -3.14,-15.21 0,-3.89 0.54,-9.9 3.28,-15.54 2.98,-6.13 7.28,-9.36 7.78,-9.36 0.3,0 0.48,0.14 0.48,0.5 z"
             id="path4906" /><path
             style="fill:#3f3f3f;fill-opacity:1;stroke-width:0"
             inkscape:connector-curvature="0"
             d="m 890.35,409.14 -0.02,-0.07 -0.01,-0.08 -0.02,-0.07 -0.02,-0.08 -0.03,-0.16 -0.04,-0.16 -0.04,-0.16 -0.03,-0.16 -0.04,-0.16 -0.04,-0.16 -0.01,-0.08 -0.02,-0.07 -0.02,-0.07 -0.01,-0.07 -0.02,-0.07 -0.01,-0.07 -0.01,-0.06 -0.02,-0.06 -0.01,-0.06 -0.01,-0.05 v -0.05 l -0.01,-0.04 -0.01,-0.04 v -0.04 -0.03 -0.02 c 0,-0.89 0.7,-1.35 1.43,-1.35 0.61,0 1.5,0.39 1.85,1.39 0.06,0.11 0.65,2.44 0.95,3.69 l 1.09,4.48 c 0.3,1.1 0.6,2.19 0.85,3.35 0.2,0.84 0.61,2.28 0.65,2.48 0.75,1.55 3.39,6.08 8.11,6.08 2.25,0 2.7,-1.84 2.7,-3.48 0,-3.1 -2.45,-9.47 -3.25,-11.61 -0.43,-1.14 -0.48,-1.75 -0.48,-2.3 0,-2.33 1.73,-4.08 4.08,-4.08 4.69,0 6.53,7.27 6.53,7.67 0,0.5 -0.45,0.5 -0.61,0.5 -0.48,0 -0.48,-0.15 -0.73,-0.9 -1,-3.38 -2.64,-6.17 -5.1,-6.17 -0.84,0 -1.19,0.5 -1.19,1.64 0,1.25 0.46,2.45 0.9,3.54 0.95,2.64 3.04,8.11 3.04,10.96 0,3.34 -2.14,5.32 -5.73,5.32 -4.49,0 -6.92,-3.18 -7.77,-4.32 -0.25,2.79 -2.29,4.32 -4.59,4.32 -2.28,0 -3.23,-1.93 -3.73,-2.82 -0.8,-1.71 -1.5,-4.64 -1.5,-4.85 0,-0.5 0.5,-0.5 0.6,-0.5 0.5,0 0.55,0.07 0.85,1.16 0.84,3.53 1.84,5.92 3.64,5.92 0.98,0 1.54,-0.64 1.54,-2.28 0,-1.05 -0.15,-1.61 -0.79,-4.19 z"
             id="path4908" /><path
             style="fill:#3f3f3f;fill-opacity:1;stroke-width:0"
             inkscape:connector-curvature="0"
             d="m 930.23,418.65 v 0.37 l -0.01,0.39 -0.01,0.39 -0.01,0.41 -0.04,0.84 -0.06,0.88 -0.08,0.92 -0.11,0.95 -0.13,0.97 -0.17,1.01 -0.19,1.02 -0.23,1.03 -0.27,1.05 -0.31,1.06 -0.35,1.07 -0.39,1.07 -0.21,0.53 -0.23,0.53 -0.23,0.53 -0.25,0.53 c -2.99,6.12 -7.27,9.36 -7.77,9.36 -0.3,0 -0.5,-0.19 -0.5,-0.49 0,-0.15 0,-0.25 0.94,-1.15 4.89,-4.92 7.73,-12.85 7.73,-23.27 0,-8.51 -1.84,-17.28 -8.03,-23.56 -0.64,-0.59 -0.64,-0.7 -0.64,-0.84 0,-0.3 0.2,-0.5 0.5,-0.5 0.5,0 4.97,3.39 7.92,9.71 2.53,5.47 3.13,11 3.13,15.19 z"
             id="path4910" /><path
             style="fill:#3f3f3f;fill-opacity:1;stroke-width:0"
             inkscape:connector-curvature="0"
             d="m 949.54,418.65 v 0.37 0.39 l -0.01,0.39 -0.02,0.41 -0.04,0.84 -0.06,0.88 -0.08,0.92 -0.1,0.95 -0.14,0.97 -0.16,1.01 -0.2,1.02 -0.23,1.03 -0.27,1.05 -0.3,1.06 -0.35,1.07 -0.39,1.07 -0.22,0.53 -0.22,0.53 -0.24,0.53 -0.25,0.53 c -2.98,6.12 -7.26,9.36 -7.76,9.36 -0.3,0 -0.5,-0.19 -0.5,-0.49 0,-0.15 0,-0.25 0.93,-1.15 4.89,-4.92 7.74,-12.85 7.74,-23.27 0,-8.51 -1.85,-17.28 -8.03,-23.56 -0.64,-0.59 -0.64,-0.7 -0.64,-0.84 0,-0.3 0.2,-0.5 0.5,-0.5 0.5,0 4.97,3.39 7.92,9.71 2.53,5.47 3.12,11 3.12,15.19 z"
             id="path4912" /></g>        <g
           style="fill:#3f3f3f;fill-opacity:1"
           transform="matrix(0.45438666,0,0,0.45438666,62.323585,357.9547)"
           id="g5254">
          <g
             style="font-style:normal;font-variant:normal;font-weight:normal;font-stretch:normal;letter-spacing:normal;word-spacing:normal;text-anchor:start;fill:#3f3f3f;fill-opacity:1;fill-rule:evenodd;stroke:#000000;stroke-linecap:butt;stroke-linejoin:miter;stroke-miterlimit:10.43299961;stroke-dasharray:none;stroke-dashoffset:0;stroke-opacity:1"
             id="g5252"
             transform="matrix(0.3,0,0,-0.3,-52.5,222.75)"
             xml:space="preserve"
             stroke-miterlimit="10.433"
             font-style="normal"
             font-variant="normal"
             font-weight="normal"
             font-stretch="normal"
             font-size-adjust="none"
             letter-spacing="normal"
             word-spacing="normal"><path
               style="fill:#3f3f3f;fill-opacity:1;stroke-width:0"
               inkscape:connector-curvature="0"
               d="m 457.75,400.12 -0.03,-0.15 -0.04,-0.15 -0.03,-0.14 -0.03,-0.13 -0.04,-0.13 -0.03,-0.11 -0.04,-0.12 -0.03,-0.1 -0.04,-0.1 -0.04,-0.09 -0.04,-0.09 -0.05,-0.08 -0.05,-0.07 -0.05,-0.07 -0.06,-0.07 -0.06,-0.06 -0.07,-0.05 -0.07,-0.05 -0.08,-0.04 -0.09,-0.04 -0.09,-0.04 -0.1,-0.03 -0.11,-0.03 -0.12,-0.02 -0.13,-0.02 -0.06,-0.01 -0.07,-0.01 -0.07,-0.01 -0.08,-0.01 h -0.07 l -0.08,-0.01 h -0.08 l -0.09,-0.01 h -0.08 -0.09 -0.1 -0.09 l -0.1,-0.01 h -0.1 c -0.6,0 -1.14,0 -1.14,-0.93 0,-0.41 0.25,-0.61 0.64,-0.61 1.36,0 2.79,0.15 4.18,0.15 1.64,0 3.35,-0.15 4.94,-0.15 0.25,0 0.89,0 0.89,1 0,0.54 -0.5,0.54 -1.19,0.54 -2.5,0 -2.5,0.36 -2.5,0.8 0,0.61 2.1,8.72 2.46,9.97 0.64,-1.44 2.03,-3.19 4.58,-3.19 l -0.05,1.1 c -3.3,0 -3.94,4.14 -3.94,4.43 0,0.1 0,0.21 0.14,0.8 l 2.46,9.77 c 0.34,1.34 1.68,2.73 2.57,3.48 1.75,1.55 3.21,1.89 4.05,1.89 1.98,0 3.19,-1.73 3.19,-4.69 0,-2.93 -1.64,-8.65 -2.55,-10.56 -1.69,-3.48 -4.08,-5.12 -5.92,-5.12 l 0.05,-1.1 c 5.78,0 12,7.27 12,14.6 0,4.68 -2.83,7.96 -6.63,7.96 -2.48,0 -4.87,-1.78 -6.51,-3.73 -0.5,2.69 -2.65,3.73 -4.49,3.73 -2.3,0 -3.25,-1.93 -3.69,-2.82 -0.9,-1.71 -1.54,-4.69 -1.54,-4.85 0,-0.5 0.5,-0.5 0.59,-0.5 0.5,0 0.55,0.07 0.84,1.16 0.86,3.53 1.85,5.92 3.64,5.92 0.85,0 1.55,-0.39 1.55,-2.28 0,-1.16 -0.15,-1.7 -0.34,-2.55 z"
               id="path5214" /><path
               style="fill:#3f3f3f;fill-opacity:1;stroke-width:0"
               inkscape:connector-curvature="0"
               d="m 495.9,420.54 v 0.06 l -0.01,0.06 v 0.05 l -0.01,0.06 -0.02,0.06 -0.01,0.06 -0.02,0.05 -0.02,0.06 -0.02,0.06 -0.03,0.05 -0.02,0.06 -0.03,0.05 -0.04,0.06 -0.03,0.05 -0.04,0.05 -0.05,0.05 -0.04,0.05 -0.05,0.04 -0.05,0.05 -0.05,0.04 -0.06,0.04 -0.05,0.03 -0.07,0.04 -0.06,0.03 -0.07,0.02 -0.07,0.03 -0.07,0.02 -0.07,0.02 -0.08,0.01 -0.08,0.01 -0.09,0.01 h -0.08 c -1.02,0 -1.96,-0.98 -1.96,-1.92 0,-0.56 0.43,-1.33 1.4,-1.33 0.93,0 1.95,0.91 1.95,1.92 z"
               id="path5216" /><path
               style="fill:#3f3f3f;fill-opacity:1;stroke-width:0"
               inkscape:connector-curvature="0"
               d="m 488.51,397.06 -0.06,-0.23 -0.07,-0.22 -0.07,-0.22 -0.08,-0.21 -0.09,-0.21 -0.09,-0.21 -0.1,-0.21 -0.11,-0.2 -0.11,-0.19 -0.11,-0.19 -0.13,-0.19 -0.12,-0.18 -0.13,-0.17 -0.14,-0.17 -0.14,-0.16 -0.15,-0.15 -0.15,-0.15 -0.15,-0.14 -0.16,-0.13 -0.16,-0.13 -0.17,-0.11 -0.17,-0.11 -0.17,-0.1 -0.18,-0.09 -0.17,-0.08 -0.18,-0.07 -0.19,-0.06 -0.18,-0.05 -0.19,-0.04 -0.19,-0.03 -0.19,-0.02 h -0.19 c -0.45,0 -0.87,0.06 -1.26,0.2 0.9,0.42 1.19,1.25 1.19,1.78 0,0.83 -0.66,1.28 -1.36,1.28 -1.08,0 -1.99,-0.94 -1.99,-2.04 0,-1.33 1.36,-2.21 3.45,-2.21 2.1,0 6.16,1.25 7.25,5.5 l 3.13,12.49 c 0.11,0.37 0.17,0.68 0.17,1.22 0,1.9 -1.62,3.26 -3.72,3.26 -3.87,0 -6.09,-4.84 -6.09,-5.33 0,-0.45 0.48,-0.45 0.59,-0.45 0.41,0 0.46,0.11 0.69,0.62 0.88,2.04 2.69,4.19 4.7,4.19 0.88,0 1.19,-0.59 1.19,-1.7 0,-0.39 -0.06,-0.88 -0.11,-1.05 z"
               id="path5218" /><path
               style="fill:#3f3f3f;fill-opacity:1;stroke-width:0"
               inkscape:connector-curvature="0"
               d="m 526.36,394.25 v 0.02 0.03 0.01 0.02 l -0.01,0.01 v 0.02 l -0.01,0.01 v 0.02 l -0.01,0.02 -0.01,0.02 -0.01,0.02 -0.02,0.03 -0.01,0.02 -0.02,0.03 -0.02,0.03 -0.03,0.03 -0.02,0.03 -0.03,0.04 -0.02,0.02 -0.02,0.02 -0.01,0.02 -0.02,0.02 -0.02,0.02 -0.02,0.03 -0.02,0.02 -0.02,0.02 -0.03,0.03 -0.02,0.02 -0.02,0.03 -0.03,0.03 -0.03,0.03 -0.02,0.03 -0.03,0.03 -0.03,0.03 -0.03,0.03 -0.03,0.03 -0.04,0.04 -0.03,0.03 -0.04,0.04 -0.03,0.03 -0.04,0.04 -0.04,0.04 c -6.22,6.28 -7.81,15.69 -7.81,23.31 0,8.67 1.89,17.35 8.01,23.56 0.64,0.61 0.64,0.71 0.64,0.86 0,0.35 -0.18,0.49 -0.48,0.49 -0.5,0 -4.98,-3.38 -7.92,-9.7 -2.55,-5.49 -3.14,-11.02 -3.14,-15.21 0,-3.89 0.54,-9.9 3.28,-15.54 2.98,-6.13 7.28,-9.36 7.78,-9.36 0.3,0 0.48,0.14 0.48,0.5 z"
               id="path5220" /><path
               style="fill:#3f3f3f;fill-opacity:1;stroke-width:0"
               inkscape:connector-curvature="0"
               d="m 533.71,409.14 -0.02,-0.07 -0.01,-0.08 -0.02,-0.07 -0.02,-0.08 -0.03,-0.16 -0.04,-0.16 -0.04,-0.16 -0.03,-0.16 -0.04,-0.16 -0.04,-0.16 -0.02,-0.08 -0.01,-0.07 -0.02,-0.07 -0.01,-0.07 -0.02,-0.07 -0.01,-0.07 -0.02,-0.06 -0.01,-0.06 -0.01,-0.06 -0.01,-0.05 -0.01,-0.05 v -0.04 l -0.01,-0.04 v -0.04 l -0.01,-0.03 V 407 c 0,-0.89 0.71,-1.35 1.44,-1.35 0.61,0 1.5,0.39 1.84,1.39 0.07,0.11 0.66,2.44 0.96,3.69 l 1.09,4.48 c 0.3,1.1 0.6,2.19 0.85,3.35 0.2,0.84 0.6,2.28 0.65,2.48 0.75,1.55 3.39,6.08 8.11,6.08 2.25,0 2.71,-1.84 2.71,-3.48 0,-3.1 -2.46,-9.47 -3.25,-11.61 -0.44,-1.14 -0.49,-1.75 -0.49,-2.3 0,-2.33 1.74,-4.08 4.08,-4.08 4.69,0 6.53,7.27 6.53,7.67 0,0.5 -0.45,0.5 -0.61,0.5 -0.48,0 -0.48,-0.15 -0.73,-0.9 -1,-3.38 -2.65,-6.17 -5.1,-6.17 -0.84,0 -1.18,0.5 -1.18,1.64 0,1.25 0.45,2.45 0.88,3.54 0.96,2.64 3.05,8.11 3.05,10.96 0,3.34 -2.14,5.32 -5.73,5.32 -4.49,0 -6.92,-3.18 -7.77,-4.32 -0.25,2.79 -2.3,4.32 -4.59,4.32 -2.28,0 -3.24,-1.93 -3.74,-2.82 -0.79,-1.71 -1.5,-4.64 -1.5,-4.85 0,-0.5 0.5,-0.5 0.61,-0.5 0.5,0 0.55,0.07 0.85,1.16 0.84,3.53 1.84,5.92 3.64,5.92 0.98,0 1.55,-0.64 1.55,-2.28 0,-1.05 -0.16,-1.61 -0.8,-4.19 z"
               id="path5222" /><path
               style="fill:#3f3f3f;fill-opacity:1;stroke-width:0"
               inkscape:connector-curvature="0"
               d="m 590.61,417.65 h 13.91 c 0.68,0 1.64,0 1.64,1 0,1 -0.96,1 -1.64,1 h -13.91 v 13.96 c 0,0.68 0,1.64 -1,1.64 -0.99,0 -0.99,-0.96 -0.99,-1.64 v -13.96 h -13.95 c -0.7,0 -1.64,0 -1.64,-1 0,-1 0.94,-1 1.64,-1 h 13.95 v -13.94 c 0,-0.7 0,-1.65 0.99,-1.65 1,0 1,0.95 1,1.65 z"
               id="path5224" /><path
               style="fill:#3f3f3f;fill-opacity:1;stroke-width:0"
               inkscape:connector-curvature="0"
               d="m 634.67,438.09 v 0.05 0.06 0.05 0.05 0.05 0.05 0.04 0.05 0.04 0.04 0.04 l -0.01,0.04 v 0.04 0.03 0.04 l -0.01,0.03 v 0.07 l -0.01,0.06 -0.01,0.05 -0.02,0.05 -0.01,0.05 -0.02,0.04 -0.03,0.04 -0.02,0.03 -0.03,0.03 -0.03,0.03 -0.04,0.03 -0.04,0.02 -0.04,0.02 -0.02,0.01 -0.03,0.01 h -0.02 l -0.03,0.01 -0.03,0.01 h -0.03 l -0.03,0.01 h -0.03 l -0.04,0.01 h -0.03 -0.04 l -0.03,0.01 h -0.04 -0.04 -0.04 -0.05 -0.04 l -0.05,0.01 h -0.05 -0.05 -0.05 -0.05 c -3.09,-3.19 -7.47,-3.19 -9.06,-3.19 v -1.55 c 1,0 3.94,0 6.51,1.3 v -25.81 c 0,-1.8 -0.14,-2.39 -4.62,-2.39 h -1.59 v -1.55 c 1.75,0.16 6.07,0.16 8.06,0.16 2,0 6.33,0 8.08,-0.16 v 1.55 h -1.6 c -4.48,0 -4.64,0.54 -4.64,2.39 z"
               id="path5226" /><path
               style="fill:#3f3f3f;fill-opacity:1;stroke-width:0"
               inkscape:connector-curvature="0"
               d="m 659.38,418.65 v 0.37 l -0.01,0.39 -0.01,0.39 -0.01,0.41 -0.04,0.84 -0.06,0.88 -0.08,0.92 -0.11,0.95 -0.13,0.97 -0.17,1.01 -0.19,1.02 -0.23,1.03 -0.27,1.05 -0.31,1.06 -0.34,1.07 -0.4,1.07 -0.21,0.53 -0.22,0.53 -0.24,0.53 -0.25,0.53 c -2.99,6.12 -7.27,9.36 -7.77,9.36 -0.3,0 -0.5,-0.19 -0.5,-0.49 0,-0.15 0,-0.25 0.94,-1.15 4.89,-4.92 7.73,-12.85 7.73,-23.27 0,-8.51 -1.84,-17.28 -8.03,-23.56 -0.64,-0.59 -0.64,-0.7 -0.64,-0.84 0,-0.3 0.2,-0.5 0.5,-0.5 0.5,0 4.97,3.39 7.92,9.71 2.53,5.47 3.13,11 3.13,15.19 z"
               id="path5228" /><path
               style="fill:#3f3f3f;fill-opacity:1;stroke-width:0"
               inkscape:connector-curvature="0"
               d="m 723.46,417.65 h 0.17 0.17 l 0.16,0.01 h 0.08 l 0.08,0.01 h 0.08 l 0.08,0.01 0.07,0.01 0.08,0.01 0.07,0.02 0.07,0.02 0.06,0.02 0.07,0.02 0.06,0.02 0.06,0.03 0.06,0.03 0.05,0.04 0.05,0.03 0.04,0.05 0.05,0.04 0.03,0.05 0.04,0.06 0.02,0.03 0.01,0.03 0.01,0.03 0.02,0.03 0.01,0.04 0.01,0.03 0.01,0.04 0.01,0.04 v 0.04 l 0.01,0.04 v 0.04 l 0.01,0.04 v 0.05 0.04 c 0,1 -0.89,1 -1.8,1 h -37.01 c 2.73,2.1 4.09,4.14 4.48,4.78 2.25,3.44 2.64,6.58 2.64,6.63 0,0.59 -0.59,0.59 -1,0.59 -0.84,0 -0.89,-0.09 -1.09,-0.98 -1.14,-4.89 -4.08,-9.03 -9.72,-11.36 -0.55,-0.2 -0.74,-0.31 -0.74,-0.66 0,-0.34 0.25,-0.45 0.74,-0.64 5.19,-2.14 8.53,-6.03 9.76,-11.61 0.16,-0.61 0.21,-0.75 1.05,-0.75 0.41,0 1,0 1,0.6 0,0.11 -0.45,3.23 -2.55,6.57 -0.98,1.5 -2.43,3.24 -4.57,4.83 z"
               id="path5230" /><path
               style="fill:#3f3f3f;fill-opacity:1;stroke-width:0"
               inkscape:connector-curvature="0"
               d="m 760.1,426.12 h 4.29 c 1,0 1.5,0 1.5,1 0,0.55 -0.5,0.55 -1.35,0.55 h -4.14 l 1.05,5.69 c 0.2,1.04 0.9,4.57 1.2,5.17 0.45,0.95 1.3,1.7 2.35,1.7 0.18,0 1.48,0 2.43,-0.91 -2.18,-0.18 -2.68,-1.93 -2.68,-2.68 0,-1.14 0.89,-1.74 1.84,-1.74 1.3,0 2.73,1.1 2.73,2.99 0,2.29 -2.29,3.43 -4.32,3.43 -1.71,0 -4.85,-0.89 -6.33,-5.82 -0.3,-1.05 -0.45,-1.55 -1.64,-7.83 h -3.44 c -0.95,0 -1.5,0 -1.5,-0.94 0,-0.61 0.45,-0.61 1.39,-0.61 h 3.3 l -3.75,-19.67 c -0.89,-4.83 -1.74,-9.38 -4.33,-9.38 -0.2,0 -1.44,0 -2.39,0.91 2.29,0.14 2.73,1.94 2.73,2.69 0,1.14 -0.89,1.75 -1.84,1.75 -1.3,0 -2.73,-1.1 -2.73,-3 0,-2.24 2.18,-3.44 4.23,-3.44 2.73,0 4.73,2.94 5.62,4.84 1.6,3.14 2.75,9.16 2.8,9.52 z"
               id="path5232" /><path
               style="fill:#3f3f3f;fill-opacity:1;stroke-width:0"
               inkscape:connector-curvature="0"
               d="m 770.45,400.95 -0.01,-0.04 -0.02,-0.05 -0.01,-0.04 -0.02,-0.05 -0.01,-0.05 -0.01,-0.06 -0.02,-0.05 -0.01,-0.05 -0.03,-0.11 -0.03,-0.11 -0.03,-0.12 -0.03,-0.1 -0.01,-0.06 -0.01,-0.05 -0.01,-0.05 -0.01,-0.05 -0.01,-0.05 -0.01,-0.04 -0.01,-0.05 -0.01,-0.04 -0.01,-0.03 -0.01,-0.04 v -0.03 l -0.01,-0.03 v -0.02 -0.02 -0.01 -0.01 -0.01 h -0.01 c 0,-0.77 0.63,-1.11 1.19,-1.11 0.63,0 1.18,0.45 1.36,0.76 0.17,0.32 0.45,1.43 0.63,2.16 0.17,0.66 0.54,2.27 0.76,3.14 0.21,0.77 0.43,1.53 0.6,2.33 0.37,1.44 0.45,1.7 1.45,3.14 0.98,1.39 2.63,3.2 5.23,3.2 2.02,0 2.05,-1.78 2.05,-2.44 0,-2.09 -1.48,-5.95 -2.05,-7.42 -0.39,-0.98 -0.53,-1.29 -0.53,-1.89 0,-1.84 1.55,-2.98 3.31,-2.98 3.49,0 5.02,4.79 5.02,5.33 0,0.45 -0.45,0.45 -0.55,0.45 -0.5,0 -0.53,-0.2 -0.67,-0.59 -0.8,-2.79 -2.3,-4.22 -3.68,-4.22 -0.74,0 -0.88,0.48 -0.88,1.22 0,0.79 0.17,1.25 0.8,2.82 0.42,1.08 1.86,4.77 1.86,6.72 0,3.39 -2.69,3.97 -4.53,3.97 -2.9,0 -4.85,-1.76 -5.9,-3.16 -0.25,2.4 -2.29,3.16 -3.73,3.16 -1.5,0 -2.3,-1.08 -2.75,-1.87 -0.77,-1.29 -1.25,-3.29 -1.25,-3.46 0,-0.45 0.48,-0.45 0.59,-0.45 0.49,0 0.52,0.11 0.77,1.05 0.52,2.06 1.19,3.76 2.55,3.76 0.9,0 1.14,-0.76 1.14,-1.7 0,-0.67 -0.32,-1.95 -0.57,-2.89 -0.23,-0.95 -0.57,-2.38 -0.76,-3.14 z"
               id="path5234" /><path
               style="fill:#3f3f3f;fill-opacity:1;stroke-width:0"
               inkscape:connector-curvature="0"
               d="m 818.09,394.25 v 0.02 l -0.01,0.03 v 0.01 0.02 0.01 l -0.01,0.02 v 0.01 l -0.01,0.02 -0.01,0.02 -0.01,0.02 -0.01,0.02 -0.01,0.03 -0.02,0.02 -0.02,0.03 -0.02,0.03 -0.02,0.03 -0.03,0.03 -0.03,0.04 -0.02,0.02 -0.01,0.02 -0.02,0.02 -0.02,0.02 -0.02,0.02 -0.02,0.03 -0.02,0.02 -0.02,0.02 -0.02,0.03 -0.03,0.02 -0.02,0.03 -0.03,0.03 -0.02,0.03 -0.03,0.03 -0.03,0.03 -0.03,0.03 -0.03,0.03 -0.03,0.03 -0.04,0.04 -0.03,0.03 -0.03,0.04 -0.04,0.03 -0.04,0.04 -0.04,0.04 c -6.22,6.28 -7.81,15.69 -7.81,23.31 0,8.67 1.89,17.35 8.02,23.56 0.64,0.61 0.64,0.71 0.64,0.86 0,0.35 -0.19,0.49 -0.49,0.49 -0.5,0 -4.98,-3.38 -7.92,-9.7 -2.55,-5.49 -3.14,-11.02 -3.14,-15.21 0,-3.89 0.55,-9.9 3.28,-15.54 2.98,-6.13 7.28,-9.36 7.78,-9.36 0.3,0 0.49,0.14 0.49,0.5 z"
               id="path5236" /><path
               style="fill:#3f3f3f;fill-opacity:1;stroke-width:0"
               inkscape:connector-curvature="0"
               d="m 823.27,400.12 -0.04,-0.15 -0.03,-0.15 -0.03,-0.14 -0.04,-0.13 -0.03,-0.13 -0.03,-0.11 -0.04,-0.12 -0.04,-0.1 -0.03,-0.1 -0.04,-0.09 -0.05,-0.09 -0.04,-0.08 -0.05,-0.07 -0.05,-0.07 -0.06,-0.07 -0.06,-0.06 -0.07,-0.05 -0.08,-0.05 -0.08,-0.04 -0.08,-0.04 -0.1,-0.04 -0.1,-0.03 -0.11,-0.03 -0.11,-0.02 -0.13,-0.02 -0.07,-0.01 -0.07,-0.01 -0.07,-0.01 -0.07,-0.01 h -0.08 l -0.08,-0.01 h -0.08 l -0.08,-0.01 h -0.09 -0.09 -0.09 -0.1 l -0.1,-0.01 h -0.1 c -0.59,0 -1.14,0 -1.14,-0.93 0,-0.41 0.25,-0.61 0.64,-0.61 1.36,0 2.8,0.15 4.19,0.15 1.64,0 3.34,-0.15 4.94,-0.15 0.25,0 0.89,0 0.89,1 0,0.54 -0.5,0.54 -1.19,0.54 -2.5,0 -2.5,0.36 -2.5,0.8 0,0.61 2.09,8.72 2.45,9.97 0.64,-1.44 2.04,-3.19 4.58,-3.19 l -0.04,1.1 c -3.3,0 -3.94,4.14 -3.94,4.43 0,0.1 0,0.21 0.14,0.8 l 2.45,9.77 c 0.35,1.34 1.69,2.73 2.58,3.48 1.75,1.55 3.2,1.89 4.05,1.89 1.98,0 3.18,-1.73 3.18,-4.69 0,-2.93 -1.64,-8.65 -2.54,-10.56 -1.69,-3.48 -4.08,-5.12 -5.92,-5.12 l 0.04,-1.1 c 5.78,0 12,7.27 12,14.6 0,4.68 -2.83,7.96 -6.62,7.96 -2.49,0 -4.88,-1.78 -6.52,-3.73 -0.5,2.69 -2.64,3.73 -4.48,3.73 -2.3,0 -3.25,-1.93 -3.69,-2.82 -0.91,-1.71 -1.55,-4.69 -1.55,-4.85 0,-0.5 0.5,-0.5 0.6,-0.5 0.5,0 0.54,0.07 0.84,1.16 0.86,3.53 1.84,5.92 3.64,5.92 0.84,0 1.55,-0.39 1.55,-2.28 0,-1.16 -0.16,-1.7 -0.35,-2.55 z"
               id="path5238" /><path
               style="fill:#3f3f3f;fill-opacity:1;stroke-width:0"
               inkscape:connector-curvature="0"
               d="m 861.42,420.54 v 0.06 l -0.01,0.06 v 0.05 l -0.01,0.06 -0.02,0.06 -0.01,0.06 -0.02,0.05 -0.02,0.06 -0.02,0.06 -0.03,0.05 -0.02,0.06 -0.03,0.05 -0.04,0.06 -0.03,0.05 -0.04,0.05 -0.05,0.05 -0.04,0.05 -0.05,0.04 -0.05,0.05 -0.05,0.04 -0.06,0.04 -0.05,0.03 -0.07,0.04 -0.06,0.03 -0.07,0.02 -0.07,0.03 -0.07,0.02 -0.07,0.02 -0.08,0.01 -0.08,0.01 -0.09,0.01 h -0.08 c -1.02,0 -1.96,-0.98 -1.96,-1.92 0,-0.56 0.43,-1.33 1.4,-1.33 0.93,0 1.95,0.91 1.95,1.92 z"
               id="path5240" /><path
               style="fill:#3f3f3f;fill-opacity:1;stroke-width:0"
               inkscape:connector-curvature="0"
               d="m 854.03,397.06 -0.06,-0.23 -0.07,-0.22 -0.07,-0.22 -0.08,-0.21 -0.09,-0.21 -0.09,-0.21 -0.1,-0.21 -0.11,-0.2 -0.11,-0.19 -0.11,-0.19 -0.13,-0.19 -0.12,-0.18 -0.13,-0.17 -0.14,-0.17 -0.14,-0.16 -0.15,-0.15 -0.15,-0.15 -0.15,-0.14 -0.16,-0.13 -0.17,-0.13 -0.16,-0.11 -0.17,-0.11 -0.17,-0.1 -0.18,-0.09 -0.17,-0.08 -0.18,-0.07 -0.19,-0.06 -0.18,-0.05 -0.19,-0.04 -0.19,-0.03 -0.19,-0.02 h -0.19 c -0.45,0 -0.87,0.06 -1.26,0.2 0.9,0.42 1.19,1.25 1.19,1.78 0,0.83 -0.66,1.28 -1.37,1.28 -1.07,0 -1.98,-0.94 -1.98,-2.04 0,-1.33 1.36,-2.21 3.45,-2.21 2.1,0 6.16,1.25 7.25,5.5 l 3.13,12.49 c 0.11,0.37 0.17,0.68 0.17,1.22 0,1.9 -1.62,3.26 -3.72,3.26 -3.87,0 -6.09,-4.84 -6.09,-5.33 0,-0.45 0.48,-0.45 0.59,-0.45 0.41,0 0.45,0.11 0.69,0.62 0.88,2.04 2.69,4.19 4.7,4.19 0.88,0 1.19,-0.59 1.19,-1.7 0,-0.39 -0.06,-0.88 -0.11,-1.05 z"
               id="path5242" /><path
               style="fill:#3f3f3f;fill-opacity:1;stroke-width:0"
               inkscape:connector-curvature="0"
               d="m 891.88,394.25 v 0.02 0.03 0.01 0.02 l -0.01,0.01 v 0.02 l -0.01,0.01 v 0.02 l -0.01,0.02 -0.01,0.02 -0.01,0.02 -0.02,0.03 -0.01,0.02 -0.02,0.03 -0.02,0.03 -0.03,0.03 -0.02,0.03 -0.03,0.04 -0.02,0.02 -0.02,0.02 -0.01,0.02 -0.02,0.02 -0.02,0.02 -0.02,0.03 -0.02,0.02 -0.02,0.02 -0.03,0.03 -0.02,0.02 -0.02,0.03 -0.03,0.03 -0.03,0.03 -0.02,0.03 -0.03,0.03 -0.03,0.03 -0.03,0.03 -0.04,0.03 -0.03,0.04 -0.03,0.03 -0.04,0.04 -0.03,0.03 -0.04,0.04 -0.04,0.04 c -6.22,6.28 -7.81,15.69 -7.81,23.31 0,8.67 1.89,17.35 8.01,23.56 0.64,0.61 0.64,0.71 0.64,0.86 0,0.35 -0.18,0.49 -0.48,0.49 -0.5,0 -4.99,-3.38 -7.92,-9.7 -2.55,-5.49 -3.14,-11.02 -3.14,-15.21 0,-3.89 0.54,-9.9 3.28,-15.54 2.98,-6.13 7.28,-9.36 7.78,-9.36 0.3,0 0.48,0.14 0.48,0.5 z"
               id="path5244" /><path
               style="fill:#3f3f3f;fill-opacity:1;stroke-width:0"
               inkscape:connector-curvature="0"
               d="m 899.1,409.14 -0.01,-0.07 -0.02,-0.08 -0.01,-0.07 -0.02,-0.08 -0.03,-0.16 -0.04,-0.16 -0.04,-0.16 -0.04,-0.16 -0.03,-0.16 -0.04,-0.16 -0.02,-0.08 -0.01,-0.07 -0.02,-0.07 -0.02,-0.07 -0.01,-0.07 -0.01,-0.07 -0.02,-0.06 -0.01,-0.06 -0.01,-0.06 -0.01,-0.05 -0.01,-0.05 v -0.04 l -0.01,-0.04 v -0.04 l -0.01,-0.03 V 407 c 0,-0.89 0.7,-1.35 1.44,-1.35 0.61,0 1.5,0.39 1.84,1.39 0.07,0.11 0.66,2.44 0.96,3.69 l 1.09,4.48 c 0.3,1.1 0.59,2.19 0.84,3.35 0.21,0.84 0.61,2.28 0.66,2.48 0.75,1.55 3.39,6.08 8.11,6.08 2.25,0 2.7,-1.84 2.7,-3.48 0,-3.1 -2.45,-9.47 -3.25,-11.61 -0.44,-1.14 -0.48,-1.75 -0.48,-2.3 0,-2.33 1.73,-4.08 4.08,-4.08 4.68,0 6.53,7.27 6.53,7.67 0,0.5 -0.45,0.5 -0.61,0.5 -0.49,0 -0.49,-0.15 -0.74,-0.9 -1,-3.38 -2.64,-6.17 -5.09,-6.17 -0.84,0 -1.19,0.5 -1.19,1.64 0,1.25 0.46,2.45 0.89,3.54 0.96,2.64 3.05,8.11 3.05,10.96 0,3.34 -2.14,5.32 -5.73,5.32 -4.49,0 -6.93,-3.18 -7.77,-4.32 -0.25,2.79 -2.3,4.32 -4.59,4.32 -2.29,0 -3.24,-1.93 -3.74,-2.82 -0.8,-1.71 -1.5,-4.64 -1.5,-4.85 0,-0.5 0.5,-0.5 0.61,-0.5 0.5,0 0.55,0.07 0.84,1.16 0.85,3.53 1.85,5.92 3.65,5.92 0.98,0 1.54,-0.64 1.54,-2.28 0,-1.05 -0.15,-1.61 -0.79,-4.19 z"
               id="path5246" /><path
               style="fill:#3f3f3f;fill-opacity:1;stroke-width:0"
               inkscape:connector-curvature="0"
               d="m 938.98,418.65 v 0.37 0.39 l -0.01,0.39 -0.01,0.41 -0.04,0.84 -0.06,0.88 -0.09,0.92 -0.1,0.95 -0.14,0.97 -0.16,1.01 -0.2,1.02 -0.23,1.03 -0.26,1.05 -0.31,1.06 -0.35,1.07 -0.39,1.07 -0.21,0.53 -0.23,0.53 -0.24,0.53 -0.25,0.53 c -2.98,6.12 -7.26,9.36 -7.76,9.36 -0.3,0 -0.5,-0.19 -0.5,-0.49 0,-0.15 0,-0.25 0.94,-1.15 4.89,-4.92 7.73,-12.85 7.73,-23.27 0,-8.51 -1.84,-17.28 -8.03,-23.56 -0.64,-0.59 -0.64,-0.7 -0.64,-0.84 0,-0.3 0.2,-0.5 0.5,-0.5 0.5,0 4.97,3.39 7.92,9.71 2.53,5.47 3.12,11 3.12,15.19 z"
               id="path5248" /><path
               style="fill:#3f3f3f;fill-opacity:1;stroke-width:0"
               inkscape:connector-curvature="0"
               d="m 958.42,418.65 v 0.37 0.39 l -0.01,0.39 -0.02,0.41 -0.04,0.84 -0.06,0.88 -0.08,0.92 -0.11,0.95 -0.13,0.97 -0.16,1.01 -0.2,1.02 -0.23,1.03 -0.27,1.05 -0.3,1.06 -0.35,1.07 -0.39,1.07 -0.22,0.53 -0.22,0.53 -0.24,0.53 -0.25,0.53 c -2.98,6.12 -7.26,9.36 -7.76,9.36 -0.3,0 -0.5,-0.19 -0.5,-0.49 0,-0.15 0,-0.25 0.93,-1.15 4.89,-4.92 7.74,-12.85 7.74,-23.27 0,-8.51 -1.85,-17.28 -8.03,-23.56 -0.64,-0.59 -0.64,-0.7 -0.64,-0.84 0,-0.3 0.2,-0.5 0.5,-0.5 0.5,0 4.96,3.39 7.92,9.71 2.53,5.47 3.12,11 3.12,15.19 z"
               id="path5250" /></g>        </g>
        <g
           id="g5591"
           transform="matrix(0.595552,0,0,0.595552,80.900195,355.20353)">
          <path
             style="font-style:normal;font-variant:normal;font-weight:normal;font-stretch:normal;letter-spacing:normal;word-spacing:normal;text-anchor:start;fill:#3f3f3f;fill-opacity:1;fill-rule:evenodd;stroke:#000000;stroke-width:0;stroke-linecap:butt;stroke-linejoin:miter;stroke-miterlimit:10.43299961;stroke-dasharray:none;stroke-dashoffset:0;stroke-opacity:1"
             inkscape:connector-curvature="0"
             d="m 162.60627,79.403619 -0.004,0.10293 -0.004,0.108347 -0.008,0.108347 -0.0118,0.113765 -0.0156,0.113764 -0.0195,0.113765 -0.0234,0.119182 -0.0273,0.119182 -0.0352,0.119182 -0.0352,0.119182 -0.043,0.119181 -0.0469,0.119182 -0.0547,0.113765 -0.0586,0.119182 -0.0625,0.113765 -0.0703,0.113764 -0.0781,0.108347 -0.082,0.10293 -0.0898,0.10293 -0.0977,0.10293 -0.10156,0.0921 -0.11329,0.0921 -0.1172,0.08126 -0.12501,0.08126 -0.13673,0.07584 -0.14063,0.06501 -0.14845,0.06501 -0.16016,0.05417 -0.082,0.02167 -0.0859,0.02167 -0.0859,0.02167 -0.0898,0.01625 -0.0899,0.01625 -0.0937,0.01625 -0.0977,0.01084 -0.0977,0.01083 c -0.0977,0.02709 -0.17189,0.135434 -0.17189,0.297955 0,0.292538 0.21487,0.292538 0.38675,0.292538 1.89075,0 3.69947,-1.316419 3.71509,-3.364181 V 73.47161 c 0,-1.061802 0,-1.923163 0.7813,-2.81161 0.68365,-0.785517 1.42198,-0.839691 1.85169,-0.866778 0.0977,-0.02167 0.17579,-0.135434 0.17579,-0.292537 0,-0.270868 -0.1211,-0.270868 -0.31252,-0.297955 -1.28524,-0.108347 -2.2189,-1.083472 -2.43375,-2.405308 -0.0625,-0.292538 -0.0625,-0.346711 -0.0625,-1.316419 V 60.12865 c 0,-1.126811 0,-1.999006 -0.93366,-3.022887 -0.77349,-0.834274 -2.11733,-1.099724 -2.78143,-1.099724 -0.17189,0 -0.38675,0 -0.38675,0.297954 0,0.270868 0.11719,0.270868 0.31252,0.297955 1.22274,0.09751 2.17984,0.969708 2.42985,2.3403 0.0625,0.249199 0.0625,0.297955 0.0625,1.27308 v 5.671977 c 0,1.235158 0.15235,1.690217 0.77349,2.562412 0.41019,0.557988 0.97663,0.828856 1.51964,1.050968 -1.59387,0.617579 -2.29313,1.863572 -2.29313,3.429189 z"
             id="path5432" />
          <g
             style="fill:#3f3f3f;fill-opacity:1"
             transform="matrix(0.62390898,0,0,0.62390898,62.013924,29.004865)"
             id="g5580">
            <path
               id="path5436"
               d="m 177.9452,57.87204 v -0.027 l -0.003,-0.027 -0.003,-0.03 -0.003,-0.024 -0.006,-0.027 -0.006,-0.027 -0.009,-0.024 -0.009,-0.024 -0.009,-0.024 -0.012,-0.024 -0.012,-0.024 -0.012,-0.021 -0.015,-0.021 -0.015,-0.021 -0.018,-0.018 -0.015,-0.018 -0.021,-0.018 -0.018,-0.018 -0.021,-0.015 -0.021,-0.015 -0.021,-0.015 -0.024,-0.012 -0.024,-0.012 -0.024,-0.012 -0.027,-0.009 -0.027,-0.009 -0.027,-0.006 -0.03,-0.006 -0.027,-0.006 -0.033,-0.003 h -0.03 l -0.03,-0.003 c -0.408,0 -0.813,0.39 -0.813,0.792 0,0.288 0.213,0.54 0.573,0.54 0.342,0 0.792,-0.342 0.792,-0.792 z"
               inkscape:connector-curvature="0"
               style="font-style:normal;font-variant:normal;font-weight:normal;font-stretch:normal;letter-spacing:normal;word-spacing:normal;text-anchor:start;fill:#3f3f3f;fill-opacity:1;fill-rule:evenodd;stroke:#000000;stroke-width:0;stroke-linecap:butt;stroke-linejoin:miter;stroke-miterlimit:10.43299961;stroke-dasharray:none;stroke-dashoffset:0;stroke-opacity:1" />
            <path
               id="path5438"
               d="m 176.8052,63.49104 0.018,-0.039 0.015,-0.036 0.015,-0.036 0.012,-0.033 0.012,-0.03 0.012,-0.03 0.012,-0.027 0.009,-0.027 0.012,-0.027 0.009,-0.024 0.009,-0.024 0.009,-0.024 0.009,-0.021 0.006,-0.021 0.018,-0.045 0.015,-0.042 0.015,-0.042 0.006,-0.021 0.009,-0.024 0.009,-0.024 0.009,-0.024 0.009,-0.024 0.009,-0.027 0.012,-0.03 0.009,-0.027 0.012,-0.033 0.012,-0.033 0.012,-0.033 0.015,-0.039 c 0.12,-0.3 0.195,-0.504 0.195,-0.792 0,-0.669 -0.477,-1.221 -1.227,-1.221 -1.401,0 -1.974,2.163 -1.974,2.301 0,0.15 0.15,0.15 0.183,0.15 0.15,0 0.165,-0.033 0.24,-0.273 0.402,-1.407 0.999,-1.851 1.509,-1.851 0.117,0 0.375,0 0.375,0.477 0,0.315 -0.108,0.63 -0.168,0.78 -0.12,0.387 -0.792,2.118 -1.032,2.766 -0.147,0.384 -0.342,0.879 -0.342,1.194 0,0.699 0.507,1.224 1.227,1.224 1.401,0 1.956,-2.166 1.956,-2.301 0,-0.15 -0.132,-0.15 -0.18,-0.15 -0.15,0 -0.15,0.045 -0.225,0.27 -0.267,0.939 -0.759,1.851 -1.524,1.851 -0.252,0 -0.36,-0.15 -0.36,-0.492 0,-0.375 0.096,-0.585 0.435,-1.494 z"
               inkscape:connector-curvature="0"
               style="font-style:normal;font-variant:normal;font-weight:normal;font-stretch:normal;letter-spacing:normal;word-spacing:normal;text-anchor:start;fill:#3f3f3f;fill-opacity:1;fill-rule:evenodd;stroke:#000000;stroke-width:0;stroke-linecap:butt;stroke-linejoin:miter;stroke-miterlimit:10.43299961;stroke-dasharray:none;stroke-dashoffset:0;stroke-opacity:1" />
            <path
               id="path5440"
               d="m 192.4022,57.09504 0.006,-0.012 0.006,-0.009 0.003,-0.009 0.006,-0.009 0.006,-0.006 0.003,-0.009 0.006,-0.009 0.003,-0.009 0.003,-0.006 0.006,-0.009 0.003,-0.006 0.003,-0.006 0.003,-0.009 0.006,-0.006 0.003,-0.006 0.003,-0.006 0.006,-0.012 0.003,-0.012 0.006,-0.009 0.006,-0.012 0.003,-0.009 0.003,-0.006 0.003,-0.009 0.003,-0.009 0.003,-0.006 0.003,-0.006 0.003,-0.006 v -0.006 l 0.003,-0.006 v -0.006 -0.006 l 0.003,-0.003 v -0.006 -0.003 -0.009 -0.006 -0.009 c 0,-0.108 -0.087,-0.3 -0.294,-0.3 -0.183,0 -0.225,0.09 -0.333,0.3 l -6.708,13.044 c -0.123,0.213 -0.123,0.24 -0.123,0.288 0,0.117 0.108,0.3 0.3,0.3 0.18,0 0.225,-0.09 0.33,-0.3 z"
               inkscape:connector-curvature="0"
               style="font-style:normal;font-variant:normal;font-weight:normal;font-stretch:normal;letter-spacing:normal;word-spacing:normal;text-anchor:start;fill:#3f3f3f;fill-opacity:1;fill-rule:evenodd;stroke:#000000;stroke-width:0;stroke-linecap:butt;stroke-linejoin:miter;stroke-miterlimit:10.43299961;stroke-dasharray:none;stroke-dashoffset:0;stroke-opacity:1" />
            <path
               id="path5442"
               d="m 193.2542,62.32404 h 0.042 0.045 0.042 l 0.024,-0.003 h 0.021 l 0.021,-0.003 0.021,-0.003 0.021,-0.003 0.021,-0.003 0.021,-0.003 0.021,-0.006 0.018,-0.006 0.018,-0.006 0.021,-0.006 0.015,-0.009 0.018,-0.009 0.015,-0.012 0.015,-0.009 0.015,-0.015 0.012,-0.012 0.012,-0.015 0.006,-0.009 0.006,-0.009 0.003,-0.006 0.006,-0.009 0.003,-0.009 0.006,-0.012 0.003,-0.009 0.003,-0.012 0.003,-0.009 0.003,-0.012 0.003,-0.012 v -0.012 l 0.003,-0.012 v -0.012 -0.012 -0.015 c 0,-0.3 -0.285,-0.3 -0.492,-0.3 h -8.952 c -0.213,0 -0.492,0 -0.492,0.3 0,0.294 0.279,0.294 0.507,0.294 z"
               inkscape:connector-curvature="0"
               style="font-style:normal;font-variant:normal;font-weight:normal;font-stretch:normal;letter-spacing:normal;word-spacing:normal;text-anchor:start;fill:#3f3f3f;fill-opacity:1;fill-rule:evenodd;stroke:#000000;stroke-width:0;stroke-linecap:butt;stroke-linejoin:miter;stroke-miterlimit:10.43299961;stroke-dasharray:none;stroke-dashoffset:0;stroke-opacity:1" />
            <path
               id="path5444"
               d="m 193.2692,65.22804 h 0.021 0.018 l 0.042,-0.003 h 0.042 0.021 l 0.021,-0.003 0.021,-0.003 h 0.021 l 0.021,-0.003 0.018,-0.006 0.021,-0.003 0.018,-0.006 0.021,-0.006 0.018,-0.006 0.018,-0.006 0.018,-0.009 0.015,-0.009 0.015,-0.012 0.015,-0.012 0.015,-0.012 0.012,-0.015 0.006,-0.006 0.006,-0.009 0.006,-0.006 0.006,-0.009 0.006,-0.009 0.003,-0.009 0.003,-0.009 0.006,-0.009 0.003,-0.012 0.003,-0.009 0.003,-0.012 0.003,-0.012 0.003,-0.012 v -0.012 l 0.003,-0.012 v -0.012 -0.015 -0.012 c 0,-0.3 -0.285,-0.3 -0.507,-0.3 h -8.922 c -0.228,0 -0.507,0 -0.507,0.3 0,0.3 0.279,0.3 0.492,0.3 z"
               inkscape:connector-curvature="0"
               style="font-style:normal;font-variant:normal;font-weight:normal;font-stretch:normal;letter-spacing:normal;word-spacing:normal;text-anchor:start;fill:#3f3f3f;fill-opacity:1;fill-rule:evenodd;stroke:#000000;stroke-width:0;stroke-linecap:butt;stroke-linejoin:miter;stroke-miterlimit:10.43299961;stroke-dasharray:none;stroke-dashoffset:0;stroke-opacity:1" />
            <path
               id="path5446"
               d="m 204.6872,57.87204 v -0.027 l -0.003,-0.024 -0.003,-0.027 -0.003,-0.027 -0.006,-0.024 -0.006,-0.024 -0.009,-0.027 -0.009,-0.024 -0.009,-0.021 -0.012,-0.024 -0.012,-0.024 -0.015,-0.021 -0.012,-0.021 -0.018,-0.021 -0.015,-0.021 -0.018,-0.018 -0.018,-0.018 -0.021,-0.018 -0.021,-0.015 -0.021,-0.018 -0.024,-0.012 -0.024,-0.015 -0.024,-0.012 -0.024,-0.012 -0.027,-0.009 -0.027,-0.009 -0.03,-0.009 -0.03,-0.006 -0.03,-0.003 -0.03,-0.006 h -0.033 l -0.033,-0.003 c -0.348,0 -0.792,0.348 -0.792,0.792 0,0.3 0.207,0.54 0.552,0.54 0.405,0 0.807,-0.39 0.807,-0.792 z"
               inkscape:connector-curvature="0"
               style="font-style:normal;font-variant:normal;font-weight:normal;font-stretch:normal;letter-spacing:normal;word-spacing:normal;text-anchor:start;fill:#3f3f3f;fill-opacity:1;fill-rule:evenodd;stroke:#000000;stroke-width:0;stroke-linecap:butt;stroke-linejoin:miter;stroke-miterlimit:10.43299961;stroke-dasharray:none;stroke-dashoffset:0;stroke-opacity:1" />
            <path
               id="path5448"
               d="m 201.6842,67.96104 -0.03,0.105 -0.03,0.105 -0.033,0.102 -0.036,0.099 -0.036,0.099 -0.042,0.096 -0.042,0.093 -0.042,0.09 -0.048,0.09 -0.048,0.087 -0.048,0.084 -0.054,0.078 -0.054,0.078 -0.054,0.075 -0.06,0.072 -0.057,0.069 -0.06,0.066 -0.063,0.06 -0.063,0.057 -0.066,0.057 -0.066,0.048 -0.069,0.048 -0.069,0.042 -0.069,0.039 -0.072,0.036 -0.072,0.03 -0.075,0.024 -0.075,0.024 -0.075,0.015 -0.075,0.012 -0.078,0.009 -0.078,0.003 c -0.09,0 -0.315,0 -0.585,-0.138 0.45,-0.108 0.675,-0.492 0.675,-0.792 0,-0.237 -0.165,-0.525 -0.567,-0.525 -0.375,0 -0.807,0.315 -0.807,0.855 0,0.6 0.594,0.927 1.311,0.927 1.047,0 2.439,-0.792 2.814,-2.274 l 1.374,-5.469 c 0.075,-0.3 0.075,-0.507 0.075,-0.555 0,-0.852 -0.63,-1.371 -1.374,-1.371 -1.527,0 -2.376,2.163 -2.376,2.301 0,0.15 0.144,0.15 0.177,0.15 0.135,0 0.15,-0.021 0.267,-0.3 0.375,-0.915 1.065,-1.824 1.884,-1.824 0.21,0 0.48,0.06 0.48,0.684 0,0.348 -0.048,0.51 -0.105,0.765 z"
               inkscape:connector-curvature="0"
               style="font-style:normal;font-variant:normal;font-weight:normal;font-stretch:normal;letter-spacing:normal;word-spacing:normal;text-anchor:start;fill:#3f3f3f;fill-opacity:1;fill-rule:evenodd;stroke:#000000;stroke-width:0;stroke-linecap:butt;stroke-linejoin:miter;stroke-miterlimit:10.43299961;stroke-dasharray:none;stroke-dashoffset:0;stroke-opacity:1" />
          </g>
        </g>
      </g>
      <text
         id="text5666"
         y="230.5782"
         x="189.76634"
         style="font-style:normal;font-weight:normal;font-size:5.29227161px;line-height:1.25;font-family:sans-serif;letter-spacing:0px;word-spacing:0px;fill:#3f3f3f;fill-opacity:1;stroke:none;stroke-width:0.1323068"
         xml:space="preserve"><tspan
           id="tspan5672"
           style="font-style:normal;font-variant:normal;font-weight:normal;font-stretch:normal;font-size:4.58871746px;font-family:Hack;-inkscape-font-specification:Hack;fill:#3f3f3f;fill-opacity:1;stroke-width:0.1323068"
           y="230.5782"
           x="189.76634"
           sodipodi:role="line">Symplectic ~ Cyclic Systems Retain </tspan><tspan
           id="tspan5682"
           style="font-style:normal;font-variant:normal;font-weight:normal;font-stretch:normal;font-size:4.58871746px;font-family:Hack;-inkscape-font-specification:Hack;fill:#3f3f3f;fill-opacity:1;stroke-width:0.1323068"
           y="237.19354"
           x="189.76634"
           sodipodi:role="line">Closed Trajectories in Phase-Space</tspan></text>
    </g>
    <text
       id="text5761"
       y="122.58572"
       x="8.8112078"
       style="font-style:normal;font-weight:normal;font-size:7.66535616px;line-height:1.5;font-family:sans-serif;letter-spacing:0px;word-spacing:0px;fill:#000000;fill-opacity:1;stroke:none;stroke-width:0.19163391"
       xml:space="preserve"><tspan
         style="font-style:normal;font-variant:normal;font-weight:normal;font-stretch:normal;line-height:1.5;font-family:Hack;-inkscape-font-specification:Hack;fill:#0f0f0f;fill-opacity:1;stroke-width:0.19163391"
         y="122.58572"
         x="8.8112078"
         sodipodi:role="line"
         id="tspan5759"><tspan
   style="fill:#800000;stroke-width:0.19163391"
   id="tspan6060">• </tspan>Tracking one particle over lattice <tspan
   style="fill:#800000;stroke-width:0.19163391"
   id="tspan5799">➡</tspan> sequential operation</tspan></text>
    <text
       xml:space="preserve"
       style="font-style:normal;font-variant:normal;font-weight:normal;font-stretch:normal;font-size:10.58333302px;line-height:1.25;font-family:Hack;-inkscape-font-specification:Hack;letter-spacing:0px;word-spacing:0px;fill:#003380;fill-opacity:1;stroke:none;stroke-width:0.26458332"
       x="8.9664803"
       y="103.09821"
       id="text6058"><tspan
         sodipodi:role="line"
         id="tspan6056"
         x="8.9664803"
         y="103.09821"
         style="font-style:normal;font-variant:normal;font-weight:normal;font-stretch:normal;font-family:Hack;-inkscape-font-specification:Hack;fill:#003380;fill-opacity:1;stroke-width:0.26458332">Motivation</tspan></text>
    <text
       id="text6082"
       y="187.44156"
       x="8.8112078"
       style="font-style:normal;font-weight:normal;font-size:7.66535616px;line-height:1.5;font-family:sans-serif;letter-spacing:0px;word-spacing:0px;fill:#0f0f0f;fill-opacity:1;stroke:none;stroke-width:0.19163391"
       xml:space="preserve"><tspan
         id="tspan6080"
         style="font-style:normal;font-variant:normal;font-weight:normal;font-stretch:normal;line-height:1.5;font-family:Hack;-inkscape-font-specification:Hack;fill:#0f0f0f;fill-opacity:1;stroke-width:0.19163391"
         y="187.44156"
         x="8.8112078"
         sodipodi:role="line"><tspan
   style="fill:#800000"
   id="tspan6088">•</tspan> Modern CPUs, GPUs: allow for <tspan
   style="font-style:normal;font-variant:normal;font-weight:bold;font-stretch:normal;font-family:Hack;-inkscape-font-specification:'Hack Bold';fill:#800000"
   id="tspan7424">many</tspan> parallel calculations</tspan></text>
    <g
       id="g7408"
       transform="translate(0,2.8217079)">
      <text
         id="text6096"
         y="138.68747"
         x="8.8112078"
         style="font-style:normal;font-weight:normal;font-size:7.66535616px;line-height:1.5;font-family:sans-serif;letter-spacing:0px;word-spacing:0px;fill:#0f0f0f;fill-opacity:1;stroke:none;stroke-width:0.19163391"
         xml:space="preserve"><tspan
           id="tspan7372"
           style="font-style:normal;font-variant:normal;font-weight:normal;font-stretch:normal;line-height:1.5;font-family:Hack;-inkscape-font-specification:Hack;fill:#0f0f0f;fill-opacity:1;stroke-width:0.19163391"
           y="138.68747"
           x="8.8112078"
           sodipodi:role="line"><tspan
   id="tspan7368"
   style="fill:#800000">•</tspan> Tracking over               turns <tspan
   id="tspan7376"
   style="fill:#800000"> ➡</tspan> numerically expensive</tspan><tspan
           id="tspan7378"
           style="font-style:normal;font-variant:normal;font-weight:normal;font-stretch:normal;line-height:1.5;font-family:Hack;-inkscape-font-specification:Hack;fill:#0f0f0f;fill-opacity:1;stroke-width:0.19163391"
           y="150.1855"
           x="8.8112078"
           sodipodi:role="line" /></text>
      <g
         transform="matrix(0.58494181,0,0,0.58494181,-112.56927,69.914504)"
         id="g6756">
        <path
           id="path6536"
           d="m 341.2149,108.50298 0.03,-0.111 0.015,-0.054 0.018,-0.051 0.018,-0.054 0.021,-0.051 0.021,-0.048 0.024,-0.048 0.024,-0.048 0.027,-0.048 0.03,-0.045 0.03,-0.042 0.036,-0.042 0.036,-0.042 0.039,-0.039 0.045,-0.036 0.045,-0.036 0.048,-0.033 0.054,-0.033 0.054,-0.033 0.06,-0.027 0.063,-0.027 0.069,-0.027 0.069,-0.021 0.078,-0.021 0.078,-0.021 0.084,-0.015 0.09,-0.015 0.096,-0.012 0.099,-0.012 0.102,-0.009 0.054,-0.003 h 0.057 c 0.075,0 0.252,-0.015 0.252,-0.3 0,-0.015 0,-0.165 -0.192,-0.165 -0.498,0 -1.017,0.048 -1.509,0.048 -0.513,0 -1.032,-0.048 -1.527,-0.048 -0.09,0 -0.27,0 -0.27,0.3 0,0.165 0.15,0.165 0.27,0.165 0.852,0.012 1.014,0.327 1.014,0.654 0,0.048 -0.027,0.273 -0.039,0.315 l -1.674,6.651 -3.306,-7.8 c -0.12,-0.27 -0.135,-0.285 -0.477,-0.285 h -2.004 c -0.3,0 -0.435,0 -0.435,0.3 0,0.165 0.135,0.165 0.417,0.165 0.075,0 1.017,0 1.017,0.135 l -2.001,8.025 c -0.15,0.6 -0.402,1.077 -1.611,1.119 -0.096,0 -0.258,0.015 -0.258,0.3 0,0.105 0.075,0.165 0.195,0.165 0.48,0 0.999,-0.048 1.497,-0.048 0.504,0 1.044,0.048 1.536,0.048 0.075,0 0.267,0 0.267,-0.3 0,-0.15 -0.129,-0.165 -0.294,-0.165 -0.867,-0.027 -0.99,-0.354 -0.99,-0.654 0,-0.105 0.015,-0.18 0.06,-0.342 l 1.974,-7.896 c 0.063,0.09 0.063,0.117 0.138,0.267 l 3.72,8.805 c 0.105,0.258 0.147,0.285 0.282,0.285 0.165,0 0.165,-0.048 0.24,-0.315 z"
           inkscape:connector-curvature="0"
           style="font-style:normal;font-variant:normal;font-weight:normal;font-stretch:normal;letter-spacing:normal;word-spacing:normal;text-anchor:start;fill:#000000;fill-opacity:1;fill-rule:evenodd;stroke:#000000;stroke-width:0;stroke-linecap:butt;stroke-linejoin:miter;stroke-miterlimit:10.43299961;stroke-dasharray:none;stroke-dashoffset:0;stroke-opacity:1" />
        <path
           id="path6538"
           d="m 347.0199,113.05098 0.003,-0.015 0.003,-0.012 0.003,-0.015 0.003,-0.012 0.003,-0.012 0.003,-0.012 0.003,-0.012 0.003,-0.012 0.006,-0.021 0.006,-0.021 0.006,-0.021 0.006,-0.015 0.006,-0.018 0.006,-0.015 0.006,-0.015 0.006,-0.015 0.006,-0.012 0.009,-0.009 0.006,-0.012 0.009,-0.009 0.009,-0.009 0.009,-0.009 0.009,-0.006 0.009,-0.006 0.012,-0.006 0.012,-0.006 0.012,-0.003 0.012,-0.006 0.015,-0.003 0.012,-0.003 0.018,-0.003 0.015,-0.003 0.018,-0.003 h 0.018 l 0.021,-0.003 0.021,-0.003 c 0.051,-0.009 0.417,-0.009 0.627,-0.009 0.639,0 0.909,0 1.167,0.084 0.474,0.147 0.492,0.45 0.492,0.825 0,0.165 0,0.3 -0.069,0.846 l -0.024,0.117 c 0,0.102 0.075,0.153 0.177,0.153 0.162,0 0.18,-0.093 0.204,-0.258 l 0.279,-1.995 c 0,-0.15 -0.126,-0.15 -0.312,-0.15 h -6.432 c -0.258,0 -0.282,0 -0.351,0.219 l -0.663,1.851 c -0.009,0.042 -0.051,0.138 -0.051,0.189 0,0.042 0.018,0.144 0.18,0.144 0.135,0 0.153,-0.051 0.219,-0.249 0.606,-1.671 0.951,-1.776 2.541,-1.776 h 0.435 c 0.315,0 0.324,0.009 0.324,0.105 0,0.009 0,0.06 -0.042,0.219 l -1.377,5.499 c -0.096,0.384 -0.129,0.492 -1.224,0.492 -0.375,0 -0.468,0 -0.468,0.228 0,0.03 0.018,0.147 0.177,0.147 0.291,0 0.603,-0.033 0.894,-0.033 0.297,0 0.609,-0.009 0.9,-0.009 0.297,0 0.651,0 0.942,0.009 0.282,0.015 0.597,0.033 0.879,0.033 0.084,0 0.243,0 0.243,-0.231 0,-0.144 -0.108,-0.144 -0.432,-0.144 -0.198,0 -0.408,-0.015 -0.603,-0.024 -0.357,-0.027 -0.378,-0.069 -0.378,-0.198 0,-0.075 0,-0.093 0.039,-0.237 z"
           inkscape:connector-curvature="0"
           style="font-style:normal;font-variant:normal;font-weight:normal;font-stretch:normal;letter-spacing:normal;word-spacing:normal;text-anchor:start;fill:#000000;fill-opacity:1;fill-rule:evenodd;stroke:#000000;stroke-width:0;stroke-linecap:butt;stroke-linejoin:miter;stroke-miterlimit:10.43299961;stroke-dasharray:none;stroke-dashoffset:0;stroke-opacity:1" />
        <path
           id="path6540"
           d="m 365.5479,112.30098 0.018,-0.009 0.018,-0.009 0.018,-0.009 0.018,-0.006 0.018,-0.009 0.015,-0.009 0.015,-0.009 0.015,-0.009 0.015,-0.012 0.012,-0.009 0.012,-0.009 0.012,-0.009 0.012,-0.009 0.012,-0.012 0.009,-0.009 0.009,-0.009 0.009,-0.012 0.009,-0.009 0.006,-0.012 0.009,-0.009 0.006,-0.012 0.006,-0.012 0.003,-0.009 0.006,-0.012 0.003,-0.012 0.003,-0.012 0.003,-0.009 0.003,-0.012 0.003,-0.012 v -0.012 l 0.003,-0.012 v -0.012 c 0,-0.15 -0.063,-0.24 -0.3,-0.348 l -8.238,-3.885 c -0.204,-0.105 -0.267,-0.105 -0.3,-0.105 -0.177,0 -0.294,0.138 -0.294,0.3 0,0.18 0.117,0.255 0.282,0.33 l 7.845,3.693 -7.812,3.69 c -0.3,0.135 -0.315,0.252 -0.315,0.342 0,0.168 0.132,0.3 0.294,0.3 0.048,0 0.075,0 0.273,-0.105 z"
           inkscape:connector-curvature="0"
           style="font-style:normal;font-variant:normal;font-weight:normal;font-stretch:normal;letter-spacing:normal;word-spacing:normal;text-anchor:start;fill:#000000;fill-opacity:1;fill-rule:evenodd;stroke:#000000;stroke-width:0;stroke-linecap:butt;stroke-linejoin:miter;stroke-miterlimit:10.43299961;stroke-dasharray:none;stroke-dashoffset:0;stroke-opacity:1" />
        <path
           id="path6542"
           d="m 365.3229,119.19198 h 0.048 0.045 l 0.048,-0.003 h 0.024 l 0.024,-0.003 h 0.021 l 0.024,-0.003 0.021,-0.003 0.021,-0.003 0.021,-0.006 0.021,-0.003 0.021,-0.006 0.018,-0.009 0.018,-0.006 0.018,-0.009 0.015,-0.009 0.018,-0.012 0.015,-0.009 0.012,-0.015 0.012,-0.012 0.012,-0.015 0.006,-0.009 0.006,-0.009 0.003,-0.009 0.006,-0.009 0.003,-0.009 0.003,-0.009 0.006,-0.012 0.003,-0.009 0.003,-0.012 v -0.012 l 0.003,-0.009 0.003,-0.012 v -0.015 -0.012 l 0.003,-0.012 v -0.015 c 0,-0.3 -0.315,-0.3 -0.54,-0.3 h -8.058 c -0.219,0 -0.534,0 -0.534,0.3 0,0.3 0.267,0.3 0.519,0.3 z"
           inkscape:connector-curvature="0"
           style="font-style:normal;font-variant:normal;font-weight:normal;font-stretch:normal;letter-spacing:normal;word-spacing:normal;text-anchor:start;fill:#000000;fill-opacity:1;fill-rule:evenodd;stroke:#000000;stroke-width:0;stroke-linecap:butt;stroke-linejoin:miter;stroke-miterlimit:10.43299961;stroke-dasharray:none;stroke-dashoffset:0;stroke-opacity:1" />
        <path
           id="path6544"
           d="m 375.6339,107.57598 v -0.015 -0.018 -0.015 -0.015 -0.015 -0.015 -0.012 -0.015 l -0.003,-0.012 v -0.012 -0.012 -0.012 -0.012 -0.009 l -0.003,-0.012 v -0.009 l -0.003,-0.021 -0.003,-0.018 -0.003,-0.015 -0.003,-0.015 -0.006,-0.015 -0.006,-0.012 -0.006,-0.012 -0.006,-0.009 -0.009,-0.009 -0.009,-0.009 -0.012,-0.009 -0.012,-0.006 -0.012,-0.006 -0.009,-0.003 -0.006,-0.003 h -0.009 l -0.009,-0.003 -0.006,-0.003 h -0.009 l -0.009,-0.003 h -0.012 l -0.009,-0.003 h -0.009 -0.012 l -0.012,-0.003 h -0.012 -0.012 -0.012 -0.012 -0.015 l -0.012,-0.003 h -0.015 -0.015 -0.015 -0.015 c -0.93,0.957 -2.241,0.957 -2.721,0.957 v 0.465 c 0.3,0 1.182,0 1.956,-0.39 v 7.743 c 0,0.54 -0.042,0.717 -1.386,0.717 h -0.48 v 0.465 c 0.525,-0.048 1.824,-0.048 2.421,-0.048 0.6,0 1.896,0 2.421,0.048 v -0.465 h -0.477 c -1.344,0 -1.392,-0.162 -1.392,-0.717 z"
           inkscape:connector-curvature="0"
           style="font-style:normal;font-variant:normal;font-weight:normal;font-stretch:normal;letter-spacing:normal;word-spacing:normal;text-anchor:start;fill:#000000;fill-opacity:1;fill-rule:evenodd;stroke:#000000;stroke-width:0;stroke-linecap:butt;stroke-linejoin:miter;stroke-miterlimit:10.43299961;stroke-dasharray:none;stroke-dashoffset:0;stroke-opacity:1" />
        <path
           id="path6546"
           d="m 385.6059,112.36098 -0.003,-0.222 -0.003,-0.225 -0.006,-0.225 -0.009,-0.222 -0.012,-0.225 -0.018,-0.222 -0.024,-0.222 -0.03,-0.219 -0.033,-0.219 -0.042,-0.219 -0.048,-0.216 -0.057,-0.216 -0.066,-0.216 -0.072,-0.21 -0.084,-0.21 -0.045,-0.105 -0.048,-0.102 c -0.684,-1.44 -1.914,-1.68 -2.541,-1.68 -0.897,0 -1.989,0.39 -2.601,1.782 -0.48,1.032 -0.555,2.199 -0.555,3.393 0,1.122 0.063,2.466 0.675,3.6 0.642,1.209 1.734,1.509 2.466,1.509 v -0.327 c -0.582,0 -1.467,-0.375 -1.734,-1.809 -0.165,-0.894 -0.165,-2.268 -0.165,-3.156 0,-0.954 0,-1.938 0.123,-2.745 0.282,-1.782 1.401,-1.914 1.776,-1.914 0.492,0 1.482,0.267 1.764,1.749 0.15,0.834 0.15,1.974 0.15,2.91 0,1.125 0,2.139 -0.165,3.096 -0.225,1.419 -1.077,1.869 -1.749,1.869 v 0 0.327 c 0.807,0 1.941,-0.312 2.601,-1.734 0.48,-1.029 0.555,-2.193 0.555,-3.375 z"
           inkscape:connector-curvature="0"
           style="font-style:normal;font-variant:normal;font-weight:normal;font-stretch:normal;letter-spacing:normal;word-spacing:normal;text-anchor:start;fill:#000000;fill-opacity:1;fill-rule:evenodd;stroke:#000000;stroke-width:0;stroke-linecap:butt;stroke-linejoin:miter;stroke-miterlimit:10.43299961;stroke-dasharray:none;stroke-dashoffset:0;stroke-opacity:1" />
        <path
           id="path6548"
           d="m 391.7499,110.02698 v -0.375 h -1.164 v -4.662 c 0,-0.216 0,-0.291 -0.228,-0.291 -0.126,0 -0.171,0 -0.273,0.144 l -3.459,4.809 v 0.375 h 3.075 l 0.069,-0.375 h -2.76 l 2.76,-3.825 v 3.825 l -0.069,0.375 v 0.858 c 0,0.357 0,0.483 -0.849,0.483 h -0.282 v 0.375 c 0.522,-0.018 1.191,-0.042 1.566,-0.042 0.39,0 1.056,0.024 1.581,0.042 v -0.375 h -0.282 c -0.849,0 -0.849,-0.126 -0.849,-0.483 v -0.858 z"
           inkscape:connector-curvature="0"
           style="font-style:normal;font-variant:normal;font-weight:normal;font-stretch:normal;letter-spacing:normal;word-spacing:normal;text-anchor:start;fill:#000000;fill-opacity:1;fill-rule:evenodd;stroke:#000000;stroke-width:0;stroke-linecap:butt;stroke-linejoin:miter;stroke-miterlimit:10.43299961;stroke-dasharray:none;stroke-dashoffset:0;stroke-opacity:1" />
        <path
           id="path6550"
           d="m 398.2659,116.35098 v -0.039 l -0.003,-0.042 -0.006,-0.039 -0.006,-0.039 -0.009,-0.036 -0.012,-0.039 -0.012,-0.036 -0.012,-0.036 -0.018,-0.036 -0.018,-0.033 -0.018,-0.033 -0.021,-0.033 -0.021,-0.03 -0.024,-0.03 -0.024,-0.03 -0.027,-0.027 -0.027,-0.027 -0.03,-0.024 -0.03,-0.024 -0.03,-0.021 -0.033,-0.021 -0.033,-0.021 -0.033,-0.018 -0.036,-0.015 -0.036,-0.015 -0.036,-0.012 -0.039,-0.012 -0.039,-0.009 -0.039,-0.006 -0.039,-0.006 -0.039,-0.003 h -0.042 c -0.432,0 -0.792,0.36 -0.792,0.792 0,0.432 0.36,0.792 0.792,0.792 0.438,0 0.792,-0.36 0.792,-0.792 z"
           inkscape:connector-curvature="0"
           style="font-style:normal;font-variant:normal;font-weight:normal;font-stretch:normal;letter-spacing:normal;word-spacing:normal;text-anchor:start;fill:#000000;fill-opacity:1;fill-rule:evenodd;stroke:#000000;stroke-width:0;stroke-linecap:butt;stroke-linejoin:miter;stroke-miterlimit:10.43299961;stroke-dasharray:none;stroke-dashoffset:0;stroke-opacity:1" />
        <path
           id="path6552"
           d="m 404.8899,116.35098 -0.003,-0.039 -0.003,-0.042 -0.003,-0.039 -0.009,-0.039 -0.009,-0.036 -0.009,-0.039 -0.012,-0.036 -0.015,-0.036 -0.015,-0.036 -0.018,-0.033 -0.021,-0.033 -0.018,-0.033 -0.024,-0.03 -0.024,-0.03 -0.024,-0.03 -0.027,-0.027 -0.027,-0.027 -0.03,-0.024 -0.03,-0.024 -0.03,-0.021 -0.033,-0.021 -0.033,-0.021 -0.033,-0.018 -0.036,-0.015 -0.036,-0.015 -0.036,-0.012 -0.036,-0.012 -0.039,-0.009 -0.039,-0.006 -0.039,-0.006 -0.042,-0.003 h -0.039 c -0.432,0 -0.792,0.36 -0.792,0.792 0,0.432 0.36,0.792 0.792,0.792 0.435,0 0.792,-0.36 0.792,-0.792 z"
           inkscape:connector-curvature="0"
           style="font-style:normal;font-variant:normal;font-weight:normal;font-stretch:normal;letter-spacing:normal;word-spacing:normal;text-anchor:start;fill:#000000;fill-opacity:1;fill-rule:evenodd;stroke:#000000;stroke-width:0;stroke-linecap:butt;stroke-linejoin:miter;stroke-miterlimit:10.43299961;stroke-dasharray:none;stroke-dashoffset:0;stroke-opacity:1" />
        <path
           id="path6554"
           d="m 411.5139,116.35098 -0.003,-0.039 -0.003,-0.042 -0.003,-0.039 -0.009,-0.039 -0.009,-0.036 -0.009,-0.039 -0.012,-0.036 -0.015,-0.036 -0.018,-0.036 -0.015,-0.033 -0.021,-0.033 -0.021,-0.033 -0.021,-0.03 -0.024,-0.03 -0.024,-0.03 -0.027,-0.027 -0.027,-0.027 -0.03,-0.024 -0.03,-0.024 -0.03,-0.021 -0.033,-0.021 -0.033,-0.021 -0.033,-0.018 -0.036,-0.015 -0.036,-0.015 -0.036,-0.012 -0.039,-0.012 -0.036,-0.009 -0.039,-0.006 -0.042,-0.006 -0.039,-0.003 h -0.039 c -0.432,0 -0.795,0.36 -0.795,0.792 0,0.432 0.363,0.792 0.795,0.792 0.435,0 0.792,-0.36 0.792,-0.792 z"
           inkscape:connector-curvature="0"
           style="font-style:normal;font-variant:normal;font-weight:normal;font-stretch:normal;letter-spacing:normal;word-spacing:normal;text-anchor:start;fill:#000000;fill-opacity:1;fill-rule:evenodd;stroke:#000000;stroke-width:0;stroke-linecap:butt;stroke-linejoin:miter;stroke-miterlimit:10.43299961;stroke-dasharray:none;stroke-dashoffset:0;stroke-opacity:1" />
        <path
           id="path6556"
           d="m 419.6949,107.57598 v -0.015 -0.018 -0.015 -0.015 -0.015 -0.015 -0.012 -0.015 -0.012 l -0.003,-0.012 v -0.012 -0.012 -0.012 -0.009 l -0.003,-0.012 v -0.009 l -0.003,-0.021 -0.003,-0.018 -0.003,-0.015 -0.003,-0.015 -0.006,-0.015 -0.006,-0.012 -0.006,-0.012 -0.006,-0.009 -0.009,-0.009 -0.009,-0.009 -0.012,-0.009 -0.012,-0.006 -0.012,-0.006 -0.009,-0.003 -0.006,-0.003 h -0.009 l -0.006,-0.003 -0.009,-0.003 h -0.009 l -0.009,-0.003 h -0.009 l -0.012,-0.003 h -0.009 -0.012 l -0.012,-0.003 h -0.009 -0.012 -0.015 -0.012 -0.012 l -0.015,-0.003 h -0.015 -0.015 -0.015 -0.015 c -0.927,0.957 -2.241,0.957 -2.718,0.957 v 0.465 c 0.3,0 1.179,0 1.953,-0.39 v 7.743 c 0,0.54 -0.042,0.717 -1.386,0.717 h -0.48 v 0.465 c 0.525,-0.048 1.824,-0.048 2.421,-0.048 0.6,0 1.896,0 2.421,0.048 v -0.465 h -0.477 c -1.344,0 -1.392,-0.162 -1.392,-0.717 z"
           inkscape:connector-curvature="0"
           style="font-style:normal;font-variant:normal;font-weight:normal;font-stretch:normal;letter-spacing:normal;word-spacing:normal;text-anchor:start;fill:#000000;fill-opacity:1;fill-rule:evenodd;stroke:#000000;stroke-width:0;stroke-linecap:butt;stroke-linejoin:miter;stroke-miterlimit:10.43299961;stroke-dasharray:none;stroke-dashoffset:0;stroke-opacity:1" />
        <path
           id="path6558"
           d="m 429.6669,112.36098 -0.003,-0.222 -0.003,-0.225 -0.006,-0.225 -0.009,-0.222 -0.012,-0.225 -0.018,-0.222 -0.024,-0.222 -0.03,-0.219 -0.033,-0.219 -0.042,-0.219 -0.048,-0.216 -0.057,-0.216 -0.066,-0.216 -0.072,-0.21 -0.084,-0.21 -0.045,-0.105 -0.048,-0.102 c -0.684,-1.44 -1.914,-1.68 -2.541,-1.68 -0.894,0 -1.989,0.39 -2.601,1.782 -0.48,1.032 -0.555,2.199 -0.555,3.393 0,1.122 0.063,2.466 0.675,3.6 0.642,1.209 1.737,1.509 2.466,1.509 v -0.327 c -0.579,0 -1.467,-0.375 -1.734,-1.809 -0.165,-0.894 -0.165,-2.268 -0.165,-3.156 0,-0.954 0,-1.938 0.123,-2.745 0.282,-1.782 1.401,-1.914 1.776,-1.914 0.492,0 1.482,0.267 1.764,1.749 0.15,0.834 0.15,1.974 0.15,2.91 0,1.125 0,2.139 -0.165,3.096 -0.225,1.419 -1.077,1.869 -1.749,1.869 v 0 0.327 c 0.807,0 1.941,-0.312 2.601,-1.734 0.48,-1.029 0.555,-2.193 0.555,-3.375 z"
           inkscape:connector-curvature="0"
           style="font-style:normal;font-variant:normal;font-weight:normal;font-stretch:normal;letter-spacing:normal;word-spacing:normal;text-anchor:start;fill:#000000;fill-opacity:1;fill-rule:evenodd;stroke:#000000;stroke-width:0;stroke-linecap:butt;stroke-linejoin:miter;stroke-miterlimit:10.43299961;stroke-dasharray:none;stroke-dashoffset:0;stroke-opacity:1" />
        <path
           id="path6560"
           d="m 433.9929,107.96898 0.078,-0.036 0.072,-0.039 0.072,-0.039 0.072,-0.039 0.066,-0.039 0.066,-0.042 0.066,-0.042 0.063,-0.042 0.06,-0.042 0.057,-0.045 0.057,-0.045 0.054,-0.045 0.051,-0.045 0.048,-0.048 0.048,-0.048 0.045,-0.048 0.042,-0.048 0.039,-0.051 0.039,-0.054 0.033,-0.051 0.033,-0.054 0.03,-0.054 0.027,-0.057 0.024,-0.057 0.024,-0.057 0.018,-0.06 0.015,-0.06 0.015,-0.06 0.009,-0.063 0.009,-0.066 0.003,-0.066 0.003,-0.066 c 0,-1.017 -1.056,-1.56 -2.067,-1.56 l -0.024,0.306 c 0.816,0 1.536,0.51 1.536,1.254 0,0.93 -1.086,1.398 -1.104,1.398 -0.024,0 -0.045,-0.009 -0.12,-0.051 l -1.263,-0.732 c -0.273,-0.156 -0.564,-0.441 -0.564,-0.825 0,-0.66 0.765,-1.044 1.515,-1.044 l 0.024,-0.306 c -1.155,0 -2.091,0.756 -2.091,1.749 0,0.486 0.228,0.843 0.417,1.053 0.186,0.222 0.261,0.264 0.876,0.63 -0.585,0.249 -1.623,0.816 -1.623,1.911 0,1.158 1.206,1.809 2.397,1.809 l 0.024,-0.336 c -0.966,0 -1.791,-0.615 -1.791,-1.473 0,-0.774 0.576,-1.368 1.326,-1.716 v 0 l 1.434,0.825 c 0.273,0.162 0.792,0.474 0.792,1.089 0,0.783 -0.867,1.275 -1.761,1.275 l -0.024,0.336 c 1.326,0 2.412,-0.846 2.412,-1.977 0,-0.69 -0.405,-1.275 -1.011,-1.632 -0.135,-0.084 -0.501,-0.291 -0.648,-0.375 z"
           inkscape:connector-curvature="0"
           style="font-style:normal;font-variant:normal;font-weight:normal;font-stretch:normal;letter-spacing:normal;word-spacing:normal;text-anchor:start;fill:#000000;fill-opacity:1;fill-rule:evenodd;stroke:#000000;stroke-width:0;stroke-linecap:butt;stroke-linejoin:miter;stroke-miterlimit:10.43299961;stroke-dasharray:none;stroke-dashoffset:0;stroke-opacity:1" />
      </g>
    </g>
    <g
       id="g7422"
       transform="translate(0,6.7000722)">
      <text
         id="text6068"
         y="152.02628"
         x="8.8112078"
         style="font-style:normal;font-weight:normal;font-size:7.66535616px;line-height:1.5;font-family:sans-serif;letter-spacing:0px;word-spacing:0px;fill:#000000;fill-opacity:1;stroke:none;stroke-width:0.19163391"
         xml:space="preserve"><tspan
           style="font-style:normal;font-variant:normal;font-weight:normal;font-stretch:normal;line-height:1.5;font-family:Hack;-inkscape-font-specification:Hack;fill:#0f0f0f;fill-opacity:1;stroke-width:0.19163391"
           y="152.02628"
           x="8.8112078"
           sodipodi:role="line"
           id="tspan6066"><tspan
   style="fill:#800000;stroke-width:0.19163391"
   id="tspan6062">• </tspan>Tracking        non-interacting particles over lattice</tspan><tspan
           id="tspan6070"
           style="font-style:normal;font-variant:normal;font-weight:normal;font-stretch:normal;line-height:1.5;font-family:Hack;-inkscape-font-specification:Hack;fill:#0f0f0f;fill-opacity:1;stroke-width:0.19163391"
           y="163.52431"
           x="8.8112078"
           sodipodi:role="line">  <tspan
   id="tspan6072"
   style="fill:#800000">➡</tspan> &quot;embarrissingly parallel problem&quot;</tspan></text>
      <g
         transform="matrix(0.58494181,0,0,0.58494181,9.0908437,93.450442)"
         id="g7216">
        <g
           style="font-style:normal;font-variant:normal;font-weight:normal;font-stretch:normal;letter-spacing:normal;word-spacing:normal;text-anchor:start;fill:none;fill-opacity:1;fill-rule:evenodd;stroke:#000000;stroke-linecap:butt;stroke-linejoin:miter;stroke-miterlimit:10.43299961;stroke-dasharray:none;stroke-dashoffset:0;stroke-opacity:1"
           id="g7214"
           transform="matrix(0.3,0,0,-0.3,-52.5,222.75)"
           xml:space="preserve"
           stroke-miterlimit="10.433"
           font-style="normal"
           font-variant="normal"
           font-weight="normal"
           font-stretch="normal"
           font-size-adjust="none"
           letter-spacing="normal"
           word-spacing="normal"><path
             style="fill:#000000;stroke-width:0"
             inkscape:connector-curvature="0"
             d="m 493.19,435 0.1,0.37 0.05,0.18 0.06,0.17 0.06,0.18 0.07,0.17 0.07,0.16 0.08,0.16 0.08,0.16 0.09,0.16 0.1,0.15 0.1,0.14 0.12,0.14 0.12,0.14 0.13,0.13 0.15,0.12 0.15,0.12 0.16,0.11 0.18,0.11 0.18,0.11 0.2,0.09 0.21,0.09 0.23,0.09 0.23,0.07 0.26,0.07 0.26,0.07 0.28,0.05 0.3,0.05 0.31,0.04 0.33,0.04 0.35,0.03 0.18,0.01 h 0.19 c 0.25,0 0.84,0.05 0.84,1 0,0.05 0,0.55 -0.64,0.55 -1.66,0 -3.39,-0.16 -5.03,-0.16 -1.7,0 -3.44,0.16 -5.1,0.16 -0.29,0 -0.89,0 -0.89,-1 0,-0.55 0.5,-0.55 0.89,-0.55 2.85,-0.04 3.4,-1.09 3.4,-2.18 0,-0.16 -0.1,-0.91 -0.15,-1.05 l -5.57,-22.17 -11.02,26 c -0.41,0.9 -0.45,0.95 -1.59,0.95 h -6.67 c -1,0 -1.46,0 -1.46,-1 0,-0.55 0.46,-0.55 1.39,-0.55 0.25,0 3.39,0 3.39,-0.45 l -6.67,-26.75 c -0.5,-2 -1.34,-3.59 -5.37,-3.73 -0.32,0 -0.86,-0.05 -0.86,-1 0,-0.35 0.25,-0.55 0.65,-0.55 1.6,0 3.33,0.16 4.99,0.16 1.69,0 3.48,-0.16 5.12,-0.16 0.25,0 0.89,0 0.89,1 0,0.5 -0.43,0.55 -0.98,0.55 -2.89,0.09 -3.3,1.18 -3.3,2.18 0,0.35 0.05,0.6 0.21,1.14 l 6.57,26.32 c 0.21,-0.3 0.21,-0.39 0.46,-0.89 l 12.4,-29.35 c 0.35,-0.86 0.49,-0.95 0.94,-0.95 0.55,0 0.55,0.16 0.8,1.05 z"
             id="path7204" /><path
             style="fill:#000000;stroke-width:0"
             inkscape:connector-curvature="0"
             d="m 507.48,409.56 0.14,1.12 2.37,9.44 c 0.28,1.08 0.31,1.19 1.78,1.19 h 4.08 c 3.24,0 5.25,-0.99 5.25,-3.45 0,-1.08 -0.4,-3.83 -2.15,-5.41 -1.25,-1.11 -3.24,-1.77 -5.75,-1.77 h -5.58 l -0.14,-1.12 h 6.31 c 5.89,0 10.87,3.76 10.87,7.56 0,2.94 -2.86,5.44 -7.64,5.44 h -12.18 c -0.71,0 -1.11,0 -1.11,-0.77 0,-0.48 0.37,-0.48 1.14,-0.48 0.56,0 0.7,0 1.33,-0.08 0.7,-0.06 0.76,-0.14 0.76,-0.48 0,-0.07 0,-0.24 -0.14,-0.77 l -4.59,-18.36 c -0.36,-1.36 -0.39,-1.61 -3.11,-1.61 -0.63,0 -1.05,0 -1.05,-0.76 0,-0.04 0,-0.49 0.56,-0.49 1.02,0 3.52,0.14 4.53,0.14 0.6,0 1.82,0 2.41,-0.03 0.69,-0.05 1.56,-0.11 2.23,-0.11 0.21,0 0.72,0 0.72,0.77 0,0.48 -0.4,0.48 -1.11,0.48 -0.03,0 -0.7,0 -1.32,0.08 -0.8,0.06 -0.8,0.17 -0.8,0.52 0,0.03 0,0.25 0.14,0.76 z"
             id="path7206" /><path
             style="fill:#000000;stroke-width:0"
             inkscape:connector-curvature="0"
             d="m 573.53,417.56 0.06,0.03 0.05,0.03 0.05,0.03 0.05,0.03 0.05,0.03 0.05,0.03 0.04,0.02 0.05,0.03 0.04,0.03 0.04,0.03 0.04,0.02 0.04,0.03 0.03,0.03 0.04,0.02 0.03,0.03 0.03,0.03 0.03,0.03 0.03,0.03 0.02,0.03 0.03,0.04 0.02,0.03 0.02,0.03 0.02,0.04 0.02,0.04 0.01,0.04 0.01,0.04 0.01,0.04 0.01,0.05 0.01,0.05 v 0.05 l 0.01,0.05 v 0.05 c 0,0.6 -0.35,0.75 -0.94,1.1 l -26.25,14.36 c -0.2,0.09 -0.56,0.29 -0.9,0.29 -0.46,0 -1,-0.29 -1,-1 0,-0.54 0.4,-0.75 1,-1.09 L 571.39,418.65 546.38,405 c -0.6,-0.35 -1,-0.55 -1,-1.1 0,-0.98 0.95,-0.98 1.29,-0.98 z"
             id="path7208" /><path
             style="fill:#000000;stroke-width:0"
             inkscape:connector-curvature="0"
             d="m 588.72,417.56 0.06,0.03 0.05,0.03 0.05,0.03 0.05,0.03 0.05,0.03 0.05,0.03 0.05,0.02 0.04,0.03 0.05,0.03 0.04,0.03 0.04,0.02 0.04,0.03 0.03,0.03 0.04,0.02 0.03,0.03 0.03,0.03 0.03,0.03 0.03,0.03 0.03,0.03 0.02,0.04 0.02,0.03 0.02,0.03 0.02,0.04 0.02,0.04 0.01,0.04 0.02,0.04 0.01,0.04 0.01,0.05 v 0.05 l 0.01,0.05 v 0.05 0.05 c 0,0.6 -0.34,0.75 -0.95,1.1 l -26.25,14.36 c -0.2,0.09 -0.55,0.29 -0.89,0.29 -0.46,0 -1,-0.29 -1,-1 0,-0.54 0.39,-0.75 1,-1.09 l 25,-13.66 -25,-13.65 c -0.61,-0.35 -1,-0.55 -1,-1.1 0,-0.98 0.94,-0.98 1.3,-0.98 z"
             id="path7210" /><path
             style="fill:#000000;stroke-width:0"
             inkscape:connector-curvature="0"
             d="m 620.88,438.09 v 0.05 0.06 0.05 0.05 0.05 0.05 0.04 0.05 0.04 l -0.01,0.04 v 0.04 0.04 0.04 0.03 l -0.01,0.04 v 0.03 l -0.01,0.07 -0.01,0.06 -0.01,0.05 -0.01,0.05 -0.02,0.05 -0.02,0.04 -0.02,0.04 -0.02,0.03 -0.03,0.03 -0.03,0.03 -0.04,0.03 -0.04,0.02 -0.04,0.02 -0.03,0.01 -0.02,0.01 h -0.03 l -0.02,0.01 -0.03,0.01 h -0.03 l -0.03,0.01 h -0.04 l -0.03,0.01 h -0.03 -0.04 l -0.04,0.01 h -0.04 -0.04 -0.04 -0.04 -0.04 l -0.05,0.01 h -0.05 -0.05 -0.05 -0.05 c -3.09,-3.19 -7.47,-3.19 -9.06,-3.19 v -1.55 c 1,0 3.93,0 6.51,1.3 v -25.81 c 0,-1.8 -0.14,-2.39 -4.62,-2.39 h -1.6 v -1.55 c 1.75,0.16 6.08,0.16 8.06,0.16 2,0 6.33,0 8.08,-0.16 v 1.55 h -1.59 c -4.49,0 -4.64,0.54 -4.64,2.39 z"
             id="path7212" /></g>      </g>
    </g>
    <text
       xml:space="preserve"
       style="font-style:normal;font-weight:normal;font-size:7.66535616px;line-height:1.5;font-family:sans-serif;letter-spacing:0px;word-spacing:0px;fill:#0f0f0f;fill-opacity:1;stroke:none;stroke-width:0.19163391"
       x="8.8112078"
       y="204.60634"
       id="text7434"><tspan
         sodipodi:role="line"
         x="8.8112078"
         y="204.60634"
         style="font-style:normal;font-variant:normal;font-weight:normal;font-stretch:normal;line-height:1.5;font-family:Hack;-inkscape-font-specification:Hack;fill:#0f0f0f;fill-opacity:1;stroke-width:0.19163391"
         id="tspan7432"><tspan
   id="tspan7428"
   style="fill:#800000">•</tspan> Idea: Re-implemenation of SixTrack's core as a stand-alone,</tspan><tspan
         sodipodi:role="line"
         x="8.8112078"
         y="216.10437"
         style="font-style:normal;font-variant:normal;font-weight:normal;font-stretch:normal;line-height:1.5;font-family:Hack;-inkscape-font-specification:Hack;fill:#0f0f0f;fill-opacity:1;stroke-width:0.19163391"
         id="tspan7436">        library suitable for (massively) parallel systems</tspan></text>
    <g
       id="g161"
       transform="translate(-52.220625,124.0652)">
      <rect
         transform="matrix(1,0,0.93253677,-0.36107502,0,0)"
         y="-457.01312"
         x="481.90619"
         height="5.337039"
         width="286.61618"
         id="rect258"
         style="fill:#003380;fill-opacity:1;stroke:#000080;stroke-width:0.29982483;stroke-opacity:1" />
      <text
         id="text262"
         y="171.34727"
         x="61.972221"
         style="font-style:normal;font-variant:normal;font-weight:normal;font-stretch:normal;font-size:5.64444447px;line-height:1.25;font-family:Hack;-inkscape-font-specification:Hack;letter-spacing:0px;word-spacing:0px;fill:#003380;fill-opacity:1;stroke:none;stroke-width:0.26458332"
         xml:space="preserve"><tspan
           style="fill:#003380;fill-opacity:1;stroke-width:0.26458332"
           y="171.34727"
           x="61.972221"
           id="tspan260"
           sodipodi:role="line">ABP Group Information Meeting - February 2020 :: SixTrackLib :: Schwinzerl :: 1 / 6</tspan></text>
    </g>
  </g>
</svg>
